<svg width="110" height="110" xmlns="http://www.w3.org/2000/svg">
    <defs>
        <style>.a,.e{fill:none;}.a{stroke:#fff;stroke-width:2px;}.a,.b{opacity:0;}.b{fill:#232323;}.c{fill:#2e2d2b;}.d{stroke:none;}</style>
    </defs>
    <g>
        <title>Layer 1</title>
        <g id="svg_1" class="a">
            <circle id="svg_2" r="27.5" cy="27.5" cx="27.5" class="d"/>
            <circle id="svg_3" r="26.5" cy="27.5" cx="27.5" class="e"/>
        </g>
        <path stroke="null" id="svg_4" d="m53.5,15a37.5,37.5 0 1 1 -37.5,37.5a37.5,37.5 0 0 1 37.5,-37.5z" class="b"/>
        <path stroke="null" id="svg_5" d="m53.66688,34.85785a18.76332,18.76332 0 1 0 13.30558,5.50244a18.79427,18.79427 0 0 0 -13.30558,-5.50244zm0,31.01312a12.21885,12.21885 0 1 1 12.21885,-12.20166a12.21885,12.21885 0 0 1 -12.21885,12.20166zm23.94593,-31.78346a4.36756,4.36756 0 1 1 -1.27932,-3.09512a4.38476,4.38476 0 0 1 1.27932,3.09512zm12.44927,4.4501a21.69336,21.69336 0 0 0 -5.922,-15.35868a21.8378,21.8378 0 0 0 -15.35868,-5.922c-6.05268,-0.3439 -24.19354,-0.3439 -30.24278,0a21.80685,21.80685 0 0 0 -15.36212,5.90824a21.76558,21.76558 0 0 0 -5.91856,15.37244c-0.3439,6.05268 -0.3439,24.19354 0,30.24278a21.69336,21.69336 0 0 0 5.922,15.35868a21.86532,21.86532 0 0 0 15.35868,5.922c6.05268,0.3439 24.19354,0.3439 30.24278,0a21.69336,21.69336 0 0 0 15.35868,-5.922a21.8378,21.8378 0 0 0 5.922,-15.37244c0.3439,-6.05268 0.3439,-24.17634 0,-30.22902zm-7.8169,36.72534a12.38049,12.38049 0 0 1 -6.9709,6.95027c-4.81463,1.9121 -16.2769,1.4719 -21.60739,1.4719s-16.79963,0.42644 -21.60739,-1.4719a12.38049,12.38049 0 0 1 -6.96746,-6.96746c-1.9121,-4.81463 -1.4719,-16.2769 -1.4719,-21.60739s-0.41268,-16.78244 1.4719,-21.59363a12.38049,12.38049 0 0 1 6.96746,-6.96746c4.81463,-1.9121 16.2769,-1.4719 21.60739,-1.4719s16.79963,-0.42644 21.60739,1.4719a12.38049,12.38049 0 0 1 6.96746,6.96746c1.9121,4.81463 1.4719,16.2769 1.4719,21.60739s0.44363,16.79963 -1.46846,21.61083z" class="c"/>
    </g>
</svg>
