<svg xmlns="http://www.w3.org/2000/svg" width="215.324" height="215.321" viewBox="0 0 215.324 215.321">
  <g id="Gruppe_864" data-name="Gruppe 864" style="isolation: isolate">
    <path id="Pfad_669" data-name="Pfad 669" d="M107.66,0,0,107.66l107.66,107.66L215.324,107.66ZM4.527,107.66,107.66,4.527,210.8,107.66,107.66,210.794Z" fill="#2e2d2b"/>
    <path id="Pfad_670" data-name="Pfad 670" d="M24.265,32.945c-1.249,0-3.6-.314-3.6-.314l-.247,1.879a22.186,22.186,0,0,0,3.992.547c2.356,0,4.133-1.213,4.133-3.819,0-1.985-.791-2.708-3.377-3.531-2-.637-2.478-.9-2.478-1.655,0-.791.615-1.265,1.914-1.265,1.021,0,3.5.279,3.5.279l.2-1.914a24.891,24.891,0,0,0-3.941-.477c-2.427,0-4.079,1.072-4.079,3.554,0,1.914,1.018,2.83,3.71,3.6,1.722.493,2.145.826,2.145,1.565C26.128,32.33,25.565,32.945,24.265,32.945Z" transform="translate(44.629 49.917)" fill="#2e2d2b"/>
    <path id="Pfad_671" data-name="Pfad 671" d="M27.892,35.058a19.728,19.728,0,0,0,3.483-.407l-.051-1.988a25.939,25.939,0,0,1-3.009.25c-2.075,0-2.5-.829-2.5-4.047,0-3.4.579-4.047,2.427-4.047a26.592,26.592,0,0,1,3.08.263l.067-1.93a16.713,16.713,0,0,0-3.5-.477c-3.55,0-4.572,1.655-4.572,6.192C23.32,33.054,24.2,35.058,27.892,35.058Z" transform="translate(51.337 49.917)" fill="#2e2d2b"/>
    <path id="Pfad_672" data-name="Pfad 672" d="M28.884,29.741h4.449V34.7h2.426V22.741H33.332v4.89H28.884v-4.89H26.454V34.7h2.429Z" transform="translate(58.237 50.062)" fill="#2e2d2b"/>
    <path id="Pfad_673" data-name="Pfad 673" d="M35.838,34.7l1.882-9.092L39.6,34.7h3.673l2.285-11.958H43.013l-1.479,9.886h-.263l-2.145-9.886H36.313l-2.148,9.886H33.9l-1.479-9.886H29.876L32.162,34.7Z" transform="translate(65.77 50.062)" fill="#2e2d2b"/>
    <path id="Pfad_674" data-name="Pfad 674" d="M37.88,32.534h4.187l.471,2.164h2.43L42.276,22.741H37.669L34.98,34.7h2.427Zm1.668-7.786h.845l1.213,5.676H38.338Z" transform="translate(77.005 50.062)" fill="#2e2d2b"/>
    <path id="Pfad_675" data-name="Pfad 675" d="M45.41,32.554H41.03V22.741H38.6V34.7H45.41Z" transform="translate(84.983 50.062)" fill="#2e2d2b"/>
    <path id="Pfad_676" data-name="Pfad 676" d="M49.856,31.27c0-1.549-.528-2.286-1.549-2.724a2.66,2.66,0,0,0,1.319-2.638c0-2.286-1.319-3.166-3.73-3.166H41.2V34.7h4.77C48.361,34.7,49.856,33.661,49.856,31.27Zm-6.23-6.454h2.148a1.224,1.224,0,0,1,1.389,1.409c0,.951-.423,1.441-1.373,1.441H43.626Zm0,7.811v-2.92h2.219c.967,0,1.546.455,1.546,1.441,0,1.178-.544,1.479-1.546,1.479Z" transform="translate(90.696 50.062)" fill="#2e2d2b"/>
    <path id="Pfad_677" data-name="Pfad 677" d="M52.287,32.589H46.975V29.722h4.258V27.649H46.975v-2.8h5.312v-2.11H44.549V34.7h7.738Z" transform="translate(98.071 50.062)" fill="#2e2d2b"/>
    <path id="Pfad_678" data-name="Pfad 678" d="M24.391,40.738c1.729-1.088,2.4-2.334,2.4-4.8,0-4.159-2.4-5.759-6.784-5.759H11.464V51.937h8.673c4.351,0,7.072-1.889,7.072-6.236C27.209,42.883,26.248,41.539,24.391,40.738Zm-8.509-6.781h3.9c1.662,0,2.529.765,2.529,2.558,0,1.729-.768,2.625-2.5,2.625H15.882Zm4.031,14.2H15.882V42.851h4.031c1.761,0,2.817.832,2.817,2.625C22.73,47.618,21.737,48.162,19.913,48.162Z" transform="translate(25.237 66.439)" fill="#2e2d2b"/>
    <rect id="Rechteck_1282" data-name="Rechteck 1282" width="4.418" height="21.756" transform="translate(56.197 96.619)" fill="#2e2d2b"/>
    <path id="Pfad_679" data-name="Pfad 679" d="M31.422,51.937h5.087L31.647,41.091,36.381,30.18H31.357l-3.583,9.248-2.942.319V30.18H20.414V51.937h4.418V43.586l2.942-.319Z" transform="translate(44.94 66.439)" fill="#2e2d2b"/>
    <path id="Pfad_680" data-name="Pfad 680" d="M40.422,48.1H30.762V42.883H38.5V39.106H30.762V34.019h9.661V30.18H26.344V51.937H40.422Z" transform="translate(57.994 66.439)" fill="#2e2d2b"/>
    <path id="Pfad_681" data-name="Pfad 681" d="M42.775,33.966a48.522,48.522,0,0,1,5.6.477l.128-3.518a30.927,30.927,0,0,0-6.371-.864c-6.46,0-8.317,3.009-8.317,11.266,0,7.613,1.6,11.259,8.317,11.259a36.24,36.24,0,0,0,6.336-.733l-.093-3.618a48.633,48.633,0,0,1-5.471.448c-3.778,0-4.546-1.5-4.546-7.357C38.357,35.147,39.413,33.966,42.775,33.966Z" transform="translate(74.439 66.174)" fill="#2e2d2b"/>
    <path id="Pfad_682" data-name="Pfad 682" d="M43.84,30.18,38.945,51.937h4.412L44.224,48h7.613l.864,3.935h4.415L52.221,30.18Zm1.217,13.981L47.262,33.83H48.8L51,44.161Z" transform="translate(85.734 66.439)" fill="#2e2d2b"/>
    <path id="Pfad_683" data-name="Pfad 683" d="M61.662,37.348c0-4.959-2.718-7.168-7.68-7.168H45.533V51.937h4.418V44.644h4.255l2.526,7.293h4.834l-3.1-8.32A6.881,6.881,0,0,0,61.662,37.348Zm-7.613,3.518h-4.1V33.958h4.031c2.113,0,3.166,1.377,3.166,3.454C57.148,39.333,56.255,40.866,54.049,40.866Z" transform="translate(100.237 66.439)" fill="#2e2d2b"/>
    <path id="Pfad_684" data-name="Pfad 684" d="M65.812,34.019V30.18H51.734V51.937H65.812V48.1H56.151V42.883h7.741V39.106H56.151V34.019Z" transform="translate(113.887 66.439)" fill="#2e2d2b"/>
    <path id="Pfad_685" data-name="Pfad 685" d="M94.428,49.225a1.033,1.033,0,0,0-.2-.605c-.022-.032-.006-.07-.032-.1l-.019-.01-.01-.022a1.046,1.046,0,0,0-.663-.323,1.151,1.151,0,0,0-.208.022,1.021,1.021,0,0,0-.371.042c-7.962,3.512-17.486-.221-25.9-3.522-1.581-.618-3.131-1.226-4.632-1.77-6.675-2.439-15.088-.829-20,3.8-3.714,3.5-5.074,8.362-3.963,13.827a83.366,83.366,0,0,1-14.96-6.028,1.09,1.09,0,1,0-1,1.937A84.878,84.878,0,0,0,39.3,63.116C44.71,71.4,51.839,75.787,60.013,75.787c.24,0,.48,0,.717-.01,8.567-.266,17.509-5.353,25.064-13.853l.122-.109L85.9,61.8a66.825,66.825,0,0,0,8.423-12.05,1.024,1.024,0,0,0,.058-.295A.973.973,0,0,0,94.428,49.225ZM72.06,62.658a61.54,61.54,0,0,0,17.275-8.878,61.814,61.814,0,0,1-4.953,6.48C83.972,60.648,78.222,65.882,72.06,62.658ZM88.576,51.626A58.8,58.8,0,0,1,69.8,61.048a3.845,3.845,0,0,1-1.386-3.054c.231-3.2,4.777-6.621,6.934-7.949A31.893,31.893,0,0,0,88.576,51.626ZM72.729,49.18c-2.4,1.716-6.227,4.985-6.489,8.653a5.591,5.591,0,0,0,1.213,3.829A52.275,52.275,0,0,1,55.726,63.1a6.941,6.941,0,0,1-1.793-5.916c1.069-5.51,8.8-10.017,10.709-11.054.535.208,1.047.4,1.588.608C68.34,47.57,70.516,48.415,72.729,49.18ZM43.89,48.332C48.167,44.3,55.8,42.857,61.652,44.986c.118.045.243.1.362.141-3.23,1.969-9.175,6.246-10.225,11.637a8.639,8.639,0,0,0,1.175,6.246A60.591,60.591,0,0,1,40.823,61.2C39.079,54.661,41.489,50.592,43.89,48.332ZM60.663,73.594c-7.05.179-13.238-3.16-18.162-9.723A60.986,60.986,0,0,0,54.746,65.3a18.165,18.165,0,0,0,13.7,5.843c.788,0,1.533-.051,2.257-.118A25.358,25.358,0,0,1,60.663,73.594Zm16.1-6.24h0C76.3,67.569,65.9,72.1,57.791,65.21a53.77,53.77,0,0,0,11.5-1.735,11.2,11.2,0,0,0,6.829,2.407,12.039,12.039,0,0,0,3.006-.426C78.347,66.122,77.56,66.765,76.762,67.355Z" transform="translate(48.16 92.031)" fill="#2e2d2b"/>
  </g>
</svg>
