<svg width="110" height="110" xmlns="http://www.w3.org/2000/svg">
    <defs>
        <style>.a,.e{fill:none;}.a{stroke:#fff;stroke-width:2px;}.a,.b{opacity:0;}.b{fill:#232323;}.c{fill:#2e2d2b;}.d{stroke:none;}</style>
    </defs>
    <g>
        <title>Layer 1</title>
        <g id="svg_1" class="a">
            <circle id="svg_2" r="27.5" cy="27.5" cx="27.5" class="d"/>
            <circle id="svg_3" r="26.5" cy="27.5" cx="27.5" class="e"/>
        </g>
        <path id="svg_4" d="m27.5,18a9.5,9.5 0 1 1 -9.5,9.5a9.5,9.5 0 0 1 9.5,-9.5z" class="b"/>
        <path stroke="null" id="svg_5" d="m72.0923,59.68708l2.09232,-13.63709l-13.08771,0l0,-8.84852a6.81855,6.81855 0 0 1 7.68742,-7.36793l5.94967,0l0,-11.61101a72.54153,72.54153 0 0 0 -10.559,-0.91953c-10.7772,0 -17.81783,6.53022 -17.81783,18.35552l0,10.39146l-11.98116,0l0,13.63709l11.98116,0l0,32.96669l14.73975,0l0,-32.96669l10.99539,0z" class="c"/>
    </g>
</svg>
