<?xml version="1.0" encoding="UTF-8"?><svg xmlns="http://www.w3.org/2000/svg" viewBox="0 0 67.26 67.26" width="215.324" height="215.321"><defs><style>.cls-1{stroke-linejoin:round;}.cls-1,.cls-2,.cls-3{fill:none;stroke:#3c3c3b;stroke-width:.68px;}.cls-4{fill:#3c3c3b;}.cls-2{stroke-linecap:round;}.cls-2,.cls-3{stroke-miterlimit:10;}.cls-5{mix-blend-mode:multiply;}.cls-6{isolation:isolate;}</style></defs><g class="cls-6"><g id="Ebene_1"><g id="blatt" class="cls-5"><path class="cls-4" d="m33.63,67.26L0,33.63,33.63,0l33.63,33.63-33.63,33.63ZM1.41,33.63l32.21,32.22,32.22-32.22L33.63,1.41,1.41,33.63Z"/><g><path class="cls-4" d="m28.2,25.84c0,.82-.35,1.02-1.18,1.02v-.66c.27,0,.42-.08.42-.39v-3.07h.75v3.1Z"/><path class="cls-4" d="m28.99,22.74h2.42v.66h-1.66v.87h1.33v.65h-1.33v.9h1.66v.66h-2.42v-3.74Z"/><path class="cls-4" d="m31.7,22.74h2.75v.67h-.99v3.07h-.76v-3.07h-1v-.67Z"/><path class="cls-4" d="m34.75,22.74h2.47v.66l-1.56,2.32v.1h1.56v.66h-2.47v-.65l1.56-2.32v-.1h-1.56v-.66Z"/><path class="cls-4" d="m37.52,22.74h2.75v.67h-.99v3.07h-.76v-3.07h-1v-.67Z"/><path class="cls-4" d="m10.68,30.85h3.96v1.08h-2.72v1.43h2.18v1.06h-2.18v1.47h2.72v1.08h-3.96v-6.12Z"/><path class="cls-4" d="m16.72,34.92v2.05h-1.24v-6.12h2.38c1.4,0,2.16.62,2.16,2.02,0,.85-.34,1.41-.9,1.76l.87,2.34h-1.36l-.71-2.05h-1.2Zm1.13-3.01h-1.13v1.94h1.15c.62,0,.87-.43.87-.97,0-.58-.3-.97-.89-.97Z"/><path class="cls-4" d="m24.4,34.44h-2.28v2.54h-1.24v-6.12h1.24v2.5h2.28v-2.5h1.24v6.12h-1.24v-2.54Z"/><path class="cls-4" d="m27.66,30.85h2.36l1.38,6.12h-1.24l-.24-1.11h-2.14l-.24,1.11h-1.24l1.38-6.12Zm-.37-1.94h1.15v1.19h-1.15v-1.19Zm.71,5.88h1.67l-.62-2.91h-.43l-.62,2.91Zm1.22-5.88h1.15v1.19h-1.15v-1.19Z"/><path class="cls-4" d="m32.03,36.98v-6.12h1.24v5.02h2.24v1.1h-3.48Z"/><path class="cls-4" d="m35.55,30.85h4.5v1.1h-1.62v5.02h-1.24v-5.02h-1.64v-1.1Z"/><path class="cls-4" d="m40.65,36.98v-6.12h1.24v5.02h2.24v1.1h-3.48Z"/><path class="cls-4" d="m44.72,30.85h1.24v6.12h-1.24v-6.12Z"/><path class="cls-4" d="m51,36.88c-.41.09-1.22.21-1.78.21-1.89,0-2.34-1.03-2.34-3.17,0-2.32.52-3.17,2.34-3.17.64,0,1.41.15,1.79.24l-.04.99c-.41-.06-1.17-.13-1.58-.13-.95,0-1.24.33-1.24,2.07,0,1.65.22,2.07,1.28,2.07.41,0,1.18-.07,1.54-.13l.03,1.02Z"/><path class="cls-4" d="m55.34,34.44h-2.28v2.54h-1.24v-6.12h1.24v2.5h2.28v-2.5h1.24v6.12h-1.24v-2.54Z"/></g><g><g><path class="cls-2" d="m22.22,46.09c8.31,4.29,15.66,3.43,21.99-1.96"/><path class="cls-1" d="m44.21,44.12c-3.09,1.37-6.76-.54-9.79-1.64-3.24-1.18-8.34.84-6.91,5.66,4.52,7.14,12.38,3.83,16.7-4.02Z"/></g><path class="cls-3" d="m35.22,42.78s-5.73,2.86-2.94,6.01c2.79,3.16,6.88,1.3,6.88,1.3"/><path class="cls-3" d="m38.53,44.01s-4.1,2.36-1.71,4.25c2.39,1.88,4.83-.44,4.83-.44"/></g></g></g></g></svg>