<?xml version="1.0" encoding="UTF-8"?><svg id="Ebene_1" xmlns="http://www.w3.org/2000/svg" viewBox="0 0 67.26 67.26" width="215.324" height="215.321"><defs><style>.cls-1{fill:#3c3c3b;}</style></defs><path class="cls-1" d="m33.63,0L0,33.63l33.63,33.63,33.63-33.63L33.63,0ZM1.41,33.63L33.63,1.41l32.22,32.22-32.22,32.21L1.41,33.63Z"/><path class="cls-1" d="m21.52,25.88c-.39,0-1.13-.1-1.13-.1l-.08.59s.74.17,1.25.17c.74,0,1.29-.38,1.29-1.19,0-.62-.25-.85-1.05-1.1-.63-.2-.77-.28-.77-.52s.19-.4.6-.4c.32,0,1.09.09,1.09.09l.06-.6s-.73-.15-1.23-.15c-.76,0-1.27.33-1.27,1.11,0,.6.32.88,1.16,1.13.54.15.67.26.67.49,0,.29-.18.48-.58.48Z"/><path class="cls-1" d="m24.75,26.54c.34,0,.83-.07,1.09-.13l-.02-.62c-.22.03-.69.08-.94.08-.65,0-.78-.26-.78-1.26,0-1.06.18-1.26.76-1.26.25,0,.71.04.96.08l.02-.6c-.23-.06-.7-.15-1.09-.15-1.11,0-1.43.52-1.43,1.93,0,1.31.28,1.93,1.43,1.93Z"/><polygon class="cls-1" points="27.21 24.93 28.6 24.93 28.6 26.48 29.36 26.48 29.36 22.74 28.6 22.74 28.6 24.27 27.21 24.27 27.21 22.74 26.45 22.74 26.45 26.48 27.21 26.48 27.21 24.93"/><polygon class="cls-1" points="31.74 26.48 32.33 23.64 32.91 26.48 34.06 26.48 34.78 22.74 33.98 22.74 33.52 25.83 33.44 25.83 32.77 22.74 31.89 22.74 31.22 25.83 31.13 25.83 30.67 22.74 29.88 22.74 30.59 26.48 31.74 26.48"/><path class="cls-1" d="m35.89,25.8h1.31l.15.68h.76l-.84-3.74h-1.44l-.84,3.74h.76l.15-.68Zm.52-2.43h.26l.38,1.77h-1.02l.38-1.77Z"/><polygon class="cls-1" points="40.73 25.81 39.36 25.81 39.36 22.74 38.6 22.74 38.6 26.48 40.73 26.48 40.73 25.81"/><path class="cls-1" d="m43.9,25.4c0-.48-.17-.71-.48-.85.3-.19.41-.4.41-.82,0-.71-.41-.99-1.17-.99h-1.47v3.74h1.49c.75,0,1.21-.32,1.21-1.07Zm-1.95-2.02h.67c.29,0,.43.13.43.44s-.13.45-.43.45h-.68v-.89Zm0,2.44v-.91h.69c.3,0,.48.14.48.45,0,.37-.17.46-.48.46h-.69Z"/><polygon class="cls-1" points="46.97 25.82 45.31 25.82 45.31 24.92 46.64 24.92 46.64 24.27 45.31 24.27 45.31 23.4 46.97 23.4 46.97 22.74 44.55 22.74 44.55 26.48 46.97 26.48 46.97 25.82"/><path class="cls-1" d="m15.5,33.48c.54-.34.75-.73.75-1.5,0-1.3-.75-1.8-2.12-1.8h-2.67v6.8h2.71c1.36,0,2.21-.59,2.21-1.95,0-.88-.3-1.3-.88-1.55Zm-2.66-2.12h1.22c.52,0,.79.24.79.8s-.24.82-.78.82h-1.23v-1.62Zm1.26,4.44h-1.26v-1.66h1.26c.55,0,.88.26.88.82,0,.67-.31.84-.88.84Z"/><rect class="cls-1" x="17.55" y="30.18" width="1.38" height="6.8"/><polygon class="cls-1" points="23.85 36.98 25.44 36.98 23.92 33.59 25.4 30.18 23.83 30.18 22.71 33.07 21.79 33.17 21.79 30.18 20.41 30.18 20.41 36.98 21.79 36.98 21.79 34.37 22.71 34.27 23.85 36.98"/><polygon class="cls-1" points="30.74 35.78 27.72 35.78 27.72 34.15 30.14 34.15 30.14 32.97 27.72 32.97 27.72 31.38 30.74 31.38 30.74 30.18 26.34 30.18 26.34 36.98 30.74 36.98 30.74 35.78"/><path class="cls-1" d="m36.61,31.28c.45,0,1.29.08,1.75.15l.04-1.1c-.42-.1-1.28-.27-1.99-.27-2.02,0-2.6.94-2.6,3.52,0,2.38.5,3.52,2.6,3.52.62,0,1.52-.13,1.98-.23l-.03-1.13c-.4.06-1.25.14-1.71.14-1.18,0-1.42-.47-1.42-2.3,0-1.93.33-2.3,1.38-2.3Z"/><path class="cls-1" d="m40.47,30.18l-1.53,6.8h1.38l.27-1.23h2.38l.27,1.23h1.38l-1.53-6.8h-2.62Zm.38,4.37l.69-3.23h.48l.69,3.23h-1.86Z"/><path class="cls-1" d="m50.57,32.42c0-1.55-.85-2.24-2.4-2.24h-2.64v6.8h1.38v-2.28h1.33l.79,2.28h1.51l-.97-2.6c.62-.39,1-1.02,1-1.96Zm-2.38,1.1h-1.28v-2.16h1.26c.66,0,.99.43.99,1.08,0,.6-.28,1.08-.97,1.08Z"/><polygon class="cls-1" points="56.13 31.38 56.13 30.18 51.73 30.18 51.73 36.98 56.13 36.98 56.13 35.78 53.11 35.78 53.11 34.15 55.53 34.15 55.53 32.97 53.11 32.97 53.11 31.38 56.13 31.38"/><path class="cls-1" d="m44.54,44.12c0-.07-.02-.13-.06-.19,0,0,0-.02,0-.03,0,0,0,0,0,0,0,0,0,0,0,0-.06-.06-.13-.09-.21-.1-.02,0-.04,0-.07,0-.04,0-.08,0-.12.01-2.49,1.1-5.46-.07-8.09-1.1-.49-.19-.98-.38-1.45-.55-2.08-.76-4.71-.26-6.25,1.19-1.16,1.09-1.59,2.61-1.24,4.32-1.53-.44-3.09-1.07-4.67-1.88-.17-.09-.37-.02-.46.15s-.02.37.15.46c1.79.92,3.54,1.61,5.26,2.07,1.69,2.59,3.92,3.96,6.47,3.96.07,0,.15,0,.22,0,2.68-.08,5.47-1.67,7.83-4.33.01-.01.04-.03.04-.03h0c.96-1.09,1.85-2.35,2.63-3.77.02-.03.01-.06.02-.09,0-.03.01-.05.01-.07Zm-6.99,4.2c1.86-.6,3.66-1.52,5.4-2.77-.49.73-1.01,1.41-1.55,2.02-.13.12-1.92,1.76-3.85.75Zm5.16-3.45c-1.88,1.39-3.84,2.36-5.87,2.94-.31-.3-.46-.61-.43-.95.07-1,1.49-2.07,2.17-2.48,1.38.42,2.78.67,4.13.49Zm-4.95-.76c-.75.54-1.95,1.56-2.03,2.7-.03.43.11.83.38,1.2-1.2.28-2.42.44-3.66.45-.49-.6-.69-1.21-.56-1.85.33-1.72,2.75-3.13,3.35-3.45.17.06.33.12.5.19.66.26,1.34.52,2.03.76Zm-9.01-.26c1.34-1.26,3.72-1.71,5.55-1.04.04.01.08.03.11.04-1.01.61-2.87,1.95-3.19,3.64-.13.67,0,1.33.37,1.95-1.24-.05-2.51-.24-3.79-.56-.55-2.04.21-3.31.96-4.02Zm5.24,7.89c-2.2.06-4.13-.99-5.67-3.04,1.3.28,2.57.43,3.82.45,1.33,1.43,2.93,1.83,4.28,1.83.25,0,.48-.02.7-.04-1.04.49-2.1.77-3.13.8Zm5.03-1.95h0c-.15.07-3.39,1.48-5.93-.67,1.22-.05,2.42-.23,3.59-.54.73.55,1.46.75,2.13.75.33,0,.64-.06.94-.13-.24.21-.49.41-.74.59Z"/></svg>