<?xml version="1.0" encoding="UTF-8"?>
<svg xmlns="http://www.w3.org/2000/svg" xmlns:xlink="http://www.w3.org/1999/xlink" version="1.2" >
<font id="TT Bluescreens Medium">
<font-face  font-family="TT Bluescreens" units-per-em="1000" ascent="770" descent="-175" font-style="normal" font-weight="500" font-stretch="normal" cap-height="700" x-height="540" underline-position="-75" underline-thickness="50" />
<missing-glyph  d="" />
<glyph glyph-name=".null" d="" />
<glyph glyph-name="&amp;#x0;" d="" />
<glyph glyph-name="&amp;#xd;" unicode="&#xd;" d="" />
<glyph glyph-name="space" unicode="&#x20;" horiz-adv-x="140" d="" />
<glyph glyph-name="exclam" unicode="&#x21;" horiz-adv-x="160" d="M57 165 L103 165 L117 540 L117 700 L43 700 L43 540 L57 165 Z M80 -6 C110 -6 130 14 130 45 C130 75 110 95 80 95 C50 95 30 75 30 45 C30 14 50 -6 80 -6 L80 -6 Z " />
<glyph glyph-name="quotedbl" unicode="&#x22;" horiz-adv-x="240" d="M47 540 L90 540 L102 700 L35 700 L47 540 Z M150 540 L193 540 L205 700 L138 700 L150 540 Z " />
<glyph glyph-name="numbersign" unicode="&#x23;" horiz-adv-x="372" d="M31 0 L96 0 L129 188 L184 188 L151 0 L216 0 L249 188 L307 188 L317 250 L260 250 L297 460 L352 460 L362 522 L308 522 L339 700 L274 700 L243 522 L188 522 L219 700 L154 700 L123 522 L65 522 L56 460 L112 460 L75 250 L20 250 L10 188 L64 188 L31 0 Z M140 250 L177 460 L232 460 L195 250 L140 250 Z " />
<glyph glyph-name="dollar" unicode="&#x24;" horiz-adv-x="272" d="M107 -80 L165 -80 L165 -7 C218 4 247 49 247 130 C247 225 236 260 170 375 C110 480 103 495 103 575 C103 628 115 645 138 645 C161 645 173 628 173 575 L173 490 L246 490 L246 570 C246 650 217 694 168 706 L168 780 L111 780 L111 707 C59 696 30 651 30 570 C30 480 42 446 105 335 C167 225 174 210 174 125 C174 72 162 55 136 55 C109 55 98 72 98 125 L98 225 L25 225 L25 130 C25 49 54 4 107 -7 L107 -80 Z " />
<glyph glyph-name="percent" unicode="&#x25;" horiz-adv-x="508" d="M120 0 L183 0 L388 700 L325 700 L120 0 Z M35 429 C35 354 70 319 125 319 C180 319 215 354 215 429 L215 599 C215 674 180 709 125 709 C70 709 35 674 35 599 L35 429 Z M155 424 C155 387 145 374 125 374 C105 374 95 387 95 424 L95 604 C95 641 105 654 125 654 C145 654 155 641 155 604 L155 424 Z M293 101 C293 26 328 -9 383 -9 C438 -9 473 26 473 101 L473 271 C473 346 438 381 383 381 C328 381 293 346 293 271 L293 101 Z M413 96 C413 59 403 46 383 46 C363 46 353 59 353 96 L353 276 C353 313 363 326 383 326 C403 326 413 313 413 276 L413 96 Z " />
<glyph glyph-name="ampersand" unicode="&#x26;" horiz-adv-x="326" d="M35 122 C35 32 79 -13 143 -13 C198 -13 222 21 222 21 C222 21 241 -13 296 -13 C316 -13 326 -7 326 -7 L326 50 C326 50 317 47 306 47 C276 47 261 62 261 107 L261 350 L305 350 L305 410 L261 410 L261 505 L219 505 L195 410 L181 410 C135 410 111 435 111 500 L111 590 C111 635 126 650 146 650 C166 650 181 635 181 590 L181 575 L250 575 L250 585 C250 670 210 710 146 710 C82 710 42 670 42 585 L42 505 C42 405 104 383 104 383 C104 383 35 360 35 260 L35 122 Z M192 117 C192 67 173 47 148 47 C123 47 104 67 104 117 L104 265 C104 325 126 350 171 350 L192 350 L192 117 Z " />
<glyph glyph-name="quotesingle" unicode="&#x27;" horiz-adv-x="137" d="M47 540 L90 540 L102 700 L35 700 L47 540 Z " />
<glyph glyph-name="parenleft" unicode="&#x28;" horiz-adv-x="215" d="M205 -106 C205 -106 121 55 121 307 C121 559 205 720 205 720 L133 720 C133 720 50 579 50 307 C50 35 133 -106 133 -106 L205 -106 Z " />
<glyph glyph-name="parenright" unicode="&#x29;" horiz-adv-x="215" d="M82 -106 C82 -106 165 35 165 307 C165 579 82 720 82 720 L10 720 C10 720 94 559 94 307 C94 55 10 -106 10 -106 L82 -106 Z " />
<glyph glyph-name="asterisk" unicode="&#x2a;" horiz-adv-x="260" d="M42 515 L85 485 L130 551 L175 485 L218 515 L165 577 L245 598 L230 650 L152 620 L158 700 L102 700 L108 620 L30 650 L15 598 L95 577 L42 515 Z " />
<glyph glyph-name="plus" unicode="&#x2b;" horiz-adv-x="320" d="M130 193 L190 193 L190 300 L295 300 L295 360 L190 360 L190 467 L130 467 L130 360 L25 360 L25 300 L130 300 L130 193 Z " />
<glyph glyph-name="comma" unicode="&#x2c;" horiz-adv-x="160" d="M68 -120 C125 0 125 5 125 80 L50 80 C50 5 50 0 25 -120 L68 -120 Z " />
<glyph glyph-name="hyphen" unicode="&#x2d;" horiz-adv-x="220" d="M25 255 L195 255 L195 325 L25 325 L25 255 Z " />
<glyph glyph-name="period" unicode="&#x2e;" horiz-adv-x="170" d="M85 -6 C115 -6 135 14 135 45 C135 75 115 95 85 95 C55 95 35 75 35 45 C35 14 55 -6 85 -6 L85 -6 Z " />
<glyph glyph-name="slash" unicode="&#x2f;" horiz-adv-x="210" d="M0 -80 L70 -80 L210 730 L140 730 L0 -80 Z " />
<glyph glyph-name="zero" unicode="0" horiz-adv-x="318" d="M200 130 C200 72 183 55 159 55 C135 55 118 72 118 130 L118 570 C118 628 135 645 159 645 C183 645 200 628 200 570 L200 130 Z M45 135 C45 35 90 -10 159 -10 C228 -10 273 35 273 135 L273 565 C273 665 228 710 159 710 C90 710 45 665 45 565 L45 135 Z " />
<glyph glyph-name="one" unicode="1" horiz-adv-x="193" d="M70 0 L143 0 L143 700 L90 700 L15 665 L15 600 L70 622 L70 0 Z " />
<glyph glyph-name="two" unicode="2" horiz-adv-x="282" d="M32 0 L252 0 L252 185 L182 185 L182 70 L105 70 L105 85 C105 200 114 215 175 320 C248 445 248 455 248 570 C248 665 208 710 139 710 C70 710 30 665 30 570 L30 480 L103 480 L103 575 C103 628 115 645 139 645 C163 645 175 628 175 575 C175 475 175 465 115 360 C41 230 32 215 32 85 L32 0 Z " />
<glyph glyph-name="three" unicode="3" horiz-adv-x="273" d="M25 130 C25 35 65 -10 134 -10 C203 -10 243 35 243 130 L243 275 C243 415 139 415 139 415 L241 635 L241 700 L25 700 L25 635 L167 635 L66 415 L66 350 L129 350 C153 350 170 333 170 275 L170 125 C170 72 158 55 134 55 C110 55 98 72 98 125 L98 225 L25 225 L25 130 Z " />
<glyph glyph-name="four" unicode="4" horiz-adv-x="281" d="M5 150 L158 150 L158 0 L231 0 L231 150 L276 150 L276 220 L231 220 L231 700 L145 700 L5 220 L5 150 Z M74 220 L166 585 L169 585 L158 220 L74 220 Z " />
<glyph glyph-name="five" unicode="5" horiz-adv-x="280" d="M30 130 C30 35 70 -10 140 -10 C210 -10 250 35 250 130 L250 360 C250 436 216 470 176 470 C131 470 113 432 113 432 L113 630 L250 630 L250 700 L40 700 L40 363 L113 363 C113 363 121 405 151 405 C166 405 177 395 177 360 L177 125 C177 72 165 55 140 55 C115 55 103 72 103 125 L103 225 L30 225 L30 130 Z " />
<glyph glyph-name="six" unicode="6" horiz-adv-x="305" d="M45 130 C45 35 84 -10 155 -10 C225 -10 265 35 265 130 L265 340 C265 421 226 455 186 455 C141 455 118 417 118 417 L118 575 C118 628 130 645 155 645 C180 645 192 628 192 575 L192 515 L265 515 L265 570 C265 665 225 710 155 710 C84 710 45 665 45 570 L45 130 Z M192 125 C192 72 180 55 155 55 C130 55 118 72 118 125 L118 343 C118 343 128 390 161 390 C176 390 192 380 192 340 L192 125 Z " />
<glyph glyph-name="seven" unicode="7" horiz-adv-x="229" d="M20 0 L92 0 L209 630 L209 700 L10 700 L10 630 L136 630 L20 0 Z " />
<glyph glyph-name="eight" unicode="8" horiz-adv-x="308" d="M195 130 C195 72 178 55 154 55 C130 55 113 72 113 130 L113 250 C113 308 130 325 154 325 C178 325 195 308 195 250 L195 130 Z M191 460 C191 407 178 390 154 390 C130 390 117 407 117 460 L117 575 C117 628 130 645 154 645 C178 645 191 628 191 575 L191 460 Z M40 135 C40 35 85 -10 154 -10 C223 -10 268 35 268 135 L268 245 C268 335 221 358 221 358 C221 358 264 380 264 465 L264 570 C264 665 223 710 154 710 C85 710 44 665 44 570 L44 465 C44 380 87 358 87 358 C87 358 40 335 40 245 L40 135 Z " />
<glyph glyph-name="nine" unicode="9" horiz-adv-x="305" d="M40 130 C40 35 80 -10 150 -10 C221 -10 260 35 260 130 L260 570 C260 665 221 710 150 710 C80 710 40 665 40 570 L40 360 C40 279 79 245 119 245 C164 245 187 283 187 283 L187 125 C187 72 175 55 150 55 C125 55 113 72 113 125 L113 185 L40 185 L40 130 Z M187 357 C187 357 177 310 144 310 C129 310 113 320 113 360 L113 575 C113 628 125 645 150 645 C175 645 187 628 187 575 L187 357 Z " />
<glyph glyph-name="colon" unicode="&#x3a;" horiz-adv-x="170" d="M85 -6 C115 -6 135 14 135 45 C135 75 115 95 85 95 C55 95 35 75 35 45 C35 14 55 -6 85 -6 L85 -6 Z M85 445 C115 445 135 465 135 496 C135 526 115 546 85 546 C55 546 35 526 35 496 C35 465 55 445 85 445 L85 445 Z " />
<glyph glyph-name="semicolon" unicode="&#x3b;" horiz-adv-x="170" d="M85 445 C115 445 135 465 135 496 C135 526 115 546 85 546 C55 546 35 526 35 496 C35 465 55 445 85 445 L85 445 Z M68 -120 C125 0 125 5 125 80 L50 80 C50 5 50 0 25 -120 L68 -120 Z " />
<glyph glyph-name="less" unicode="&#x3c;" horiz-adv-x="323" d="M25 293 L298 177 L298 244 L97 326 L298 408 L298 475 L25 359 L25 293 Z " />
<glyph glyph-name="equal" unicode="&#x3d;" horiz-adv-x="323" d="M25 230 L298 230 L298 290 L25 290 L25 230 Z M25 355 L298 355 L298 415 L25 415 L25 355 Z " />
<glyph glyph-name="greater" unicode="&#x3e;" horiz-adv-x="323" d="M25 177 L298 293 L298 359 L25 475 L25 408 L226 326 L25 244 L25 177 Z " />
<glyph glyph-name="question" unicode="&#x3f;" horiz-adv-x="278" d="M91 165 L163 165 L163 185 C163 290 165 309 215 410 C250 480 252 510 253 570 C253 665 210 710 144 710 C78 710 35 665 35 570 L35 480 L108 480 L108 575 C108 628 123 645 144 645 C165 645 180 628 180 575 C180 510 180 500 140 420 C90 320 91 310 91 185 L91 165 Z M127 -6 C157 -6 177 14 177 45 C177 75 157 95 127 95 C97 95 77 75 77 45 C77 14 97 -6 127 -6 L127 -6 Z " />
<glyph glyph-name="at" unicode="&#x40;" horiz-adv-x="520" d="M50 110 C50 -40 125 -115 245 -115 L360 -115 L360 -55 L245 -55 C157 -55 112 -10 112 110 L112 410 C112 530 157 575 245 575 L285 575 C373 575 418 530 418 410 L418 129 C418 89 408 75 388 75 C368 75 358 89 358 129 L358 490 L322 490 L302 459 C302 459 280 493 240 493 C200 493 170 462 170 395 L170 117 C170 50 200 19 240 19 C290 19 308 66 308 66 C308 66 323 19 388 19 C447 19 480 54 480 134 L480 410 C480 560 405 635 285 635 L245 635 C125 635 50 560 50 410 L50 110 Z M297 116 C297 116 289 73 258 73 C243 73 231 84 231 122 L231 390 C231 428 243 439 258 439 C289 439 297 396 297 396 L297 116 Z " />
<glyph glyph-name="A" unicode="A" horiz-adv-x="297" d="M10 0 L82 0 L101 160 L196 160 L215 0 L287 0 L198 700 L107 700 L10 0 Z M109 230 L134 450 C141 510 148 590 148 590 L152 590 C152 590 157 505 163 450 L188 230 L109 230 Z " />
<glyph glyph-name="B" unicode="B" horiz-adv-x="310" d="M50 0 L149 0 C230 0 280 50 280 155 L280 230 C280 330 217 354 217 354 C217 354 273 380 273 475 L273 545 C273 650 223 700 142 700 L50 700 L50 0 Z M123 65 L123 320 L149 320 C185 320 207 298 207 230 L207 155 C207 87 185 65 149 65 L123 65 Z M123 385 L123 635 L142 635 C178 635 200 613 200 545 L200 475 C200 407 178 385 142 385 L123 385 Z " />
<glyph glyph-name="C" unicode="C" horiz-adv-x="292" d="M45 130 C45 35 85 -10 156 -10 C227 -10 267 35 267 130 L267 235 L194 235 L194 125 C194 72 183 55 156 55 C130 55 118 72 118 125 L118 575 C118 628 130 645 156 645 C182 645 194 628 194 575 L194 485 L267 485 L267 570 C267 665 227 710 156 710 C85 710 45 665 45 570 L45 130 Z " />
<glyph glyph-name="D" unicode="D" horiz-adv-x="317" d="M50 0 L146 0 C227 0 277 50 277 155 L277 545 C277 650 227 700 146 700 L50 700 L50 0 Z M123 65 L123 635 L146 635 C182 635 204 613 204 545 L204 155 C204 87 182 65 146 65 L123 65 Z " />
<glyph glyph-name="E" unicode="E" horiz-adv-x="255" d="M50 0 L230 0 L230 70 L123 70 L123 320 L214 320 L214 390 L123 390 L123 630 L228 630 L228 700 L50 700 L50 0 Z " />
<glyph glyph-name="F" unicode="F" horiz-adv-x="243" d="M50 0 L123 0 L123 315 L215 315 L215 385 L123 385 L123 630 L228 630 L228 700 L50 700 L50 0 Z " />
<glyph glyph-name="G" unicode="G" horiz-adv-x="312" d="M45 135 C45 35 90 -10 146 -10 C201 -10 227 32 227 32 L244 -5 L277 -5 L277 382 L162 382 L162 316 L204 316 L204 130 C204 72 187 55 161 55 C135 55 118 72 118 130 L118 570 C118 628 135 645 161 645 C187 645 204 628 204 570 L204 486 L277 486 L277 565 C277 665 232 710 161 710 C90 710 45 665 45 565 L45 135 Z " />
<glyph glyph-name="H" unicode="H" horiz-adv-x="332" d="M50 0 L123 0 L123 320 L209 320 L209 0 L282 0 L282 700 L209 700 L209 390 L123 390 L123 700 L50 700 L50 0 Z " />
<glyph glyph-name="I" unicode="I" horiz-adv-x="173" d="M50 0 L123 0 L123 700 L50 700 L50 0 Z " />
<glyph glyph-name="J" unicode="J" horiz-adv-x="173" d="M-25 -157 C-25 -157 -15 -160 5 -160 C78 -160 123 -115 123 -15 L123 700 L50 700 L50 -20 C50 -78 33 -95 5 -95 C-15 -95 -25 -92 -25 -92 L-25 -157 Z " />
<glyph glyph-name="K" unicode="K" horiz-adv-x="322" d="M50 0 L123 0 L123 320 L154 320 L241 0 L317 0 L219 356 L307 700 L234 700 L154 380 L123 380 L123 700 L50 700 L50 0 Z " />
<glyph glyph-name="L" unicode="L" horiz-adv-x="229" d="M50 0 L229 0 L229 70 L123 70 L123 700 L50 700 L50 0 Z " />
<glyph glyph-name="M" unicode="M" horiz-adv-x="415" d="M35 0 L110 0 L113 315 C114 420 111 550 111 550 L114 550 L177 130 L234 130 L302 550 L305 550 C305 550 304 420 304 315 L305 0 L380 0 L363 700 L280 700 L225 360 C217 310 210 255 210 255 L207 255 C207 255 199 310 192 360 L141 700 L60 700 L35 0 Z " />
<glyph glyph-name="N" unicode="N" horiz-adv-x="360" d="M50 0 L119 0 L119 285 C119 385 109 535 109 535 L111 535 L230 0 L310 0 L310 700 L241 700 L241 415 C241 315 251 165 251 165 L249 165 L130 700 L50 700 L50 0 Z " />
<glyph glyph-name="O" unicode="O" horiz-adv-x="322" d="M204 130 C204 72 187 55 161 55 C135 55 118 72 118 130 L118 570 C118 628 135 645 161 645 C187 645 204 628 204 570 L204 130 Z M45 135 C45 35 90 -10 161 -10 C232 -10 277 35 277 135 L277 565 C277 665 232 710 161 710 C90 710 45 665 45 565 L45 135 Z " />
<glyph glyph-name="P" unicode="P" horiz-adv-x="307" d="M50 0 L123 0 L123 275 L146 275 C227 275 277 325 277 430 L277 545 C277 650 227 700 146 700 L50 700 L50 0 Z M123 340 L123 635 L146 635 C182 635 204 613 204 545 L204 430 C204 362 182 340 146 340 L123 340 Z " />
<glyph glyph-name="Q" unicode="Q" horiz-adv-x="322" d="M119 -20 C119 -115 159 -160 232 -160 C252 -160 264 -157 264 -157 L264 -96 C264 -96 252 -100 237 -100 C209 -100 192 -83 192 -25 L192 -7 C245 5 277 50 277 135 L277 565 C277 665 232 710 161 710 C90 710 45 665 45 565 L45 135 C45 56 73 11 119 -4 L119 -20 Z M204 130 C204 72 187 55 161 55 C135 55 118 72 118 130 L118 570 C118 628 135 645 161 645 C187 645 204 628 204 570 L204 130 Z " />
<glyph glyph-name="R" unicode="R" horiz-adv-x="314" d="M50 0 L123 0 L123 295 L156 295 L213 0 L289 0 L227 319 C227 319 277 350 277 450 L277 545 C277 650 227 700 146 700 L50 700 L50 0 Z M123 360 L123 635 L146 635 C182 635 204 613 204 545 L204 450 C204 382 182 360 146 360 L123 360 Z " />
<glyph glyph-name="S" unicode="S" horiz-adv-x="272" d="M25 130 C25 35 65 -10 136 -10 C207 -10 247 35 247 130 C247 225 236 260 170 375 C110 480 103 495 103 575 C103 628 115 645 138 645 C161 645 173 628 173 575 L173 490 L246 490 L246 570 C246 665 206 710 138 710 C70 710 30 665 30 570 C30 480 42 446 105 335 C167 225 174 210 174 125 C174 72 162 55 136 55 C109 55 98 72 98 125 L98 225 L25 225 L25 130 Z " />
<glyph glyph-name="T" unicode="T" horiz-adv-x="231" d="M79 0 L152 0 L152 630 L226 630 L226 700 L5 700 L5 630 L79 630 L79 0 Z " />
<glyph glyph-name="U" unicode="U" horiz-adv-x="316" d="M45 135 C45 35 90 -10 158 -10 C226 -10 271 35 271 135 L271 700 L198 700 L198 130 C198 72 181 55 158 55 C135 55 118 72 118 130 L118 700 L45 700 L45 135 Z " />
<glyph glyph-name="V" unicode="V" horiz-adv-x="293" d="M95 0 L186 0 L283 700 L211 700 L160 275 C151 200 145 115 145 115 L142 115 C142 115 138 200 130 275 L83 700 L10 700 L95 0 Z " />
<glyph glyph-name="W" unicode="W" horiz-adv-x="450" d="M82 0 L172 0 L214 420 C220 480 225 560 225 560 L228 560 C228 560 233 480 237 420 L269 0 L354 0 L435 700 L365 700 L323 275 C318 220 312 140 312 140 L309 140 L267 700 L190 700 L135 140 L132 140 C132 140 129 210 123 275 L86 700 L15 700 L82 0 Z " />
<glyph glyph-name="X" unicode="X" horiz-adv-x="284" d="M5 0 L77 0 L142 290 L145 290 L201 0 L279 0 L198 367 L279 700 L206 700 L148 430 L145 430 L92 700 L14 700 L92 358 L5 0 Z " />
<glyph glyph-name="Y" unicode="Y" horiz-adv-x="284" d="M101 0 L174 0 L174 264 L279 700 L208 700 L143 384 L140 384 L82 700 L5 700 L101 264 L101 0 Z " />
<glyph glyph-name="Z" unicode="Z" horiz-adv-x="227" d="M10 0 L209 0 L209 70 L83 70 L212 630 L212 700 L20 700 L20 630 L139 630 L10 70 L10 0 Z " />
<glyph glyph-name="bracketleft" unicode="&#x5b;" horiz-adv-x="199" d="M50 -106 L184 -106 L184 -41 L120 -41 L120 655 L184 655 L184 720 L50 720 L50 -106 Z " />
<glyph glyph-name="backslash" unicode="&#x5c;" horiz-adv-x="210" d="M140 -80 L210 -80 L70 730 L0 730 L140 -80 Z " />
<glyph glyph-name="bracketright" unicode="&#x5d;" horiz-adv-x="199" d="M15 -106 L149 -106 L149 720 L15 720 L15 655 L79 655 L79 -41 L15 -41 L15 -106 Z " />
<glyph glyph-name="asciicircum" unicode="&#x5e;" horiz-adv-x="322" d="M25 435 L92 435 L161 627 L230 435 L297 435 L196 700 L126 700 L25 435 Z " />
<glyph glyph-name="underscore" unicode="&#x5f;" horiz-adv-x="222" d="M-20 -135 L242 -135 L242 -75 L-20 -75 L-20 -135 Z " />
<glyph glyph-name="grave" unicode="&#x60;" horiz-adv-x="142" d="M82 575 L132 575 L89 700 L10 700 L82 575 Z " />
<glyph glyph-name="a" unicode="a" horiz-adv-x="275" d="M30 90 C30 24 64 -10 102 -10 C152 -10 177 38 177 38 L200 -5 L240 -5 L240 425 C240 510 200 550 139 550 C78 550 38 510 38 425 L38 373 L107 373 L107 430 C107 475 122 490 139 490 C156 490 171 475 171 430 L171 325 L144 325 C75 325 30 280 30 190 L30 90 Z M171 99 C171 99 162 50 127 50 C112 50 99 63 99 95 L99 195 C99 245 114 265 144 265 L171 265 L171 99 Z " />
<glyph glyph-name="b" unicode="b" horiz-adv-x="292" d="M45 -5 L85 -5 L104 31 C104 31 128 -10 173 -10 C227 -10 257 33 257 110 L257 445 C257 516 223 550 183 550 C138 550 114 509 114 509 L114 700 L45 700 L45 -5 Z M188 110 C188 68 177 50 154 50 C121 50 114 93 114 93 L114 441 C114 441 123 490 158 490 C175 490 188 477 188 445 L188 110 Z " />
<glyph glyph-name="c" unicode="c" horiz-adv-x="266" d="M35 115 C35 30 75 -10 138 -10 C201 -10 241 30 241 115 L241 180 L172 180 L172 110 C172 65 157 50 138 50 C119 50 104 65 104 110 L104 430 C104 475 119 490 138 490 C157 490 172 475 172 430 L172 370 L241 370 L241 425 C241 510 201 550 138 550 C75 550 35 510 35 425 L35 115 Z " />
<glyph glyph-name="d" unicode="d" horiz-adv-x="292" d="M35 95 C35 24 69 -10 114 -10 C164 -10 186 36 186 36 L206 -5 L247 -5 L247 700 L178 700 L178 516 C178 516 158 550 119 550 C65 550 35 507 35 430 L35 95 Z M178 99 C178 99 169 50 134 50 C117 50 104 63 104 95 L104 430 C104 472 115 490 138 490 C171 490 178 447 178 447 L178 99 Z " />
<glyph glyph-name="e" unicode="e" horiz-adv-x="273" d="M35 115 C35 30 75 -10 139 -10 C203 -10 243 30 243 115 L243 175 L174 175 L174 110 C174 65 159 50 139 50 C119 50 104 65 104 110 L104 250 L243 250 L243 425 C243 510 203 550 139 550 C75 550 35 510 35 425 L35 115 Z M104 310 L104 430 C104 475 119 490 139 490 C159 490 174 475 174 430 L174 310 L104 310 Z " />
<glyph glyph-name="f" unicode="f" horiz-adv-x="185" d="M48 0 L117 0 L117 480 L181 480 L181 540 L117 540 L117 580 C117 625 132 640 162 640 C180 640 190 636 190 636 L190 697 C190 697 175 700 152 700 C88 700 48 660 48 575 L48 540 L10 518 L10 480 L48 480 L48 0 Z " />
<glyph glyph-name="g" unicode="g" horiz-adv-x="297" d="M42 -35 C42 -120 82 -160 147 -160 C212 -160 252 -120 252 -35 L252 545 L212 545 L193 509 C193 509 169 550 124 550 C70 550 40 507 40 430 L40 135 C40 64 74 30 114 30 C159 30 183 71 183 71 L183 -40 C183 -85 168 -100 147 -100 C126 -100 111 -85 111 -40 L111 -5 L42 -5 L42 -35 Z M183 139 C183 139 174 90 139 90 C122 90 109 103 109 135 L109 430 C109 472 120 490 143 490 C176 490 183 447 183 447 L183 139 Z " />
<glyph glyph-name="h" unicode="h" horiz-adv-x="297" d="M45 0 L114 0 L114 441 C114 441 123 490 158 490 C175 490 188 477 188 445 L188 0 L257 0 L257 450 C257 516 223 550 183 550 C138 550 114 509 114 509 L114 700 L45 700 L45 0 Z " />
<glyph glyph-name="i" unicode="i" horiz-adv-x="150" d="M30 640 C30 612 47 595 75 595 C103 595 120 612 120 640 C120 668 103 685 75 685 C47 685 30 668 30 640 L30 640 Z M40 0 L109 0 L109 540 L40 540 L40 0 Z " />
<glyph glyph-name="j" unicode="j" horiz-adv-x="150" d="M-25 -156 C-25 -156 -15 -160 5 -160 C69 -160 109 -120 109 -35 L109 540 L40 540 L40 -40 C40 -85 25 -100 -5 -100 C-15 -100 -25 -98 -25 -98 L-25 -156 Z M30 640 C30 612 47 595 75 595 C103 595 120 612 120 640 C120 668 103 685 75 685 C47 685 30 668 30 640 L30 640 Z " />
<glyph glyph-name="k" unicode="k" horiz-adv-x="284" d="M45 0 L114 0 L114 250 L135 250 L213 0 L284 0 L197 280 L281 540 L210 540 L136 305 L114 305 L114 700 L45 700 L45 0 Z " />
<glyph glyph-name="l" unicode="l" horiz-adv-x="159" d="M45 0 L114 0 L114 700 L45 700 L45 0 Z " />
<glyph glyph-name="m" unicode="m" horiz-adv-x="440" d="M45 0 L114 0 L114 441 C114 441 123 490 158 490 C175 490 188 477 188 445 L188 0 L257 0 L257 441 C257 441 266 490 301 490 C318 490 331 477 331 445 L331 0 L400 0 L400 450 C400 516 366 550 326 550 C275 550 250 500 250 500 C250 500 235 550 183 550 C133 550 108 502 108 502 L85 545 L45 545 L45 0 Z " />
<glyph glyph-name="n" unicode="n" horiz-adv-x="297" d="M45 0 L114 0 L114 441 C114 441 123 490 158 490 C175 490 188 477 188 445 L188 0 L257 0 L257 450 C257 516 223 550 183 550 C133 550 108 502 108 502 L85 545 L45 545 L45 0 Z " />
<glyph glyph-name="o" unicode="o" horiz-adv-x="278" d="M35 115 C35 30 75 -10 139 -10 C203 -10 243 30 243 115 L243 425 C243 510 203 550 139 550 C75 550 35 510 35 425 L35 115 Z M174 110 C174 65 159 50 139 50 C119 50 104 65 104 110 L104 430 C104 475 119 490 139 490 C159 490 174 475 174 430 L174 110 Z " />
<glyph glyph-name="p" unicode="p" horiz-adv-x="292" d="M45 -160 L114 -160 L114 24 C114 24 134 -10 173 -10 C227 -10 257 33 257 110 L257 445 C257 516 223 550 178 550 C128 550 106 504 106 504 L86 545 L45 545 L45 -160 Z M188 110 C188 68 177 50 154 50 C121 50 114 93 114 93 L114 441 C114 441 123 490 158 490 C175 490 188 477 188 445 L188 110 Z " />
<glyph glyph-name="q" unicode="q" horiz-adv-x="292" d="M178 -160 L247 -160 L247 545 L207 545 L188 509 C188 509 164 550 119 550 C65 550 35 507 35 430 L35 95 C35 24 69 -10 109 -10 C154 -10 178 31 178 31 L178 -160 Z M178 99 C178 99 169 50 134 50 C117 50 104 63 104 95 L104 430 C104 472 115 490 138 490 C171 490 178 447 178 447 L178 99 Z " />
<glyph glyph-name="r" unicode="r" horiz-adv-x="200" d="M45 0 L114 0 L114 420 C114 420 124 470 179 470 C185 470 195 468 195 468 L200 548 C200 548 193 550 180 550 C133 550 108 502 108 502 L85 545 L45 545 L45 0 Z " />
<glyph glyph-name="s" unicode="s" horiz-adv-x="251" d="M25 115 C25 30 65 -10 125 -10 C185 -10 225 30 225 115 C225 195 216 227 158 295 C105 357 99 365 99 435 C99 475 109 490 128 490 C147 490 157 475 157 435 L157 375 L226 375 L226 430 C226 510 191 550 128 550 C65 550 30 510 30 430 C30 355 38 322 97 255 C151 194 156 185 156 110 C156 65 141 50 125 50 C109 50 94 65 94 110 L94 175 L25 175 L25 115 Z " />
<glyph glyph-name="t" unicode="t" horiz-adv-x="193" d="M48 120 C48 35 88 -5 152 -5 C172 -5 182 1 182 1 L182 58 C182 58 173 55 162 55 C132 55 117 70 117 115 L117 480 L183 480 L183 540 L117 540 L117 648 L76 648 L49 540 L10 518 L10 480 L48 480 L48 120 Z " />
<glyph glyph-name="u" unicode="u" horiz-adv-x="302" d="M45 90 C45 24 79 -10 119 -10 C169 -10 194 38 194 38 L217 -5 L257 -5 L257 540 L188 540 L188 99 C188 99 179 50 144 50 C127 50 114 63 114 95 L114 540 L45 540 L45 90 Z " />
<glyph glyph-name="v" unicode="v" horiz-adv-x="259" d="M78 0 L166 0 L249 540 L184 540 L144 240 C137 190 129 105 129 105 L126 105 C126 105 120 190 114 240 L80 540 L10 540 L78 0 Z " />
<glyph glyph-name="w" unicode="w" horiz-adv-x="413" d="M70 0 L152 0 L192 300 C202 375 204 420 204 420 L207 420 C207 420 210 375 217 300 L245 0 L327 0 L403 540 L337 540 L300 240 C293 185 287 110 287 110 L284 110 C284 110 281 185 275 240 L243 540 L173 540 L133 240 C126 185 119 110 119 110 L116 110 C116 110 113 185 108 240 L79 540 L10 540 L70 0 Z " />
<glyph glyph-name="x" unicode="x" horiz-adv-x="253" d="M5 0 L72 0 L126 220 L128 220 L176 0 L248 0 L176 282 L246 540 L181 540 L131 335 L128 335 L85 540 L14 540 L80 277 L5 0 Z " />
<glyph glyph-name="y" unicode="y" horiz-adv-x="269" d="M15 -156 C15 -156 25 -160 47 -160 C110 -160 143 -130 165 -5 L259 540 L194 540 L152 260 C145 210 139 140 139 140 L136 140 C136 140 129 210 122 260 L85 540 L15 540 L99 -3 L95 -30 C88 -80 71 -100 36 -100 C24 -100 15 -97 15 -97 L15 -156 Z " />
<glyph glyph-name="z" unicode="z" horiz-adv-x="205" d="M15 0 L190 0 L190 65 L83 65 L189 475 L189 540 L20 540 L20 475 L121 475 L15 65 L15 0 Z " />
<glyph glyph-name="braceleft" unicode="&#x7b;" horiz-adv-x="238" d="M72 45 C72 -60 117 -105 198 -105 L223 -105 L223 -40 L198 -40 C162 -40 143 -21 143 40 L143 230 C143 300 96 306 96 306 L96 309 C96 309 143 315 143 385 L143 575 C143 636 162 655 198 655 L223 655 L223 720 L198 720 C117 720 72 675 72 570 L72 395 C72 355 57 340 25 340 L15 340 L15 275 L25 275 C57 275 72 260 72 220 L72 45 Z " />
<glyph glyph-name="bar" unicode="&#x7c;" horiz-adv-x="273" d="M100 -80 L173 -80 L173 730 L100 730 L100 -80 Z " />
<glyph glyph-name="braceright" unicode="&#x7d;" horiz-adv-x="238" d="M15 -105 L40 -105 C121 -105 166 -60 166 45 L166 220 C166 260 181 275 213 275 L223 275 L223 340 L213 340 C181 340 166 355 166 395 L166 570 C166 675 121 720 40 720 L15 720 L15 655 L40 655 C76 655 95 636 95 575 L95 385 C95 315 142 309 142 309 L142 306 C142 306 95 300 95 230 L95 40 C95 -21 76 -40 40 -40 L15 -40 L15 -105 Z " />
<glyph glyph-name="asciitilde" unicode="&#x7e;" horiz-adv-x="323" d="M25 305 C25 305 55 325 91 325 C122 325 185 300 225 300 C268 300 298 320 298 320 L298 380 C298 380 268 360 232 360 C201 360 138 385 98 385 C55 385 25 365 25 365 L25 305 Z " />
<glyph glyph-name="nbspace" unicode="&#xa0;" horiz-adv-x="140" d="" />
<glyph glyph-name="exclamdown" unicode="&#xa1;" horiz-adv-x="160" d="M43 -160 L117 -160 L117 0 L103 375 L57 375 L43 0 L43 -160 Z M30 495 C30 465 50 445 80 445 C110 445 130 465 130 495 C130 526 110 546 80 546 C50 546 30 526 30 495 L30 495 Z " />
<glyph glyph-name="cent" unicode="&#xa2;" horiz-adv-x="266" d="M110 -80 L167 -80 L167 -7 C213 4 241 44 241 115 L241 180 L172 180 L172 110 C172 65 157 50 138 50 C119 50 104 65 104 110 L104 430 C104 475 119 490 138 490 C157 490 172 475 172 430 L172 370 L241 370 L241 425 C241 496 213 536 167 547 L167 620 L110 620 L110 547 C63 536 35 496 35 425 L35 115 C35 43 63 4 110 -7 L110 -80 Z " />
<glyph glyph-name="sterling" unicode="&#xa3;" horiz-adv-x="290" d="M20 0 L269 0 L269 65 L133 65 L133 315 L225 315 L225 375 L133 375 L133 580 C133 628 144 644 165 644 C186 644 197 628 197 580 L197 490 L270 490 L270 575 C270 665 231 710 165 710 C99 710 60 665 60 575 L60 375 L20 375 L20 315 L60 315 L60 65 L20 65 L20 0 Z " />
<glyph glyph-name="currency" unicode="&#xa4;" horiz-adv-x="414" d="M30 210 L75 165 L127 224 C149 208 176 200 207 200 C237 200 264 208 287 224 L339 165 L384 210 L326 265 C339 287 347 314 347 345 C347 375 339 402 326 425 L384 480 L339 525 L287 466 C264 481 237 490 207 490 C176 490 149 481 127 466 L75 525 L30 480 L88 425 C74 402 67 375 67 345 C67 314 74 287 88 265 L30 210 Z M207 260 C162 260 132 290 132 345 C132 400 162 430 207 430 C252 430 282 400 282 345 C282 290 252 260 207 260 L207 260 Z " />
<glyph glyph-name="yen" unicode="&#xa5;" horiz-adv-x="294" d="M106 0 L179 0 L179 155 L237 155 L237 210 L179 210 L179 250 L237 250 L237 305 L189 305 L284 700 L213 700 L148 384 L145 384 L87 700 L10 700 L97 305 L48 305 L48 250 L106 250 L106 210 L48 210 L48 155 L106 155 L106 0 Z " />
<glyph glyph-name="brokenbar" unicode="&#xa6;" horiz-adv-x="273" d="M100 -80 L173 -80 L173 256 L100 256 L100 -80 Z M100 394 L173 394 L173 730 L100 730 L100 394 Z " />
<glyph glyph-name="section" unicode="&#xa7;" horiz-adv-x="298" d="M35 30 C35 -55 75 -95 141 -95 C207 -95 247 -55 247 30 C247 90 221 122 199 148 C253 197 263 220 263 295 C263 370 256 391 186 465 C129 526 120 540 120 590 C120 635 135 650 157 650 C179 650 194 635 194 590 L194 550 L263 550 L263 585 C263 670 223 710 157 710 C91 710 51 670 51 585 C51 525 77 493 99 467 C45 418 35 395 35 320 C35 245 42 224 112 150 C169 89 178 75 178 25 C178 -20 163 -35 141 -35 C119 -35 104 -20 104 25 L104 65 L35 65 L35 30 Z M161 192 C110 246 104 256 104 320 C104 380 106 392 137 423 C188 369 194 359 194 295 C194 235 192 223 161 192 L161 192 Z " />
<glyph glyph-name="dieresis" unicode="&#xa8;" horiz-adv-x="222" d="M10 644 C10 616 27 600 55 600 C83 600 100 616 100 644 C100 672 83 688 55 688 C27 688 10 672 10 644 L10 644 Z M122 644 C122 616 139 600 167 600 C195 600 212 616 212 644 C212 672 195 688 167 688 C139 688 122 672 122 644 L122 644 Z " />
<glyph glyph-name="copyright" unicode="&#xa9;" horiz-adv-x="740" d="M370 -16 C565 -16 705 124 705 347 C705 570 565 710 370 710 C175 710 35 570 35 347 C35 124 175 -16 370 -16 L370 -16 Z M370 39 C208 39 93 154 93 347 C93 540 208 655 370 655 C532 655 647 540 647 347 C647 154 532 39 370 39 L370 39 Z M279 209 C279 138 310 104 367 104 C424 104 455 138 455 209 L455 290 L397 290 L397 204 C397 169 385 159 367 159 C350 159 338 169 338 204 L338 492 C338 527 350 537 367 537 C385 537 397 527 397 492 L397 417 L455 417 L455 487 C455 558 424 592 367 592 C310 592 279 558 279 487 L279 209 Z " />
<glyph glyph-name="ordfeminine" unicode="&#xaa;" horiz-adv-x="227" d="M30 450 C30 398 50 370 87 370 C127 370 143 407 143 407 L162 375 L192 375 L192 620 C192 679 165 710 115 710 C65 710 38 679 38 620 L38 600 L92 600 L92 620 C92 650 97 663 115 663 C133 663 138 650 138 620 L138 570 L113 570 C58 570 30 535 30 470 L30 450 Z M84 475 C84 510 95 525 118 525 L138 525 L138 453 C138 453 133 423 108 423 C92 423 84 435 84 458 L84 475 Z " />
<glyph glyph-name="guillemotleft" unicode="&#xab;" horiz-adv-x="366" d="M125 105 L196 105 L111 264 L196 423 L125 423 L40 264 L125 105 Z M255 105 L326 105 L241 264 L326 423 L255 423 L170 264 L255 105 Z " />
<glyph glyph-name="logicalnot" unicode="&#xac;" horiz-adv-x="323" d="M25 325 L239 325 L239 260 L298 260 L298 385 L25 385 L25 325 Z " />
<glyph glyph-name="uni00AD" unicode="&#xad;" horiz-adv-x="220" d="M25 255 L195 255 L195 325 L25 325 L25 255 Z " />
<glyph glyph-name="registered" unicode="&#xae;" horiz-adv-x="740" d="M291 116 L350 116 L350 310 L375 310 L408 116 L469 116 L429 327 C429 327 470 350 470 425 L470 465 C470 541 429 585 362 585 L291 585 L291 116 Z M350 360 L350 530 L362 530 C389 530 411 510 411 465 L411 425 C411 380 389 360 362 360 L350 360 Z M370 -16 C565 -16 705 124 705 347 C705 570 565 710 370 710 C175 710 35 570 35 347 C35 124 175 -16 370 -16 L370 -16 Z M370 39 C208 39 93 154 93 347 C93 540 208 655 370 655 C532 655 647 540 647 347 C647 154 532 39 370 39 L370 39 Z " />
<glyph glyph-name="macron" unicode="&#xaf;" horiz-adv-x="176" d="M10 615 L166 615 L166 670 L10 670 L10 615 Z " />
<glyph glyph-name="degree" unicode="&#xb0;" horiz-adv-x="220" d="M15 615 C15 560 55 520 110 520 C165 520 205 560 205 615 C205 670 165 710 110 710 C55 710 15 670 15 615 L15 615 Z M110 570 C85 570 68 587 68 615 C68 643 85 660 110 660 C135 660 152 643 152 615 C152 587 135 570 110 570 L110 570 Z " />
<glyph glyph-name="plusminus" unicode="&#xb1;" horiz-adv-x="320" d="M25 145 L295 145 L295 205 L25 205 L25 145 Z M25 345 L130 345 L130 252 L190 252 L190 345 L295 345 L295 405 L190 405 L190 497 L130 497 L130 405 L25 405 L25 345 Z " />
<glyph glyph-name="uni00B2" unicode="&#xb2;" horiz-adv-x="236" d="M20 478 L211 478 L211 570 L154 570 L154 533 L89 533 C195 688 204 705 204 750 C204 825 169 860 112 860 C55 860 20 825 20 750 L20 725 L80 725 L80 755 C80 792 90 805 112 805 C134 805 144 792 144 755 C144 720 135 698 20 533 L20 478 Z " />
<glyph glyph-name="uni00B3" unicode="&#xb3;" horiz-adv-x="219" d="M15 580 C15 505 50 470 107 470 C164 470 199 505 199 580 L199 600 C199 705 119 706 119 706 L197 795 L197 850 L24 850 L24 795 L132 795 L56 707 L56 655 L101 655 C129 655 139 642 139 600 L139 575 C139 538 129 525 107 525 C85 525 75 538 75 575 L75 590 L15 590 L15 580 Z " />
<glyph glyph-name="acute" unicode="&#xb4;" horiz-adv-x="142" d="M10 575 L60 575 L132 700 L53 700 L10 575 Z " />
<glyph glyph-name="uni00B5" unicode="&#xb5;" horiz-adv-x="300" d="M45 -160 L114 -160 L114 0 C114 0 124 -10 144 -10 C179 -10 197 37 197 37 L220 -5 L260 -5 L260 540 L191 540 L191 99 C191 99 182 50 146 50 C127 50 114 63 114 95 L114 540 L45 540 L45 -160 Z " />
<glyph glyph-name="paragraph" unicode="&#xb6;" horiz-adv-x="336" d="M103 -80 L171 -80 L171 635 L222 635 L222 -80 L291 -80 L291 635 L316 635 L316 700 L103 700 C55 700 20 665 20 580 L20 495 C20 410 55 375 103 375 L103 -80 Z " />
<glyph glyph-name="periodcentered" unicode="&#xb7;" horiz-adv-x="140" d="M70 243 C100 243 120 263 120 293 C120 323 100 343 70 343 C40 343 20 323 20 293 C20 263 40 243 70 243 L70 243 Z " />
<glyph glyph-name="cedilla" unicode="&#xb8;" horiz-adv-x="151" d="M10 -159 C10 -159 28 -167 58 -167 C113 -167 141 -141 141 -97 C141 -39 84 -34 84 -34 L107 25 L54 25 L19 -69 L45 -69 C73 -69 86 -80 86 -96 C86 -112 73 -123 45 -123 C25 -123 10 -118 10 -118 L10 -159 Z " />
<glyph glyph-name="uni00B9" unicode="&#xb9;" horiz-adv-x="166" d="M66 478 L126 478 L126 850 L86 850 L10 815 L10 760 L66 780 L66 478 Z " />
<glyph glyph-name="ordmasculine" unicode="&#xba;" horiz-adv-x="224" d="M140 470 C140 435 130 422 112 422 C94 422 84 435 84 470 L84 615 C84 650 94 663 112 663 C130 663 140 650 140 615 L140 470 Z M30 470 C30 406 62 375 112 375 C162 375 194 406 194 470 L194 615 C194 679 162 710 112 710 C62 710 30 679 30 615 L30 470 Z " />
<glyph glyph-name="guillemotright" unicode="&#xbb;" horiz-adv-x="366" d="M170 105 L241 105 L326 264 L241 423 L170 423 L255 264 L170 105 Z M40 105 L111 105 L196 264 L111 423 L40 423 L125 264 L40 105 Z " />
<glyph glyph-name="onequarter" unicode="&#xbc;" horiz-adv-x="497" d="M103 0 L166 0 L371 700 L308 700 L103 0 Z M86 328 L146 328 L146 700 L106 700 L30 665 L30 610 L86 630 L86 328 Z M253 79 L371 79 L371 2 L431 2 L431 79 L467 79 L467 129 L431 129 L431 374 L362 374 L253 129 L253 79 Z M310 129 L378 299 L381 299 L371 129 L310 129 Z " />
<glyph glyph-name="onehalf" unicode="&#xbd;" horiz-adv-x="521" d="M103 0 L166 0 L371 700 L308 700 L103 0 Z M86 328 L146 328 L146 700 L106 700 L30 665 L30 610 L86 630 L86 328 Z M290 2 L481 2 L481 94 L424 94 L424 57 L359 57 C465 212 474 229 474 274 C474 349 439 384 382 384 C325 384 290 349 290 274 L290 249 L350 249 L350 279 C350 316 360 329 382 329 C404 329 414 316 414 279 C414 244 405 222 290 57 L290 2 Z " />
<glyph glyph-name="threequarters" unicode="&#xbe;" horiz-adv-x="548" d="M154 0 L217 0 L422 700 L359 700 L154 0 Z M304 79 L422 79 L422 2 L482 2 L482 79 L518 79 L518 129 L482 129 L482 374 L413 374 L304 129 L304 79 Z M361 129 L429 299 L432 299 L422 129 L361 129 Z M40 430 C40 355 75 320 132 320 C189 320 224 355 224 430 L224 450 C224 555 144 556 144 556 L222 645 L222 700 L49 700 L49 645 L157 645 L81 557 L81 505 L126 505 C154 505 164 492 164 450 L164 425 C164 388 154 375 132 375 C110 375 100 388 100 425 L100 440 L40 440 L40 430 Z " />
<glyph glyph-name="questiondown" unicode="&#xbf;" horiz-adv-x="278" d="M170 -35 C170 -88 155 -105 134 -105 C113 -105 98 -88 98 -35 C98 30 98 40 138 120 C188 220 187 230 187 355 L187 375 L115 375 L115 355 C115 250 113 231 63 130 C28 60 26 30 25 -30 C25 -125 68 -170 134 -170 C200 -170 243 -125 243 -30 L243 60 L170 60 L170 -35 Z M101 495 C101 465 121 445 151 445 C181 445 201 465 201 495 C201 526 181 546 151 546 C121 546 101 526 101 495 L101 495 Z " />
<glyph glyph-name="Agrave" unicode="&#xc0;" horiz-adv-x="297" d="M10 0 L82 0 L101 160 L196 160 L215 0 L287 0 L198 700 L107 700 L10 0 Z M109 230 L134 450 C141 510 148 590 148 590 L152 590 C152 590 157 505 163 450 L188 230 L109 230 Z M127 735 L177 735 L134 860 L55 860 L127 735 Z " />
<glyph glyph-name="Aacute" unicode="&#xc1;" horiz-adv-x="297" d="M10 0 L82 0 L101 160 L196 160 L215 0 L287 0 L198 700 L107 700 L10 0 Z M109 230 L134 450 C141 510 148 590 148 590 L152 590 C152 590 157 505 163 450 L188 230 L109 230 Z M127 735 L177 735 L249 860 L170 860 L127 735 Z " />
<glyph glyph-name="Acircumflex" unicode="&#xc2;" horiz-adv-x="297" d="M10 0 L82 0 L101 160 L196 160 L215 0 L287 0 L198 700 L107 700 L10 0 Z M109 230 L134 450 C141 510 148 590 148 590 L152 590 C152 590 157 505 163 450 L188 230 L109 230 Z M47 735 L100 735 L152 810 L204 735 L257 735 L190 860 L114 860 L47 735 Z " />
<glyph glyph-name="Atilde" unicode="&#xc3;" horiz-adv-x="297" d="M10 0 L82 0 L101 160 L196 160 L215 0 L287 0 L198 700 L107 700 L10 0 Z M109 230 L134 450 C141 510 148 590 148 590 L152 590 C152 590 157 505 163 450 L188 230 L109 230 Z M52 755 L106 755 C106 772 112 781 124 781 C132 781 138 777 146 771 C163 759 175 754 192 754 C228 754 252 779 252 824 L252 839 L198 839 C198 822 192 813 180 813 C172 813 166 817 158 823 C141 835 129 840 112 840 C76 840 52 815 52 769 L52 755 Z " />
<glyph glyph-name="Adieresis" unicode="&#xc4;" horiz-adv-x="297" d="M10 0 L82 0 L101 160 L196 160 L215 0 L287 0 L198 700 L107 700 L10 0 Z M109 230 L134 450 C141 510 148 590 148 590 L152 590 C152 590 157 505 163 450 L188 230 L109 230 Z M51 804 C51 776 68 760 96 760 C124 760 141 776 141 804 C141 832 124 848 96 848 C68 848 51 832 51 804 L51 804 Z M163 804 C163 776 180 760 208 760 C236 760 253 776 253 804 C253 832 236 848 208 848 C180 848 163 832 163 804 L163 804 Z " />
<glyph glyph-name="Aring" unicode="&#xc5;" horiz-adv-x="297" d="M10 0 L82 0 L101 160 L196 160 L215 0 L287 0 L198 700 L107 700 L10 0 Z M109 230 L134 450 C141 510 148 590 148 590 L152 590 C152 590 157 505 163 450 L188 230 L109 230 Z M116 802 C116 824 129 837 152 837 C175 837 188 824 188 802 C188 780 175 767 152 767 C129 767 116 780 116 802 L116 802 Z M70 802 C70 755 100 725 152 725 C204 725 234 755 234 802 C234 849 204 879 152 879 C100 879 70 849 70 802 L70 802 Z " />
<glyph glyph-name="AE" unicode="&#xc6;" horiz-adv-x="372" d="M-20 0 L52 0 L83 160 L167 160 L167 0 L347 0 L347 70 L240 70 L240 320 L331 320 L331 390 L240 390 L240 630 L345 630 L345 700 L131 700 L-20 0 Z M96 230 L137 445 C151 515 164 605 164 605 L167 605 L167 230 L96 230 Z " />
<glyph glyph-name="Ccedilla" unicode="&#xc7;" horiz-adv-x="292" d="M91 -159 C91 -159 109 -167 139 -167 C194 -167 222 -141 222 -97 C222 -39 165 -34 165 -34 L175 -8 C234 -1 267 44 267 130 L267 235 L194 235 L194 125 C194 72 183 55 156 55 C130 55 118 72 118 125 L118 575 C118 628 130 645 156 645 C182 645 194 628 194 575 L194 485 L267 485 L267 570 C267 665 227 710 156 710 C85 710 45 665 45 570 L45 130 C45 50 73 6 123 -6 L100 -69 L126 -69 C154 -69 167 -80 167 -96 C167 -112 154 -123 126 -123 C106 -123 91 -118 91 -118 L91 -159 Z " />
<glyph glyph-name="Egrave" unicode="&#xc8;" horiz-adv-x="255" d="M50 0 L230 0 L230 70 L123 70 L123 320 L214 320 L214 390 L123 390 L123 630 L228 630 L228 700 L50 700 L50 0 Z M112 735 L162 735 L119 860 L40 860 L112 735 Z " />
<glyph glyph-name="Eacute" unicode="&#xc9;" horiz-adv-x="255" d="M50 0 L230 0 L230 70 L123 70 L123 320 L214 320 L214 390 L123 390 L123 630 L228 630 L228 700 L50 700 L50 0 Z M113 735 L163 735 L235 860 L156 860 L113 735 Z " />
<glyph glyph-name="Ecircumflex" unicode="&#xca;" horiz-adv-x="255" d="M50 0 L230 0 L230 70 L123 70 L123 320 L214 320 L214 390 L123 390 L123 630 L228 630 L228 700 L50 700 L50 0 Z M35 735 L88 735 L140 810 L192 735 L245 735 L178 860 L102 860 L35 735 Z " />
<glyph glyph-name="Edieresis" unicode="&#xcb;" horiz-adv-x="257" d="M50 0 L230 0 L230 70 L123 70 L123 320 L214 320 L214 390 L123 390 L123 630 L228 630 L228 700 L50 700 L50 0 Z M40 804 C40 776 57 760 85 760 C113 760 130 776 130 804 C130 832 113 848 85 848 C57 848 40 832 40 804 L40 804 Z M152 804 C152 776 169 760 197 760 C225 760 242 776 242 804 C242 832 225 848 197 848 C169 848 152 832 152 804 L152 804 Z " />
<glyph glyph-name="Igrave" unicode="&#xcc;" horiz-adv-x="173" d="M50 0 L123 0 L123 700 L50 700 L50 0 Z M62 735 L112 735 L69 860 L-10 860 L62 735 Z " />
<glyph glyph-name="Iacute" unicode="&#xcd;" horiz-adv-x="173" d="M50 0 L123 0 L123 700 L50 700 L50 0 Z M61 735 L111 735 L183 860 L104 860 L61 735 Z " />
<glyph glyph-name="Icircumflex" unicode="&#xce;" horiz-adv-x="170" d="M50 0 L123 0 L123 700 L50 700 L50 0 Z M-20 735 L33 735 L85 810 L137 735 L190 735 L123 860 L47 860 L-20 735 Z " />
<glyph glyph-name="Idieresis" unicode="&#xcf;" horiz-adv-x="173" d="M50 0 L123 0 L123 700 L50 700 L50 0 Z M-10 804 C-10 776 7 760 35 760 C63 760 80 776 80 804 C80 832 63 848 35 848 C7 848 -10 832 -10 804 L-10 804 Z M93 804 C93 776 110 760 138 760 C166 760 183 776 183 804 C183 832 166 848 138 848 C110 848 93 832 93 804 L93 804 Z " />
<glyph glyph-name="Eth" unicode="&#xd0;" horiz-adv-x="317" d="M50 0 L146 0 C227 0 277 50 277 155 L277 545 C277 650 227 700 146 700 L50 700 L50 390 L5 390 L5 320 L50 320 L50 0 Z M123 65 L123 320 L171 320 L171 390 L123 390 L123 635 L146 635 C182 635 204 613 204 545 L204 155 C204 87 182 65 146 65 L123 65 Z " />
<glyph glyph-name="Ntilde" unicode="&#xd1;" horiz-adv-x="360" d="M50 0 L119 0 L119 285 C119 385 109 535 109 535 L111 535 L230 0 L310 0 L310 700 L241 700 L241 415 C241 315 251 165 251 165 L249 165 L130 700 L50 700 L50 0 Z M85 755 L139 755 C139 772 145 781 157 781 C165 781 171 777 179 771 C196 759 208 754 225 754 C261 754 285 779 285 824 L285 839 L231 839 C231 822 225 813 213 813 C205 813 199 817 191 823 C174 835 162 840 145 840 C109 840 85 815 85 769 L85 755 Z " />
<glyph glyph-name="Ograve" unicode="&#xd2;" horiz-adv-x="322" d="M204 130 C204 72 187 55 161 55 C135 55 118 72 118 130 L118 570 C118 628 135 645 161 645 C187 645 204 628 204 570 L204 130 Z M45 135 C45 35 90 -10 161 -10 C232 -10 277 35 277 135 L277 565 C277 665 232 710 161 710 C90 710 45 665 45 565 L45 135 Z M136 735 L186 735 L143 860 L64 860 L136 735 Z " />
<glyph glyph-name="Oacute" unicode="&#xd3;" horiz-adv-x="322" d="M204 130 C204 72 187 55 161 55 C135 55 118 72 118 130 L118 570 C118 628 135 645 161 645 C187 645 204 628 204 570 L204 130 Z M45 135 C45 35 90 -10 161 -10 C232 -10 277 35 277 135 L277 565 C277 665 232 710 161 710 C90 710 45 665 45 565 L45 135 Z M135 735 L185 735 L257 860 L178 860 L135 735 Z " />
<glyph glyph-name="Ocircumflex" unicode="&#xd4;" horiz-adv-x="322" d="M204 130 C204 72 187 55 161 55 C135 55 118 72 118 130 L118 570 C118 628 135 645 161 645 C187 645 204 628 204 570 L204 130 Z M45 135 C45 35 90 -10 161 -10 C232 -10 277 35 277 135 L277 565 C277 665 232 710 161 710 C90 710 45 665 45 565 L45 135 Z M56 735 L109 735 L161 810 L213 735 L266 735 L199 860 L123 860 L56 735 Z " />
<glyph glyph-name="Otilde" unicode="&#xd5;" horiz-adv-x="322" d="M204 130 C204 72 187 55 161 55 C135 55 118 72 118 130 L118 570 C118 628 135 645 161 645 C187 645 204 628 204 570 L204 130 Z M45 135 C45 35 90 -10 161 -10 C232 -10 277 35 277 135 L277 565 C277 665 232 710 161 710 C90 710 45 665 45 565 L45 135 Z M61 755 L115 755 C115 772 121 781 133 781 C141 781 147 777 155 771 C172 759 184 754 201 754 C237 754 261 779 261 824 L261 839 L207 839 C207 822 201 813 189 813 C181 813 175 817 167 823 C150 835 138 840 121 840 C85 840 61 815 61 769 L61 755 Z " />
<glyph glyph-name="Odieresis" unicode="&#xd6;" horiz-adv-x="322" d="M204 130 C204 72 187 55 161 55 C135 55 118 72 118 130 L118 570 C118 628 135 645 161 645 C187 645 204 628 204 570 L204 130 Z M45 135 C45 35 90 -10 161 -10 C232 -10 277 35 277 135 L277 565 C277 665 232 710 161 710 C90 710 45 665 45 565 L45 135 Z M60 804 C60 776 77 760 105 760 C133 760 150 776 150 804 C150 832 133 848 105 848 C77 848 60 832 60 804 L60 804 Z M172 804 C172 776 189 760 217 760 C245 760 262 776 262 804 C262 832 245 848 217 848 C189 848 172 832 172 804 L172 804 Z " />
<glyph glyph-name="multiply" unicode="&#xd7;" horiz-adv-x="322" d="M45 252 L87 210 L161 284 L235 210 L277 252 L203 326 L277 400 L235 442 L161 368 L87 442 L45 400 L119 326 L45 252 Z " />
<glyph glyph-name="Oslash" unicode="&#xd8;" horiz-adv-x="322" d="M51 -40 L94 -40 L104 3 C120 -5 140 -10 161 -10 C232 -10 277 35 277 135 L277 565 C277 608 268 640 253 664 L271 740 L228 740 L218 697 C202 705 182 710 161 710 C90 710 45 665 45 565 L45 135 C45 92 54 60 69 36 L51 -40 Z M207 130 C207 72 190 55 161 55 C143 55 129 62 122 82 L205 450 L207 450 L207 130 Z M115 250 L115 570 C115 628 132 645 161 645 C179 645 193 638 200 618 L117 250 L115 250 Z " />
<glyph glyph-name="Ugrave" unicode="&#xd9;" horiz-adv-x="316" d="M45 135 C45 35 90 -10 158 -10 C226 -10 271 35 271 135 L271 700 L198 700 L198 130 C198 72 181 55 158 55 C135 55 118 72 118 130 L118 700 L45 700 L45 135 Z M133 735 L183 735 L140 860 L61 860 L133 735 Z " />
<glyph glyph-name="Uacute" unicode="&#xda;" horiz-adv-x="316" d="M45 135 C45 35 90 -10 158 -10 C226 -10 271 35 271 135 L271 700 L198 700 L198 130 C198 72 181 55 158 55 C135 55 118 72 118 130 L118 700 L45 700 L45 135 Z M133 735 L183 735 L255 860 L176 860 L133 735 Z " />
<glyph glyph-name="Ucircumflex" unicode="&#xdb;" horiz-adv-x="316" d="M45 135 C45 35 90 -10 158 -10 C226 -10 271 35 271 135 L271 700 L198 700 L198 130 C198 72 181 55 158 55 C135 55 118 72 118 130 L118 700 L45 700 L45 135 Z M53 735 L106 735 L158 810 L210 735 L263 735 L196 860 L120 860 L53 735 Z " />
<glyph glyph-name="Udieresis" unicode="&#xdc;" horiz-adv-x="316" d="M45 135 C45 35 90 -10 158 -10 C226 -10 271 35 271 135 L271 700 L198 700 L198 130 C198 72 181 55 158 55 C135 55 118 72 118 130 L118 700 L45 700 L45 135 Z M57 804 C57 776 74 760 102 760 C130 760 147 776 147 804 C147 832 130 848 102 848 C74 848 57 832 57 804 L57 804 Z M169 804 C169 776 186 760 214 760 C242 760 259 776 259 804 C259 832 242 848 214 848 C186 848 169 832 169 804 L169 804 Z " />
<glyph glyph-name="Yacute" unicode="&#xdd;" horiz-adv-x="284" d="M101 0 L174 0 L174 264 L279 700 L208 700 L143 384 L140 384 L82 700 L5 700 L101 264 L101 0 Z M120 735 L170 735 L242 860 L163 860 L120 735 Z " />
<glyph glyph-name="Thorn" unicode="&#xde;" horiz-adv-x="312" d="M50 0 L123 0 L123 140 L151 140 C232 140 282 190 282 295 L282 430 C282 535 232 585 151 585 L123 585 L123 700 L50 700 L50 0 Z M123 205 L123 520 L151 520 C187 520 209 498 209 430 L209 295 C209 227 187 205 151 205 L123 205 Z " />
<glyph glyph-name="germandbls" unicode="&#xdf;" horiz-adv-x="292" d="M45 0 L114 0 L114 580 C114 625 129 640 152 640 C175 640 190 625 190 580 L190 465 C190 415 170 395 137 395 L137 335 C173 335 193 315 193 265 L193 120 C193 75 178 60 158 60 C147 60 138 63 138 63 L138 4 C138 4 148 0 168 0 C222 0 262 40 262 120 L262 260 C262 340 215 366 215 366 C215 366 259 390 259 470 L259 575 C259 660 219 700 152 700 C85 700 45 660 45 575 L45 0 Z " />
<glyph glyph-name="agrave" unicode="&#xe0;" horiz-adv-x="275" d="M30 90 C30 24 64 -10 102 -10 C152 -10 177 38 177 38 L200 -5 L240 -5 L240 425 C240 510 200 550 139 550 C78 550 38 510 38 425 L38 373 L107 373 L107 430 C107 475 122 490 139 490 C156 490 171 475 171 430 L171 325 L144 325 C75 325 30 280 30 190 L30 90 Z M171 99 C171 99 162 50 127 50 C112 50 99 63 99 95 L99 195 C99 245 114 265 144 265 L171 265 L171 99 Z M114 575 L164 575 L121 700 L42 700 L114 575 Z " />
<glyph glyph-name="aacute" unicode="&#xe1;" horiz-adv-x="275" d="M30 90 C30 24 64 -10 102 -10 C152 -10 177 38 177 38 L200 -5 L240 -5 L240 425 C240 510 200 550 139 550 C78 550 38 510 38 425 L38 373 L107 373 L107 430 C107 475 122 490 139 490 C156 490 171 475 171 430 L171 325 L144 325 C75 325 30 280 30 190 L30 90 Z M171 99 C171 99 162 50 127 50 C112 50 99 63 99 95 L99 195 C99 245 114 265 144 265 L171 265 L171 99 Z M114 575 L164 575 L236 700 L157 700 L114 575 Z " />
<glyph glyph-name="acircumflex" unicode="&#xe2;" horiz-adv-x="275" d="M30 90 C30 24 64 -10 102 -10 C152 -10 177 38 177 38 L200 -5 L240 -5 L240 425 C240 510 200 550 139 550 C78 550 38 510 38 425 L38 373 L107 373 L107 430 C107 475 122 490 139 490 C156 490 171 475 171 430 L171 325 L144 325 C75 325 30 280 30 190 L30 90 Z M171 99 C171 99 162 50 127 50 C112 50 99 63 99 95 L99 195 C99 245 114 265 144 265 L171 265 L171 99 Z M35 575 L88 575 L140 650 L192 575 L245 575 L178 700 L102 700 L35 575 Z " />
<glyph glyph-name="atilde" unicode="&#xe3;" horiz-adv-x="275" d="M30 90 C30 24 64 -10 102 -10 C152 -10 177 38 177 38 L200 -5 L240 -5 L240 425 C240 510 200 550 139 550 C78 550 38 510 38 425 L38 373 L107 373 L107 430 C107 475 122 490 139 490 C156 490 171 475 171 430 L171 325 L144 325 C75 325 30 280 30 190 L30 90 Z M171 99 C171 99 162 50 127 50 C112 50 99 63 99 95 L99 195 C99 245 114 265 144 265 L171 265 L171 99 Z M39 595 L93 595 C93 612 99 621 111 621 C119 621 125 617 133 611 C150 599 162 594 179 594 C215 594 239 619 239 664 L239 679 L185 679 C185 662 179 653 167 653 C159 653 153 657 145 663 C128 675 116 680 99 680 C63 680 39 655 39 609 L39 595 Z " />
<glyph glyph-name="adieresis" unicode="&#xe4;" horiz-adv-x="275" d="M30 90 C30 24 64 -10 102 -10 C152 -10 177 38 177 38 L200 -5 L240 -5 L240 425 C240 510 200 550 139 550 C78 550 38 510 38 425 L38 373 L107 373 L107 430 C107 475 122 490 139 490 C156 490 171 475 171 430 L171 325 L144 325 C75 325 30 280 30 190 L30 90 Z M171 99 C171 99 162 50 127 50 C112 50 99 63 99 95 L99 195 C99 245 114 265 144 265 L171 265 L171 99 Z M38 644 C38 616 55 600 83 600 C111 600 128 616 128 644 C128 672 111 688 83 688 C55 688 38 672 38 644 L38 644 Z M150 644 C150 616 167 600 195 600 C223 600 240 616 240 644 C240 672 223 688 195 688 C167 688 150 672 150 644 L150 644 Z " />
<glyph glyph-name="aring" unicode="&#xe5;" horiz-adv-x="275" d="M30 90 C30 24 64 -10 102 -10 C152 -10 177 38 177 38 L200 -5 L240 -5 L240 425 C240 510 200 550 139 550 C78 550 38 510 38 425 L38 373 L107 373 L107 430 C107 475 122 490 139 490 C156 490 171 475 171 430 L171 325 L144 325 C75 325 30 280 30 190 L30 90 Z M171 99 C171 99 162 50 127 50 C112 50 99 63 99 95 L99 195 C99 245 114 265 144 265 L171 265 L171 99 Z M103 642 C103 664 116 677 139 677 C162 677 175 664 175 642 C175 620 162 607 139 607 C116 607 103 620 103 642 L103 642 Z M57 642 C57 595 87 565 139 565 C191 565 221 595 221 642 C221 689 191 719 139 719 C87 719 57 689 57 642 L57 642 Z " />
<glyph glyph-name="ae" unicode="&#xe6;" horiz-adv-x="409" d="M30 115 C30 30 70 -10 125 -10 C180 -10 200 19 200 19 C200 19 220 -10 275 -10 C339 -10 379 30 379 115 L379 175 L310 175 L310 110 C310 65 295 50 275 50 C255 50 240 65 240 110 L240 255 L379 255 L379 425 C379 510 339 550 275 550 C229 550 205 526 205 526 C205 526 184 550 139 550 C78 550 38 510 38 425 L38 373 L107 373 L107 430 C107 475 122 490 139 490 C156 490 171 475 171 430 L171 315 L144 315 C75 315 30 270 30 180 L30 115 Z M171 110 C171 65 156 50 135 50 C114 50 99 65 99 110 L99 185 C99 235 114 255 144 255 L171 255 L171 110 Z M240 315 L240 430 C240 475 255 490 275 490 C295 490 310 475 310 430 L310 315 L240 315 Z " />
<glyph glyph-name="ccedilla" unicode="&#xe7;" horiz-adv-x="266" d="M73 -159 C73 -159 91 -167 121 -167 C176 -167 204 -141 204 -97 C204 -39 147 -34 147 -34 L157 -9 C209 -1 241 39 241 115 L241 180 L172 180 L172 110 C172 65 157 50 138 50 C119 50 104 65 104 110 L104 430 C104 475 119 490 138 490 C157 490 172 475 172 430 L172 370 L241 370 L241 425 C241 510 201 550 138 550 C75 550 35 510 35 425 L35 115 C35 45 61 6 105 -6 L82 -69 L108 -69 C136 -69 149 -80 149 -96 C149 -112 136 -123 108 -123 C88 -123 73 -118 73 -118 L73 -159 Z " />
<glyph glyph-name="egrave" unicode="&#xe8;" horiz-adv-x="273" d="M35 115 C35 30 75 -10 139 -10 C203 -10 243 30 243 115 L243 175 L174 175 L174 110 C174 65 159 50 139 50 C119 50 104 65 104 110 L104 250 L243 250 L243 425 C243 510 203 550 139 550 C75 550 35 510 35 425 L35 115 Z M104 310 L104 430 C104 475 119 490 139 490 C159 490 174 475 174 430 L174 310 L104 310 Z M114 575 L164 575 L121 700 L42 700 L114 575 Z " />
<glyph glyph-name="eacute" unicode="&#xe9;" horiz-adv-x="273" d="M35 115 C35 30 75 -10 139 -10 C203 -10 243 30 243 115 L243 175 L174 175 L174 110 C174 65 159 50 139 50 C119 50 104 65 104 110 L104 250 L243 250 L243 425 C243 510 203 550 139 550 C75 550 35 510 35 425 L35 115 Z M104 310 L104 430 C104 475 119 490 139 490 C159 490 174 475 174 430 L174 310 L104 310 Z M114 575 L164 575 L236 700 L157 700 L114 575 Z " />
<glyph glyph-name="ecircumflex" unicode="&#xea;" horiz-adv-x="275" d="M35 115 C35 30 75 -10 139 -10 C203 -10 243 30 243 115 L243 175 L174 175 L174 110 C174 65 159 50 139 50 C119 50 104 65 104 110 L104 250 L243 250 L243 425 C243 510 203 550 139 550 C75 550 35 510 35 425 L35 115 Z M104 310 L104 430 C104 475 119 490 139 490 C159 490 174 475 174 430 L174 310 L104 310 Z M35 575 L88 575 L140 650 L192 575 L245 575 L178 700 L102 700 L35 575 Z " />
<glyph glyph-name="edieresis" unicode="&#xeb;" horiz-adv-x="273" d="M35 115 C35 30 75 -10 139 -10 C203 -10 243 30 243 115 L243 175 L174 175 L174 110 C174 65 159 50 139 50 C119 50 104 65 104 110 L104 250 L243 250 L243 425 C243 510 203 550 139 550 C75 550 35 510 35 425 L35 115 Z M104 310 L104 430 C104 475 119 490 139 490 C159 490 174 475 174 430 L174 310 L104 310 Z M38 644 C38 616 55 600 83 600 C111 600 128 616 128 644 C128 672 111 688 83 688 C55 688 38 672 38 644 L38 644 Z M150 644 C150 616 167 600 195 600 C223 600 240 616 240 644 C240 672 223 688 195 688 C167 688 150 672 150 644 L150 644 Z " />
<glyph glyph-name="igrave" unicode="&#xec;" horiz-adv-x="159" d="M45 0 L114 0 L114 540 L45 540 L45 0 Z M52 575 L102 575 L59 700 L-20 700 L52 575 Z " />
<glyph glyph-name="iacute" unicode="&#xed;" horiz-adv-x="159" d="M45 0 L114 0 L114 540 L45 540 L45 0 Z M52 575 L102 575 L174 700 L95 700 L52 575 Z " />
<glyph glyph-name="icircumflex" unicode="&#xee;" horiz-adv-x="160" d="M46 0 L115 0 L115 540 L46 540 L46 0 Z M-25 575 L28 575 L80 650 L132 575 L185 575 L118 700 L42 700 L-25 575 Z " />
<glyph glyph-name="idieresis" unicode="&#xef;" horiz-adv-x="159" d="M45 0 L114 0 L114 540 L45 540 L45 0 Z M32 600 C57 600 74 616 74 644 C74 672 57 688 32 688 C7 688 -10 672 -10 644 C-10 616 7 600 32 600 L32 600 Z M127 600 C152 600 169 616 169 644 C169 672 152 688 127 688 C102 688 85 672 85 644 C85 616 102 600 127 600 L127 600 Z " />
<glyph glyph-name="eth" unicode="&#xf0;" horiz-adv-x="278" d="M35 115 C35 30 75 -10 139 -10 C203 -10 243 30 243 115 L243 395 C243 480 202 575 202 575 L243 575 L243 635 L176 635 L143 700 L72 700 L106 635 L57 635 L57 575 L134 575 C134 574 151 535 159 504 C159 504 144 515 119 515 C65 515 35 472 35 395 L35 115 Z M174 110 C174 65 159 50 139 50 C119 50 104 65 104 110 L104 395 C104 437 115 455 137 455 C169 455 174 410 174 410 L174 110 Z " />
<glyph glyph-name="ntilde" unicode="&#xf1;" horiz-adv-x="297" d="M45 0 L114 0 L114 441 C114 441 123 490 158 490 C175 490 188 477 188 445 L188 0 L257 0 L257 450 C257 516 223 550 183 550 C133 550 108 502 108 502 L85 545 L45 545 L45 0 Z M51 595 L105 595 C105 612 111 621 123 621 C131 621 137 617 145 611 C162 599 174 594 191 594 C227 594 251 619 251 664 L251 679 L197 679 C197 662 191 653 179 653 C171 653 165 657 157 663 C140 675 128 680 111 680 C75 680 51 655 51 609 L51 595 Z " />
<glyph glyph-name="ograve" unicode="&#xf2;" horiz-adv-x="278" d="M35 115 C35 30 75 -10 139 -10 C203 -10 243 30 243 115 L243 425 C243 510 203 550 139 550 C75 550 35 510 35 425 L35 115 Z M174 110 C174 65 159 50 139 50 C119 50 104 65 104 110 L104 430 C104 475 119 490 139 490 C159 490 174 475 174 430 L174 110 Z M114 575 L164 575 L121 700 L42 700 L114 575 Z " />
<glyph glyph-name="oacute" unicode="&#xf3;" horiz-adv-x="278" d="M35 115 C35 30 75 -10 139 -10 C203 -10 243 30 243 115 L243 425 C243 510 203 550 139 550 C75 550 35 510 35 425 L35 115 Z M174 110 C174 65 159 50 139 50 C119 50 104 65 104 110 L104 430 C104 475 119 490 139 490 C159 490 174 475 174 430 L174 110 Z M114 575 L164 575 L236 700 L157 700 L114 575 Z " />
<glyph glyph-name="ocircumflex" unicode="&#xf4;" horiz-adv-x="280" d="M35 115 C35 30 75 -10 139 -10 C203 -10 243 30 243 115 L243 425 C243 510 203 550 139 550 C75 550 35 510 35 425 L35 115 Z M174 110 C174 65 159 50 139 50 C119 50 104 65 104 110 L104 430 C104 475 119 490 139 490 C159 490 174 475 174 430 L174 110 Z M35 575 L88 575 L140 650 L192 575 L245 575 L178 700 L102 700 L35 575 Z " />
<glyph glyph-name="otilde" unicode="&#xf5;" horiz-adv-x="278" d="M35 115 C35 30 75 -10 139 -10 C203 -10 243 30 243 115 L243 425 C243 510 203 550 139 550 C75 550 35 510 35 425 L35 115 Z M174 110 C174 65 159 50 139 50 C119 50 104 65 104 110 L104 430 C104 475 119 490 139 490 C159 490 174 475 174 430 L174 110 Z M39 595 L93 595 C93 612 99 621 111 621 C119 621 125 617 133 611 C150 599 162 594 179 594 C215 594 239 619 239 664 L239 679 L185 679 C185 662 179 653 167 653 C159 653 153 657 145 663 C128 675 116 680 99 680 C63 680 39 655 39 609 L39 595 Z " />
<glyph glyph-name="odieresis" unicode="&#xf6;" horiz-adv-x="278" d="M35 115 C35 30 75 -10 139 -10 C203 -10 243 30 243 115 L243 425 C243 510 203 550 139 550 C75 550 35 510 35 425 L35 115 Z M174 110 C174 65 159 50 139 50 C119 50 104 65 104 110 L104 430 C104 475 119 490 139 490 C159 490 174 475 174 430 L174 110 Z M38 644 C38 616 55 600 83 600 C111 600 128 616 128 644 C128 672 111 688 83 688 C55 688 38 672 38 644 L38 644 Z M150 644 C150 616 167 600 195 600 C223 600 240 616 240 644 C240 672 223 688 195 688 C167 688 150 672 150 644 L150 644 Z " />
<glyph glyph-name="divide" unicode="&#xf7;" horiz-adv-x="324" d="M25 300 L299 300 L299 360 L25 360 L25 300 Z M116 455 C116 427 134 410 162 410 C190 410 208 427 208 455 C208 483 190 500 162 500 C134 500 116 483 116 455 L116 455 Z M116 205 C116 177 134 160 162 160 C190 160 208 177 208 205 C208 233 190 250 162 250 C134 250 116 233 116 205 L116 205 Z " />
<glyph glyph-name="oslash" unicode="&#xf8;" horiz-adv-x="278" d="M25 -35 L65 -35 L78 7 C94 -4 115 -10 139 -10 C203 -10 243 30 243 115 L243 425 C243 455 238 479 229 498 L253 575 L213 575 L200 533 C184 544 163 550 139 550 C75 550 35 510 35 425 L35 115 C35 85 40 61 49 42 L25 -35 Z M100 210 L100 430 C100 475 116 490 139 490 C157 490 171 481 176 455 L102 210 L100 210 Z M178 110 C178 65 162 50 139 50 C121 50 107 59 102 85 L176 330 L178 330 L178 110 Z " />
<glyph glyph-name="ugrave" unicode="&#xf9;" horiz-adv-x="302" d="M45 90 C45 24 79 -10 119 -10 C169 -10 194 38 194 38 L217 -5 L257 -5 L257 540 L188 540 L188 99 C188 99 179 50 144 50 C127 50 114 63 114 95 L114 540 L45 540 L45 90 Z M126 575 L176 575 L133 700 L54 700 L126 575 Z " />
<glyph glyph-name="uacute" unicode="&#xfa;" horiz-adv-x="302" d="M45 90 C45 24 79 -10 119 -10 C169 -10 194 38 194 38 L217 -5 L257 -5 L257 540 L188 540 L188 99 C188 99 179 50 144 50 C127 50 114 63 114 95 L114 540 L45 540 L45 90 Z M126 575 L176 575 L248 700 L169 700 L126 575 Z " />
<glyph glyph-name="ucircumflex" unicode="&#xfb;" horiz-adv-x="302" d="M45 90 C45 24 79 -10 119 -10 C169 -10 194 38 194 38 L217 -5 L257 -5 L257 540 L188 540 L188 99 C188 99 179 50 144 50 C127 50 114 63 114 95 L114 540 L45 540 L45 90 Z M46 575 L99 575 L151 650 L203 575 L256 575 L189 700 L113 700 L46 575 Z " />
<glyph glyph-name="udieresis" unicode="&#xfc;" horiz-adv-x="302" d="M45 90 C45 24 79 -10 119 -10 C169 -10 194 38 194 38 L217 -5 L257 -5 L257 540 L188 540 L188 99 C188 99 179 50 144 50 C127 50 114 63 114 95 L114 540 L45 540 L45 90 Z M50 644 C50 616 67 600 95 600 C123 600 140 616 140 644 C140 672 123 688 95 688 C67 688 50 672 50 644 L50 644 Z M162 644 C162 616 179 600 207 600 C235 600 252 616 252 644 C252 672 235 688 207 688 C179 688 162 672 162 644 L162 644 Z " />
<glyph glyph-name="yacute" unicode="&#xfd;" horiz-adv-x="269" d="M15 -156 C15 -156 25 -160 47 -160 C110 -160 143 -130 165 -5 L259 540 L194 540 L152 260 C145 210 139 140 139 140 L136 140 C136 140 129 210 122 260 L85 540 L15 540 L99 -3 L95 -30 C88 -80 71 -100 36 -100 C24 -100 15 -97 15 -97 L15 -156 Z M112 575 L162 575 L234 700 L155 700 L112 575 Z " />
<glyph glyph-name="thorn" unicode="&#xfe;" horiz-adv-x="292" d="M45 -160 L114 -160 L114 24 C114 24 134 -10 173 -10 C227 -10 257 33 257 110 L257 445 C257 516 223 550 178 550 C136 550 114 509 114 509 L114 700 L45 700 L45 -160 Z M188 110 C188 68 177 50 154 50 C121 50 114 93 114 93 L114 441 C114 441 123 490 158 490 C175 490 188 477 188 445 L188 110 Z " />
<glyph glyph-name="ydieresis" unicode="&#xff;" horiz-adv-x="269" d="M15 -156 C15 -156 25 -160 47 -160 C110 -160 143 -130 165 -5 L259 540 L194 540 L152 260 C145 210 139 140 139 140 L136 140 C136 140 129 210 122 260 L85 540 L15 540 L99 -3 L95 -30 C88 -80 71 -100 36 -100 C24 -100 15 -97 15 -97 L15 -156 Z M36 644 C36 616 53 600 81 600 C109 600 126 616 126 644 C126 672 109 688 81 688 C53 688 36 672 36 644 L36 644 Z M148 644 C148 616 165 600 193 600 C221 600 238 616 238 644 C238 672 221 688 193 688 C165 688 148 672 148 644 L148 644 Z " />
<glyph glyph-name="Amacron" unicode="&#x100;" horiz-adv-x="297" d="M10 0 L82 0 L101 160 L196 160 L215 0 L287 0 L198 700 L107 700 L10 0 Z M109 230 L134 450 C141 510 148 590 148 590 L152 590 C152 590 157 505 163 450 L188 230 L109 230 Z M74 775 L230 775 L230 830 L74 830 L74 775 Z " />
<glyph glyph-name="amacron" unicode="&#x101;" horiz-adv-x="275" d="M30 90 C30 24 64 -10 102 -10 C152 -10 177 38 177 38 L200 -5 L240 -5 L240 425 C240 510 200 550 139 550 C78 550 38 510 38 425 L38 373 L107 373 L107 430 C107 475 122 490 139 490 C156 490 171 475 171 430 L171 325 L144 325 C75 325 30 280 30 190 L30 90 Z M171 99 C171 99 162 50 127 50 C112 50 99 63 99 95 L99 195 C99 245 114 265 144 265 L171 265 L171 99 Z M61 615 L217 615 L217 670 L61 670 L61 615 Z " />
<glyph glyph-name="Abreve" unicode="&#x102;" horiz-adv-x="297" d="M10 0 L82 0 L101 160 L196 160 L215 0 L287 0 L198 700 L107 700 L10 0 Z M109 230 L134 450 C141 510 148 590 148 590 L152 590 C152 590 157 505 163 450 L188 230 L109 230 Z M62 840 C62 780 92 750 152 750 C212 750 242 780 242 840 L242 845 L189 845 L189 840 C189 813 177 800 152 800 C128 800 115 813 115 840 L115 845 L62 845 L62 840 Z " />
<glyph glyph-name="abreve" unicode="&#x103;" horiz-adv-x="275" d="M30 90 C30 24 64 -10 102 -10 C152 -10 177 38 177 38 L200 -5 L240 -5 L240 425 C240 510 200 550 139 550 C78 550 38 510 38 425 L38 373 L107 373 L107 430 C107 475 122 490 139 490 C156 490 171 475 171 430 L171 325 L144 325 C75 325 30 280 30 190 L30 90 Z M171 99 C171 99 162 50 127 50 C112 50 99 63 99 95 L99 195 C99 245 114 265 144 265 L171 265 L171 99 Z M49 680 C49 620 79 590 139 590 C199 590 229 620 229 680 L229 685 L176 685 L176 680 C176 653 164 640 139 640 C115 640 102 653 102 680 L102 685 L49 685 L49 680 Z " />
<glyph glyph-name="Aogonek" unicode="&#x104;" horiz-adv-x="297" d="M10 0 L82 0 L101 160 L196 160 L215 0 L231 0 C231 0 152 -36 152 -96 C152 -140 182 -167 236 -167 C271 -167 287 -158 287 -158 L287 -113 C287 -113 272 -120 252 -120 C228 -120 217 -108 217 -85 C217 -40 287 0 287 0 L198 700 L107 700 L10 0 Z M109 230 L134 450 C141 510 148 590 148 590 L152 590 C152 590 157 505 163 450 L188 230 L109 230 Z " />
<glyph glyph-name="aogonek" unicode="&#x105;" horiz-adv-x="275" d="M30 90 C30 24 64 -10 102 -10 C152 -10 177 38 177 38 L193 8 C193 8 105 -36 105 -96 C105 -140 135 -167 189 -167 C224 -167 240 -158 240 -158 L240 -113 C240 -113 225 -120 205 -120 C181 -120 170 -108 170 -85 C170 -40 240 0 240 0 L240 425 C240 510 200 550 139 550 C78 550 38 510 38 425 L38 373 L107 373 L107 430 C107 475 122 490 139 490 C156 490 171 475 171 430 L171 325 L144 325 C75 325 30 280 30 190 L30 90 Z M171 99 C171 99 162 50 127 50 C112 50 99 63 99 95 L99 195 C99 245 114 265 144 265 L171 265 L171 99 Z " />
<glyph glyph-name="Cacute" unicode="&#x106;" horiz-adv-x="292" d="M45 130 C45 35 85 -10 156 -10 C227 -10 267 35 267 130 L267 235 L194 235 L194 125 C194 72 183 55 156 55 C130 55 118 72 118 125 L118 575 C118 628 130 645 156 645 C182 645 194 628 194 575 L194 485 L267 485 L267 570 C267 665 227 710 156 710 C85 710 45 665 45 570 L45 130 Z M131 735 L181 735 L253 860 L174 860 L131 735 Z " />
<glyph glyph-name="cacute" unicode="&#x107;" horiz-adv-x="266" d="M35 115 C35 30 75 -10 138 -10 C201 -10 241 30 241 115 L241 180 L172 180 L172 110 C172 65 157 50 138 50 C119 50 104 65 104 110 L104 430 C104 475 119 490 138 490 C157 490 172 475 172 430 L172 370 L241 370 L241 425 C241 510 201 550 138 550 C75 550 35 510 35 425 L35 115 Z M113 575 L163 575 L235 700 L156 700 L113 575 Z " />
<glyph glyph-name="Ccircumflex" unicode="&#x108;" horiz-adv-x="292" d="M45 130 C45 35 85 -10 156 -10 C227 -10 267 35 267 130 L267 235 L194 235 L194 125 C194 72 183 55 156 55 C130 55 118 72 118 125 L118 575 C118 628 130 645 156 645 C182 645 194 628 194 575 L194 485 L267 485 L267 570 C267 665 227 710 156 710 C85 710 45 665 45 570 L45 130 Z M51 735 L104 735 L156 810 L208 735 L261 735 L194 860 L118 860 L51 735 Z " />
<glyph glyph-name="ccircumflex" unicode="&#x109;" horiz-adv-x="265" d="M35 115 C35 30 75 -10 138 -10 C201 -10 241 30 241 115 L241 180 L172 180 L172 110 C172 65 157 50 138 50 C119 50 104 65 104 110 L104 430 C104 475 119 490 138 490 C157 490 172 475 172 430 L172 370 L241 370 L241 425 C241 510 201 550 138 550 C75 550 35 510 35 425 L35 115 Z M35 575 L88 575 L140 650 L192 575 L245 575 L178 700 L102 700 L35 575 Z " />
<glyph glyph-name="Cdotaccent" unicode="&#x10a;" horiz-adv-x="292" d="M45 130 C45 35 85 -10 156 -10 C227 -10 267 35 267 130 L267 235 L194 235 L194 125 C194 72 183 55 156 55 C130 55 118 72 118 125 L118 575 C118 628 130 645 156 645 C182 645 194 628 194 575 L194 485 L267 485 L267 570 C267 665 227 710 156 710 C85 710 45 665 45 570 L45 130 Z M110 800 C110 772 128 755 156 755 C184 755 202 772 202 800 C202 828 184 845 156 845 C128 845 110 828 110 800 L110 800 Z " />
<glyph glyph-name="cdotaccent" unicode="&#x10b;" horiz-adv-x="266" d="M35 115 C35 30 75 -10 138 -10 C201 -10 241 30 241 115 L241 180 L172 180 L172 110 C172 65 157 50 138 50 C119 50 104 65 104 110 L104 430 C104 475 119 490 138 490 C157 490 172 475 172 430 L172 370 L241 370 L241 425 C241 510 201 550 138 550 C75 550 35 510 35 425 L35 115 Z M92 640 C92 612 110 595 138 595 C166 595 184 612 184 640 C184 668 166 685 138 685 C110 685 92 668 92 640 L92 640 Z " />
<glyph glyph-name="Ccaron" unicode="&#x10c;" horiz-adv-x="292" d="M45 130 C45 35 85 -10 156 -10 C227 -10 267 35 267 130 L267 235 L194 235 L194 125 C194 72 183 55 156 55 C130 55 118 72 118 125 L118 575 C118 628 130 645 156 645 C182 645 194 628 194 575 L194 485 L267 485 L267 570 C267 665 227 710 156 710 C85 710 45 665 45 570 L45 130 Z M118 735 L194 735 L261 860 L208 860 L156 785 L104 860 L51 860 L118 735 Z " />
<glyph glyph-name="ccaron" unicode="&#x10d;" horiz-adv-x="265" d="M35 115 C35 30 75 -10 138 -10 C201 -10 241 30 241 115 L241 180 L172 180 L172 110 C172 65 157 50 138 50 C119 50 104 65 104 110 L104 430 C104 475 119 490 138 490 C157 490 172 475 172 430 L172 370 L241 370 L241 425 C241 510 201 550 138 550 C75 550 35 510 35 425 L35 115 Z M102 575 L178 575 L245 700 L192 700 L140 625 L88 700 L35 700 L102 575 Z " />
<glyph glyph-name="Dcaron" unicode="&#x10e;" horiz-adv-x="317" d="M50 0 L146 0 C227 0 277 50 277 155 L277 545 C277 650 227 700 146 700 L50 700 L50 0 Z M123 65 L123 635 L146 635 C182 635 204 613 204 545 L204 155 C204 87 182 65 146 65 L123 65 Z M112 735 L188 735 L255 860 L202 860 L150 785 L98 860 L45 860 L112 735 Z " />
<glyph glyph-name="dcaron" unicode="&#x10f;" horiz-adv-x="336" d="M35 95 C35 24 69 -10 114 -10 C164 -10 186 36 186 36 L206 -5 L247 -5 L247 700 L178 700 L178 516 C178 516 158 550 119 550 C65 550 35 507 35 430 L35 95 Z M178 99 C178 99 169 50 134 50 C117 50 104 63 104 95 L104 430 C104 472 115 490 138 490 C171 490 178 447 178 447 L178 99 Z M311 540 C351 635 351 640 351 700 L286 700 L286 690 C286 635 286 625 271 540 L311 540 Z " />
<glyph glyph-name="Dcroat" unicode="&#x110;" horiz-adv-x="317" d="M50 0 L146 0 C227 0 277 50 277 155 L277 545 C277 650 227 700 146 700 L50 700 L50 390 L5 390 L5 320 L50 320 L50 0 Z M123 65 L123 320 L171 320 L171 390 L123 390 L123 635 L146 635 C182 635 204 613 204 545 L204 155 C204 87 182 65 146 65 L123 65 Z " />
<glyph glyph-name="dcroat" unicode="&#x111;" horiz-adv-x="287" d="M35 95 C35 24 69 -10 114 -10 C164 -10 186 36 186 36 L206 -5 L247 -5 L247 600 L277 600 L277 655 L247 655 L247 700 L178 700 L178 655 L96 655 L96 600 L178 600 L178 516 C178 516 158 550 119 550 C65 550 35 507 35 430 L35 95 Z M178 99 C178 99 169 50 134 50 C117 50 104 63 104 95 L104 430 C104 472 115 490 138 490 C171 490 178 447 178 447 L178 99 Z " />
<glyph glyph-name="Emacron" unicode="&#x112;" horiz-adv-x="255" d="M50 0 L230 0 L230 70 L123 70 L123 320 L214 320 L214 390 L123 390 L123 630 L228 630 L228 700 L50 700 L50 0 Z M61 775 L217 775 L217 830 L61 830 L61 775 Z " />
<glyph glyph-name="emacron" unicode="&#x113;" horiz-adv-x="273" d="M35 115 C35 30 75 -10 139 -10 C203 -10 243 30 243 115 L243 175 L174 175 L174 110 C174 65 159 50 139 50 C119 50 104 65 104 110 L104 250 L243 250 L243 425 C243 510 203 550 139 550 C75 550 35 510 35 425 L35 115 Z M104 310 L104 430 C104 475 119 490 139 490 C159 490 174 475 174 430 L174 310 L104 310 Z M61 615 L217 615 L217 670 L61 670 L61 615 Z " />
<glyph glyph-name="Ebreve" unicode="&#x114;" horiz-adv-x="255" d="M50 0 L230 0 L230 70 L123 70 L123 320 L214 320 L214 390 L123 390 L123 630 L228 630 L228 700 L50 700 L50 0 Z M50 840 C50 780 80 750 140 750 C200 750 230 780 230 840 L230 845 L177 845 L177 840 C177 813 165 800 140 800 C116 800 103 813 103 840 L103 845 L50 845 L50 840 Z " />
<glyph glyph-name="ebreve" unicode="&#x115;" horiz-adv-x="273" d="M35 115 C35 30 75 -10 139 -10 C203 -10 243 30 243 115 L243 175 L174 175 L174 110 C174 65 159 50 139 50 C119 50 104 65 104 110 L104 250 L243 250 L243 425 C243 510 203 550 139 550 C75 550 35 510 35 425 L35 115 Z M104 310 L104 430 C104 475 119 490 139 490 C159 490 174 475 174 430 L174 310 L104 310 Z M49 680 C49 620 79 590 139 590 C199 590 229 620 229 680 L229 685 L176 685 L176 680 C176 653 164 640 139 640 C115 640 102 653 102 680 L102 685 L49 685 L49 680 Z " />
<glyph glyph-name="Edotaccent" unicode="&#x116;" horiz-adv-x="255" d="M50 0 L230 0 L230 70 L123 70 L123 320 L214 320 L214 390 L123 390 L123 630 L228 630 L228 700 L50 700 L50 0 Z M93 800 C93 772 111 755 139 755 C167 755 185 772 185 800 C185 828 167 845 139 845 C111 845 93 828 93 800 L93 800 Z " />
<glyph glyph-name="edotaccent" unicode="&#x117;" horiz-adv-x="273" d="M35 115 C35 30 75 -10 139 -10 C203 -10 243 30 243 115 L243 175 L174 175 L174 110 C174 65 159 50 139 50 C119 50 104 65 104 110 L104 250 L243 250 L243 425 C243 510 203 550 139 550 C75 550 35 510 35 425 L35 115 Z M104 310 L104 430 C104 475 119 490 139 490 C159 490 174 475 174 430 L174 310 L104 310 Z M93 640 C93 612 111 595 139 595 C167 595 185 612 185 640 C185 668 167 685 139 685 C111 685 93 668 93 640 L93 640 Z " />
<glyph glyph-name="Eogonek" unicode="&#x118;" horiz-adv-x="255" d="M50 0 L174 0 C174 0 95 -36 95 -96 C95 -140 125 -167 179 -167 C214 -167 230 -158 230 -158 L230 -113 C230 -113 215 -120 195 -120 C171 -120 160 -108 160 -85 C160 -40 230 0 230 0 L230 70 L123 70 L123 320 L214 320 L214 390 L123 390 L123 630 L228 630 L228 700 L50 700 L50 0 Z " />
<glyph glyph-name="eogonek" unicode="&#x119;" horiz-adv-x="273" d="M221 -113 C221 -113 206 -120 186 -120 C162 -120 151 -108 151 -85 C151 -40 205 11 205 11 C229 31 243 64 243 115 L243 175 L174 175 L174 110 C174 65 159 50 139 50 C119 50 104 65 104 110 L104 250 L243 250 L243 425 C243 510 203 550 139 550 C75 550 35 510 35 425 L35 115 C35 31 73 -8 135 -10 C116 -24 86 -54 86 -96 C86 -140 116 -167 170 -167 C205 -167 221 -158 221 -158 L221 -113 Z M104 310 L104 430 C104 475 119 490 139 490 C159 490 174 475 174 430 L174 310 L104 310 Z " />
<glyph glyph-name="Ecaron" unicode="&#x11a;" horiz-adv-x="255" d="M50 0 L230 0 L230 70 L123 70 L123 320 L214 320 L214 390 L123 390 L123 630 L228 630 L228 700 L50 700 L50 0 Z M102 735 L178 735 L245 860 L192 860 L140 785 L88 860 L35 860 L102 735 Z " />
<glyph glyph-name="ecaron" unicode="&#x11b;" horiz-adv-x="275" d="M35 115 C35 30 75 -10 139 -10 C203 -10 243 30 243 115 L243 175 L174 175 L174 110 C174 65 159 50 139 50 C119 50 104 65 104 110 L104 250 L243 250 L243 425 C243 510 203 550 139 550 C75 550 35 510 35 425 L35 115 Z M104 310 L104 430 C104 475 119 490 139 490 C159 490 174 475 174 430 L174 310 L104 310 Z M102 575 L178 575 L245 700 L192 700 L140 625 L88 700 L35 700 L102 575 Z " />
<glyph glyph-name="Gcircumflex" unicode="&#x11c;" horiz-adv-x="312" d="M45 135 C45 35 90 -10 146 -10 C201 -10 227 32 227 32 L244 -5 L277 -5 L277 382 L162 382 L162 316 L204 316 L204 130 C204 72 187 55 161 55 C135 55 118 72 118 130 L118 570 C118 628 135 645 161 645 C187 645 204 628 204 570 L204 486 L277 486 L277 565 C277 665 232 710 161 710 C90 710 45 665 45 565 L45 135 Z M56 735 L109 735 L161 810 L213 735 L266 735 L199 860 L123 860 L56 735 Z " />
<glyph glyph-name="gcircumflex" unicode="&#x11d;" horiz-adv-x="297" d="M42 -35 C42 -120 82 -160 147 -160 C212 -160 252 -120 252 -35 L252 545 L212 545 L193 509 C193 509 169 550 124 550 C70 550 40 507 40 430 L40 135 C40 64 74 30 114 30 C159 30 183 71 183 71 L183 -40 C183 -85 168 -100 147 -100 C126 -100 111 -85 111 -40 L111 -5 L42 -5 L42 -35 Z M183 139 C183 139 174 90 139 90 C122 90 109 103 109 135 L109 430 C109 472 120 490 143 490 C176 490 183 447 183 447 L183 139 Z M41 575 L94 575 L146 650 L198 575 L251 575 L184 700 L108 700 L41 575 Z " />
<glyph glyph-name="Gbreve" unicode="&#x11e;" horiz-adv-x="312" d="M45 135 C45 35 90 -10 146 -10 C201 -10 227 32 227 32 L244 -5 L277 -5 L277 382 L162 382 L162 316 L204 316 L204 130 C204 72 187 55 161 55 C135 55 118 72 118 130 L118 570 C118 628 135 645 161 645 C187 645 204 628 204 570 L204 486 L277 486 L277 565 C277 665 232 710 161 710 C90 710 45 665 45 565 L45 135 Z M71 840 C71 780 101 750 161 750 C221 750 251 780 251 840 L251 845 L198 845 L198 840 C198 813 186 800 161 800 C137 800 124 813 124 840 L124 845 L71 845 L71 840 Z " />
<glyph glyph-name="gbreve" unicode="&#x11f;" horiz-adv-x="297" d="M42 -35 C42 -120 82 -160 147 -160 C212 -160 252 -120 252 -35 L252 545 L212 545 L193 509 C193 509 169 550 124 550 C70 550 40 507 40 430 L40 135 C40 64 74 30 114 30 C159 30 183 71 183 71 L183 -40 C183 -85 168 -100 147 -100 C126 -100 111 -85 111 -40 L111 -5 L42 -5 L42 -35 Z M183 139 C183 139 174 90 139 90 C122 90 109 103 109 135 L109 430 C109 472 120 490 143 490 C176 490 183 447 183 447 L183 139 Z M56 680 C56 620 86 590 146 590 C206 590 236 620 236 680 L236 685 L183 685 L183 680 C183 653 171 640 146 640 C122 640 109 653 109 680 L109 685 L56 685 L56 680 Z " />
<glyph glyph-name="Gdotaccent" unicode="&#x120;" horiz-adv-x="312" d="M45 135 C45 35 90 -10 146 -10 C201 -10 227 32 227 32 L244 -5 L277 -5 L277 382 L162 382 L162 316 L204 316 L204 130 C204 72 187 55 161 55 C135 55 118 72 118 130 L118 570 C118 628 135 645 161 645 C187 645 204 628 204 570 L204 486 L277 486 L277 565 C277 665 232 710 161 710 C90 710 45 665 45 565 L45 135 Z M115 800 C115 772 133 755 161 755 C189 755 207 772 207 800 C207 828 189 845 161 845 C133 845 115 828 115 800 L115 800 Z " />
<glyph glyph-name="gdotaccent" unicode="&#x121;" horiz-adv-x="297" d="M42 -35 C42 -120 82 -160 147 -160 C212 -160 252 -120 252 -35 L252 545 L212 545 L193 509 C193 509 169 550 124 550 C70 550 40 507 40 430 L40 135 C40 64 74 30 114 30 C159 30 183 71 183 71 L183 -40 C183 -85 168 -100 147 -100 C126 -100 111 -85 111 -40 L111 -5 L42 -5 L42 -35 Z M183 139 C183 139 174 90 139 90 C122 90 109 103 109 135 L109 430 C109 472 120 490 143 490 C176 490 183 447 183 447 L183 139 Z M100 640 C100 612 118 595 146 595 C174 595 192 612 192 640 C192 668 174 685 146 685 C118 685 100 668 100 640 L100 640 Z " />
<glyph glyph-name="Gcommaaccent" unicode="&#x122;" horiz-adv-x="312" d="M45 135 C45 35 90 -10 146 -10 C201 -10 227 32 227 32 L244 -5 L277 -5 L277 382 L162 382 L162 316 L204 316 L204 130 C204 72 187 55 161 55 C135 55 118 72 118 130 L118 570 C118 628 135 645 161 645 C187 645 204 628 204 570 L204 486 L277 486 L277 565 C277 665 232 710 161 710 C90 710 45 665 45 565 L45 135 Z M150 -195 C195 -100 195 -95 195 -35 L128 -35 L128 -45 C128 -100 130 -110 110 -195 L150 -195 Z " />
<glyph glyph-name="gcommaaccent" unicode="&#x123;" horiz-adv-x="297" d="M42 -35 C42 -120 82 -160 147 -160 C212 -160 252 -120 252 -35 L252 545 L212 545 L193 509 C193 509 169 550 124 550 C70 550 40 507 40 430 L40 135 C40 64 74 30 114 30 C159 30 183 71 183 71 L183 -40 C183 -85 168 -100 147 -100 C126 -100 111 -85 111 -40 L111 -5 L42 -5 L42 -35 Z M183 139 C183 139 174 90 139 90 C122 90 109 103 109 135 L109 430 C109 472 120 490 143 490 C176 490 183 447 183 447 L183 139 Z M180 580 L180 590 C180 645 180 655 195 740 L155 740 C115 645 115 640 115 580 L180 580 Z " />
<glyph glyph-name="Hcircumflex" unicode="&#x124;" horiz-adv-x="332" d="M50 0 L123 0 L123 320 L209 320 L209 0 L282 0 L282 700 L209 700 L209 390 L123 390 L123 700 L50 700 L50 0 Z M61 735 L114 735 L166 810 L218 735 L271 735 L204 860 L128 860 L61 735 Z " />
<glyph glyph-name="hcircumflex" unicode="&#x125;" horiz-adv-x="297" d="M45 0 L114 0 L114 441 C114 441 123 490 158 490 C175 490 188 477 188 445 L188 0 L257 0 L257 450 C257 516 223 550 183 550 C138 550 114 509 114 509 L114 700 L45 700 L45 0 Z M52 735 L105 735 L157 810 L209 735 L262 735 L195 860 L119 860 L52 735 Z " />
<glyph glyph-name="Hbar" unicode="&#x126;" horiz-adv-x="332" d="M50 0 L123 0 L123 320 L209 320 L209 0 L282 0 L282 530 L312 530 L312 600 L282 600 L282 700 L209 700 L209 600 L123 600 L123 700 L50 700 L50 600 L20 600 L20 530 L50 530 L50 0 Z M123 390 L123 530 L209 530 L209 390 L123 390 Z " />
<glyph glyph-name="hbar" unicode="&#x127;" horiz-adv-x="292" d="M40 0 L109 0 L109 441 C109 441 118 490 153 490 C170 490 183 477 183 445 L183 0 L252 0 L252 450 C252 516 218 550 178 550 C134 550 110 511 109 509 L109 600 L192 600 L192 660 L109 660 L109 700 L40 700 L40 660 L10 660 L10 600 L40 600 L40 0 Z " />
<glyph glyph-name="Imacron" unicode="&#x12a;" horiz-adv-x="171" d="M50 0 L123 0 L123 700 L50 700 L50 0 Z M10 775 L166 775 L166 830 L10 830 L10 775 Z " />
<glyph glyph-name="imacron" unicode="&#x12b;" horiz-adv-x="156" d="M44 0 L113 0 L113 540 L44 540 L44 0 Z M0 615 L156 615 L156 670 L0 670 L0 615 Z " />
<glyph glyph-name="Ibreve" unicode="&#x12c;" horiz-adv-x="170" d="M50 0 L123 0 L123 700 L50 700 L50 0 Z M-5 840 C-5 780 25 750 85 750 C145 750 175 780 175 840 L175 845 L122 845 L122 840 C122 813 110 800 85 800 C61 800 48 813 48 840 L48 845 L-5 845 L-5 840 Z " />
<glyph glyph-name="ibreve" unicode="&#x12d;" horiz-adv-x="160" d="M46 0 L115 0 L115 540 L46 540 L46 0 Z M-10 680 C-10 620 20 590 80 590 C140 590 170 620 170 680 L170 685 L117 685 L117 680 C117 653 105 640 80 640 C56 640 43 653 43 680 L43 685 L-10 685 L-10 680 Z " />
<glyph glyph-name="Iogonek" unicode="&#x12e;" horiz-adv-x="170" d="M140 -113 C140 -113 125 -120 105 -120 C81 -120 70 -108 70 -85 C70 -40 123 0 123 0 L123 700 L50 700 L50 0 L67 0 C67 0 5 -36 5 -96 C5 -140 35 -167 89 -167 C124 -167 140 -158 140 -158 L140 -113 Z " />
<glyph glyph-name="iogonek" unicode="&#x12f;" horiz-adv-x="150" d="M130 -113 C130 -113 115 -120 95 -120 C71 -120 60 -108 60 -85 C60 -40 109 0 109 0 L109 540 L40 540 L40 0 L53 0 C53 0 -5 -36 -5 -96 C-5 -140 25 -167 79 -167 C114 -167 130 -158 130 -158 L130 -113 Z M30 640 C30 612 47 595 75 595 C103 595 120 612 120 640 C120 668 103 685 75 685 C47 685 30 668 30 640 L30 640 Z " />
<glyph glyph-name="Idotaccent" unicode="&#x130;" horiz-adv-x="172" d="M50 0 L123 0 L123 700 L50 700 L50 0 Z M40 800 C40 772 58 755 86 755 C114 755 132 772 132 800 C132 828 114 845 86 845 C58 845 40 828 40 800 L40 800 Z " />
<glyph glyph-name="dotlessi" unicode="&#x131;" horiz-adv-x="159" d="M45 0 L114 0 L114 540 L45 540 L45 0 Z " />
<glyph glyph-name="uni0132" unicode="&#x132;" horiz-adv-x="333" d="M50 0 L123 0 L123 700 L50 700 L50 0 Z M135 -157 C135 -157 145 -160 165 -160 C238 -160 283 -115 283 -15 L283 700 L210 700 L210 -20 C210 -78 193 -95 165 -95 C145 -95 135 -92 135 -92 L135 -157 Z " />
<glyph glyph-name="uni0133" unicode="&#x133;" horiz-adv-x="291" d="M30 640 C30 612 47 595 75 595 C103 595 120 612 120 640 C120 668 103 685 75 685 C47 685 30 668 30 640 L30 640 Z M40 0 L109 0 L109 540 L40 540 L40 0 Z M116 -156 C116 -156 126 -160 146 -160 C210 -160 250 -120 250 -35 L250 540 L181 540 L181 -40 C181 -85 166 -100 136 -100 C126 -100 116 -98 116 -98 L116 -156 Z M171 640 C171 612 188 595 216 595 C244 595 261 612 261 640 C261 668 244 685 216 685 C188 685 171 668 171 640 L171 640 Z " />
<glyph glyph-name="Jcircumflex" unicode="&#x134;" horiz-adv-x="173" d="M-25 -157 C-25 -157 -15 -160 5 -160 C78 -160 123 -115 123 -15 L123 700 L50 700 L50 -20 C50 -78 33 -95 5 -95 C-15 -95 -25 -92 -25 -92 L-25 -157 Z M-17 735 L36 735 L88 810 L140 735 L193 735 L126 860 L50 860 L-17 735 Z " />
<glyph glyph-name="jcircumflex" unicode="&#x135;" horiz-adv-x="150" d="M-25 -156 C-25 -156 -15 -160 5 -160 C69 -160 109 -120 109 -35 L109 540 L40 540 L40 -40 C40 -85 25 -100 -5 -100 C-15 -100 -25 -98 -25 -98 L-25 -156 Z M-30 575 L23 575 L75 650 L127 575 L180 575 L113 700 L37 700 L-30 575 Z " />
<glyph glyph-name="Kcommaaccent" unicode="&#x136;" horiz-adv-x="322" d="M50 0 L123 0 L123 320 L154 320 L241 0 L317 0 L219 356 L307 700 L234 700 L154 380 L123 380 L123 700 L50 700 L50 0 Z M171 -195 C216 -100 216 -95 216 -35 L149 -35 L149 -45 C149 -100 151 -110 131 -195 L171 -195 Z " />
<glyph glyph-name="kcommaaccent" unicode="&#x137;" horiz-adv-x="284" d="M45 0 L114 0 L114 250 L135 250 L213 0 L284 0 L197 280 L281 540 L210 540 L136 305 L114 305 L114 700 L45 700 L45 0 Z M152 -195 C197 -100 197 -95 197 -35 L130 -35 L130 -45 C130 -100 132 -110 112 -195 L152 -195 Z " />
<glyph glyph-name="Lacute" unicode="&#x139;" horiz-adv-x="229" d="M50 0 L229 0 L229 70 L123 70 L123 700 L50 700 L50 0 Z M61 735 L111 735 L183 860 L104 860 L61 735 Z " />
<glyph glyph-name="lacute" unicode="&#x13a;" horiz-adv-x="159" d="M45 0 L114 0 L114 700 L45 700 L45 0 Z M52 735 L102 735 L174 860 L95 860 L52 735 Z " />
<glyph glyph-name="Lcommaaccent" unicode="&#x13b;" horiz-adv-x="229" d="M50 0 L229 0 L229 70 L123 70 L123 700 L50 700 L50 0 Z M128 -195 C173 -100 173 -95 173 -35 L106 -35 L106 -45 C106 -100 108 -110 88 -195 L128 -195 Z " />
<glyph glyph-name="lcommaaccent" unicode="&#x13c;" horiz-adv-x="161" d="M45 0 L114 0 L114 700 L45 700 L45 0 Z M70 -195 C115 -100 115 -95 115 -35 L48 -35 L48 -45 C48 -100 50 -110 30 -195 L70 -195 Z " />
<glyph glyph-name="Lcaron" unicode="&#x13d;" horiz-adv-x="235" d="M50 0 L229 0 L229 70 L123 70 L123 700 L50 700 L50 0 Z M190 540 C230 635 230 640 230 700 L165 700 L165 690 C165 635 165 625 150 540 L190 540 Z " />
<glyph glyph-name="lcaron" unicode="&#x13e;" horiz-adv-x="200" d="M45 0 L114 0 L114 700 L45 700 L45 0 Z M175 540 C215 635 215 640 215 700 L150 700 L150 690 C150 635 150 625 135 540 L175 540 Z " />
<glyph glyph-name="Ldot" unicode="&#x13f;" horiz-adv-x="251" d="M50 0 L229 0 L229 70 L123 70 L123 700 L50 700 L50 0 Z M165 365 C165 337 183 320 211 320 C239 320 257 337 257 365 C257 393 239 410 211 410 C183 410 165 393 165 365 L165 365 Z " />
<glyph glyph-name="ldot" unicode="&#x140;" horiz-adv-x="247" d="M45 0 L114 0 L114 700 L45 700 L45 0 Z M155 359 C155 331 173 314 201 314 C229 314 247 331 247 359 C247 387 229 404 201 404 C173 404 155 387 155 359 L155 359 Z " />
<glyph glyph-name="Lslash" unicode="&#x141;" horiz-adv-x="229" d="M50 0 L229 0 L229 70 L123 70 L123 327 L190 380 L190 460 L123 407 L123 700 L50 700 L50 350 L5 315 L5 235 L50 270 L50 0 Z " />
<glyph glyph-name="lslash" unicode="&#x142;" horiz-adv-x="167" d="M49 0 L118 0 L118 363 L157 398 L157 474 L118 439 L118 700 L49 700 L49 377 L10 342 L10 267 L49 302 L49 0 Z " />
<glyph glyph-name="Nacute" unicode="&#x143;" horiz-adv-x="360" d="M50 0 L119 0 L119 285 C119 385 109 535 109 535 L111 535 L230 0 L310 0 L310 700 L241 700 L241 415 C241 315 251 165 251 165 L249 165 L130 700 L50 700 L50 0 Z M160 735 L210 735 L282 860 L203 860 L160 735 Z " />
<glyph glyph-name="nacute" unicode="&#x144;" horiz-adv-x="297" d="M45 0 L114 0 L114 441 C114 441 123 490 158 490 C175 490 188 477 188 445 L188 0 L257 0 L257 450 C257 516 223 550 183 550 C133 550 108 502 108 502 L85 545 L45 545 L45 0 Z M126 575 L176 575 L248 700 L169 700 L126 575 Z " />
<glyph glyph-name="Ncommaaccent" unicode="&#x145;" horiz-adv-x="360" d="M50 0 L119 0 L119 285 C119 385 109 535 109 535 L111 535 L230 0 L310 0 L310 700 L241 700 L241 415 C241 315 251 165 251 165 L249 165 L130 700 L50 700 L50 0 Z M164 -195 C209 -100 209 -95 209 -35 L142 -35 L142 -45 C142 -100 144 -110 124 -195 L164 -195 Z " />
<glyph glyph-name="ncommaaccent" unicode="&#x146;" horiz-adv-x="297" d="M45 0 L114 0 L114 441 C114 441 123 490 158 490 C175 490 188 477 188 445 L188 0 L257 0 L257 450 C257 516 223 550 183 550 C133 550 108 502 108 502 L85 545 L45 545 L45 0 Z M140 -195 C185 -100 185 -95 185 -35 L118 -35 L118 -45 C118 -100 120 -110 100 -195 L140 -195 Z " />
<glyph glyph-name="Ncaron" unicode="&#x147;" horiz-adv-x="360" d="M50 0 L119 0 L119 285 C119 385 109 535 109 535 L111 535 L230 0 L310 0 L310 700 L241 700 L241 415 C241 315 251 165 251 165 L249 165 L130 700 L50 700 L50 0 Z M147 735 L223 735 L290 860 L237 860 L185 785 L133 860 L80 860 L147 735 Z " />
<glyph glyph-name="ncaron" unicode="&#x148;" horiz-adv-x="297" d="M45 0 L114 0 L114 441 C114 441 123 490 158 490 C175 490 188 477 188 445 L188 0 L257 0 L257 450 C257 516 223 550 183 550 C133 550 108 502 108 502 L85 545 L45 545 L45 0 Z M113 575 L189 575 L256 700 L203 700 L151 625 L99 700 L46 700 L113 575 Z " />
<glyph glyph-name="napostrophe" unicode="&#x149;" horiz-adv-x="322" d="M70 0 L139 0 L139 441 C139 441 148 490 183 490 C200 490 213 477 213 445 L213 0 L282 0 L282 450 C282 516 248 550 208 550 C158 550 133 502 133 502 L110 545 L70 545 L70 0 Z M40 535 C80 630 80 635 80 695 L15 695 L15 685 C15 630 15 620 0 535 L40 535 Z " />
<glyph glyph-name="Eng" unicode="&#x14a;" horiz-adv-x="360" d="M162 -157 C162 -157 172 -160 192 -160 C265 -160 310 -115 310 -15 L310 700 L241 700 L241 415 C241 315 251 195 251 195 L249 195 L130 700 L50 700 L50 0 L119 0 L119 285 C119 385 109 535 109 535 L111 535 L237 0 L237 -20 C237 -78 220 -95 192 -95 C172 -95 162 -92 162 -92 L162 -157 Z " />
<glyph glyph-name="eng" unicode="&#x14b;" horiz-adv-x="302" d="M123 -156 C123 -156 133 -160 153 -160 C217 -160 257 -120 257 -35 L257 450 C257 516 223 550 183 550 C133 550 108 502 108 502 L85 545 L45 545 L45 0 L114 0 L114 441 C114 441 123 490 158 490 C175 490 188 477 188 445 L188 -40 C188 -85 173 -100 143 -100 C133 -100 123 -98 123 -98 L123 -156 Z " />
<glyph glyph-name="Omacron" unicode="&#x14c;" horiz-adv-x="322" d="M204 130 C204 72 187 55 161 55 C135 55 118 72 118 130 L118 570 C118 628 135 645 161 645 C187 645 204 628 204 570 L204 130 Z M45 135 C45 35 90 -10 161 -10 C232 -10 277 35 277 135 L277 565 C277 665 232 710 161 710 C90 710 45 665 45 565 L45 135 Z M83 775 L239 775 L239 830 L83 830 L83 775 Z " />
<glyph glyph-name="omacron" unicode="&#x14d;" horiz-adv-x="278" d="M35 115 C35 30 75 -10 139 -10 C203 -10 243 30 243 115 L243 425 C243 510 203 550 139 550 C75 550 35 510 35 425 L35 115 Z M174 110 C174 65 159 50 139 50 C119 50 104 65 104 110 L104 430 C104 475 119 490 139 490 C159 490 174 475 174 430 L174 110 Z M61 615 L217 615 L217 670 L61 670 L61 615 Z " />
<glyph glyph-name="Obreve" unicode="&#x14e;" horiz-adv-x="322" d="M204 130 C204 72 187 55 161 55 C135 55 118 72 118 130 L118 570 C118 628 135 645 161 645 C187 645 204 628 204 570 L204 130 Z M45 135 C45 35 90 -10 161 -10 C232 -10 277 35 277 135 L277 565 C277 665 232 710 161 710 C90 710 45 665 45 565 L45 135 Z M71 840 C71 780 101 750 161 750 C221 750 251 780 251 840 L251 845 L198 845 L198 840 C198 813 186 800 161 800 C137 800 124 813 124 840 L124 845 L71 845 L71 840 Z " />
<glyph glyph-name="obreve" unicode="&#x14f;" horiz-adv-x="278" d="M35 115 C35 30 75 -10 139 -10 C203 -10 243 30 243 115 L243 425 C243 510 203 550 139 550 C75 550 35 510 35 425 L35 115 Z M174 110 C174 65 159 50 139 50 C119 50 104 65 104 110 L104 430 C104 475 119 490 139 490 C159 490 174 475 174 430 L174 110 Z M49 680 C49 620 79 590 139 590 C199 590 229 620 229 680 L229 685 L176 685 L176 680 C176 653 164 640 139 640 C115 640 102 653 102 680 L102 685 L49 685 L49 680 Z " />
<glyph glyph-name="Ohungarumlaut" unicode="&#x150;" horiz-adv-x="322" d="M204 130 C204 72 187 55 161 55 C135 55 118 72 118 130 L118 570 C118 628 135 645 161 645 C187 645 204 628 204 570 L204 130 Z M45 135 C45 35 90 -10 161 -10 C232 -10 277 35 277 135 L277 565 C277 665 232 710 161 710 C90 710 45 665 45 565 L45 135 Z M96 735 L138 735 L198 860 L125 860 L96 735 Z M183 735 L224 735 L287 860 L215 860 L183 735 Z " />
<glyph glyph-name="ohungarumlaut" unicode="&#x151;" horiz-adv-x="278" d="M35 115 C35 30 75 -10 139 -10 C203 -10 243 30 243 115 L243 425 C243 510 203 550 139 550 C75 550 35 510 35 425 L35 115 Z M174 110 C174 65 159 50 139 50 C119 50 104 65 104 110 L104 430 C104 475 119 490 139 490 C159 490 174 475 174 430 L174 110 Z M72 575 L114 575 L174 700 L101 700 L72 575 Z M159 575 L200 575 L263 700 L191 700 L159 575 Z " />
<glyph glyph-name="OE" unicode="&#x152;" horiz-adv-x="388" d="M45 155 C45 50 95 0 176 0 L363 0 L363 70 L261 70 L261 320 L347 320 L347 390 L261 390 L261 630 L361 630 L361 700 L176 700 C95 700 45 650 45 545 L45 155 Z M176 65 C140 65 118 87 118 155 L118 545 C118 613 140 635 176 635 L188 635 L188 65 L176 65 Z " />
<glyph glyph-name="oe" unicode="&#x153;" horiz-adv-x="412" d="M35 115 C35 30 75 -10 139 -10 C189 -10 208 23 208 23 C208 23 228 -10 278 -10 C342 -10 382 30 382 115 L382 175 L313 175 L313 110 C313 65 298 50 278 50 C258 50 243 65 243 110 L243 250 L382 250 L382 425 C382 510 342 550 278 550 C228 550 208 516 208 516 C208 516 189 550 139 550 C75 550 35 510 35 425 L35 115 Z M174 110 C174 65 159 50 139 50 C119 50 104 65 104 110 L104 430 C104 475 119 490 139 490 C159 490 174 475 174 430 L174 110 Z M243 310 L243 430 C243 475 258 490 278 490 C298 490 313 475 313 430 L313 310 L243 310 Z " />
<glyph glyph-name="Racute" unicode="&#x154;" horiz-adv-x="314" d="M50 0 L123 0 L123 295 L156 295 L213 0 L289 0 L227 319 C227 319 277 350 277 450 L277 545 C277 650 227 700 146 700 L50 700 L50 0 Z M123 360 L123 635 L146 635 C182 635 204 613 204 545 L204 450 C204 382 182 360 146 360 L123 360 Z M129 735 L179 735 L251 860 L172 860 L129 735 Z " />
<glyph glyph-name="racute" unicode="&#x155;" horiz-adv-x="200" d="M45 0 L114 0 L114 420 C114 420 124 470 179 470 C185 470 195 468 195 468 L200 548 C200 548 193 550 180 550 C133 550 108 502 108 502 L85 545 L45 545 L45 0 Z M93 575 L143 575 L215 700 L136 700 L93 575 Z " />
<glyph glyph-name="Rcommaaccent" unicode="&#x156;" horiz-adv-x="314" d="M50 0 L123 0 L123 295 L156 295 L213 0 L289 0 L227 319 C227 319 277 350 277 450 L277 545 C277 650 227 700 146 700 L50 700 L50 0 Z M123 360 L123 635 L146 635 C182 635 204 613 204 545 L204 450 C204 382 182 360 146 360 L123 360 Z M157 -195 C202 -100 202 -95 202 -35 L135 -35 L135 -45 C135 -100 137 -110 117 -195 L157 -195 Z " />
<glyph glyph-name="rcommaaccent" unicode="&#x157;" horiz-adv-x="202" d="M45 0 L114 0 L114 420 C114 420 124 470 179 470 C185 470 195 468 195 468 L200 548 C200 548 193 550 180 550 C133 550 108 502 108 502 L85 545 L45 545 L45 0 Z M70 -195 C115 -100 115 -95 115 -35 L48 -35 L48 -45 C48 -100 50 -110 30 -195 L70 -195 Z " />
<glyph glyph-name="Rcaron" unicode="&#x158;" horiz-adv-x="314" d="M50 0 L123 0 L123 295 L156 295 L213 0 L289 0 L227 319 C227 319 277 350 277 450 L277 545 C277 650 227 700 146 700 L50 700 L50 0 Z M123 360 L123 635 L146 635 C182 635 204 613 204 545 L204 450 C204 382 182 360 146 360 L123 360 Z M117 735 L193 735 L260 860 L207 860 L155 785 L103 860 L50 860 L117 735 Z " />
<glyph glyph-name="rcaron" unicode="&#x159;" horiz-adv-x="200" d="M45 0 L114 0 L114 420 C114 420 124 470 179 470 C185 470 195 468 195 468 L200 548 C200 548 193 550 180 550 C133 550 108 502 108 502 L85 545 L45 545 L45 0 Z M82 575 L158 575 L225 700 L172 700 L120 625 L68 700 L15 700 L82 575 Z " />
<glyph glyph-name="Sacute" unicode="&#x15a;" horiz-adv-x="272" d="M25 130 C25 35 65 -10 136 -10 C207 -10 247 35 247 130 C247 225 236 260 170 375 C110 480 103 495 103 575 C103 628 115 645 138 645 C161 645 173 628 173 575 L173 490 L246 490 L246 570 C246 665 206 710 138 710 C70 710 30 665 30 570 C30 480 42 446 105 335 C167 225 174 210 174 125 C174 72 162 55 136 55 C109 55 98 72 98 125 L98 225 L25 225 L25 130 Z M113 735 L163 735 L235 860 L156 860 L113 735 Z " />
<glyph glyph-name="sacute" unicode="&#x15b;" horiz-adv-x="251" d="M25 115 C25 30 65 -10 125 -10 C185 -10 225 30 225 115 C225 195 216 227 158 295 C105 357 99 365 99 435 C99 475 109 490 128 490 C147 490 157 475 157 435 L157 375 L226 375 L226 430 C226 510 191 550 128 550 C65 550 30 510 30 430 C30 355 38 322 97 255 C151 194 156 185 156 110 C156 65 141 50 125 50 C109 50 94 65 94 110 L94 175 L25 175 L25 115 Z M103 575 L153 575 L225 700 L146 700 L103 575 Z " />
<glyph glyph-name="Scircumflex" unicode="&#x15c;" horiz-adv-x="272" d="M25 130 C25 35 65 -10 136 -10 C207 -10 247 35 247 130 C247 225 236 260 170 375 C110 480 103 495 103 575 C103 628 115 645 138 645 C161 645 173 628 173 575 L173 490 L246 490 L246 570 C246 665 206 710 138 710 C70 710 30 665 30 570 C30 480 42 446 105 335 C167 225 174 210 174 125 C174 72 162 55 136 55 C109 55 98 72 98 125 L98 225 L25 225 L25 130 Z M33 735 L86 735 L138 810 L190 735 L243 735 L176 860 L100 860 L33 735 Z " />
<glyph glyph-name="scircumflex" unicode="&#x15d;" horiz-adv-x="250" d="M25 115 C25 30 65 -10 125 -10 C185 -10 225 30 225 115 C225 195 216 227 158 295 C105 357 99 365 99 435 C99 475 109 490 128 490 C147 490 157 475 157 435 L157 375 L226 375 L226 430 C226 510 191 550 128 550 C65 550 30 510 30 430 C30 355 38 322 97 255 C151 194 156 185 156 110 C156 65 141 50 125 50 C109 50 94 65 94 110 L94 175 L25 175 L25 115 Z M25 575 L78 575 L130 650 L182 575 L235 575 L168 700 L92 700 L25 575 Z " />
<glyph glyph-name="Scedilla" unicode="&#x15e;" horiz-adv-x="272" d="M71 -159 C71 -159 89 -167 119 -167 C174 -167 202 -141 202 -97 C202 -39 145 -34 145 -34 L155 -8 C214 -1 247 44 247 130 C247 225 236 260 170 375 C110 480 103 495 103 575 C103 628 115 645 138 645 C161 645 173 628 173 575 L173 490 L246 490 L246 570 C246 665 206 710 138 710 C70 710 30 665 30 570 C30 480 42 446 105 335 C167 225 174 210 174 125 C174 72 162 55 136 55 C109 55 98 72 98 125 L98 225 L25 225 L25 130 C25 50 53 6 103 -6 L80 -69 L106 -69 C134 -69 147 -80 147 -96 C147 -112 134 -123 106 -123 C86 -123 71 -118 71 -118 L71 -159 Z " />
<glyph glyph-name="scedilla" unicode="&#x15f;" horiz-adv-x="251" d="M60 -159 C60 -159 78 -167 108 -167 C163 -167 191 -141 191 -97 C191 -39 134 -34 134 -34 L144 -8 C193 0 225 39 225 115 C225 195 216 227 158 295 C105 357 99 365 99 435 C99 475 109 490 128 490 C147 490 157 475 157 435 L157 375 L226 375 L226 430 C226 510 191 550 128 550 C65 550 30 510 30 430 C30 355 38 322 97 255 C151 194 156 185 156 110 C156 65 141 50 125 50 C109 50 94 65 94 110 L94 175 L25 175 L25 115 C25 46 51 7 92 -5 L69 -69 L95 -69 C123 -69 136 -80 136 -96 C136 -112 123 -123 95 -123 C75 -123 60 -118 60 -118 L60 -159 Z " />
<glyph glyph-name="Scaron" unicode="&#x160;" horiz-adv-x="272" d="M25 130 C25 35 65 -10 136 -10 C207 -10 247 35 247 130 C247 225 236 260 170 375 C110 480 103 495 103 575 C103 628 115 645 138 645 C161 645 173 628 173 575 L173 490 L246 490 L246 570 C246 665 206 710 138 710 C70 710 30 665 30 570 C30 480 42 446 105 335 C167 225 174 210 174 125 C174 72 162 55 136 55 C109 55 98 72 98 125 L98 225 L25 225 L25 130 Z M100 735 L176 735 L243 860 L190 860 L138 785 L86 860 L33 860 L100 735 Z " />
<glyph glyph-name="scaron" unicode="&#x161;" horiz-adv-x="250" d="M25 115 C25 30 65 -10 125 -10 C185 -10 225 30 225 115 C225 195 216 227 158 295 C105 357 99 365 99 435 C99 475 109 490 128 490 C147 490 157 475 157 435 L157 375 L226 375 L226 430 C226 510 191 550 128 550 C65 550 30 510 30 430 C30 355 38 322 97 255 C151 194 156 185 156 110 C156 65 141 50 125 50 C109 50 94 65 94 110 L94 175 L25 175 L25 115 Z M92 575 L168 575 L235 700 L182 700 L130 625 L78 700 L25 700 L92 575 Z " />
<glyph glyph-name="uni0162" unicode="&#x162;" horiz-adv-x="231" d="M50 -159 C50 -159 68 -167 98 -167 C153 -167 181 -141 181 -97 C181 -39 124 -34 124 -34 L142 0 L152 0 L152 630 L226 630 L226 700 L5 700 L5 630 L79 630 L79 0 L89 0 L59 -69 L85 -69 C113 -69 126 -80 126 -96 C126 -112 113 -123 85 -123 C65 -123 50 -118 50 -118 L50 -159 Z " />
<glyph glyph-name="uni0163" unicode="&#x163;" horiz-adv-x="192" d="M56 -159 C56 -159 74 -167 104 -167 C159 -167 187 -141 187 -97 C187 -39 130 -34 130 -34 L141 -4 C141 -4 144 -5 152 -5 C172 -5 182 1 182 1 L182 58 C182 58 173 55 162 55 C132 55 117 70 117 115 L117 480 L183 480 L183 540 L117 540 L117 648 L76 648 L49 540 L10 518 L10 480 L48 480 L48 120 C48 64 65 28 94 10 L65 -69 L91 -69 C119 -69 132 -80 132 -96 C132 -112 119 -123 91 -123 C71 -123 56 -118 56 -118 L56 -159 Z " />
<glyph glyph-name="Tcaron" unicode="&#x164;" horiz-adv-x="231" d="M79 0 L152 0 L152 630 L226 630 L226 700 L5 700 L5 630 L79 630 L79 0 Z M77 735 L153 735 L220 860 L167 860 L115 785 L63 860 L10 860 L77 735 Z " />
<glyph glyph-name="tcaron" unicode="&#x165;" horiz-adv-x="205" d="M184 560 C220 640 220 645 220 700 L160 700 L160 690 C160 640 160 630 145 560 L184 560 Z M48 120 C48 35 88 -5 152 -5 C172 -5 182 1 182 1 L182 58 C182 58 173 55 162 55 C132 55 117 70 117 115 L117 480 L183 480 L183 540 L117 540 L117 648 L76 648 L49 540 L10 518 L10 480 L48 480 L48 120 Z " />
<glyph glyph-name="Tbar" unicode="&#x166;" horiz-adv-x="231" d="M79 0 L152 0 L152 310 L202 310 L202 380 L152 380 L152 630 L226 630 L226 700 L5 700 L5 630 L79 630 L79 380 L29 380 L29 310 L79 310 L79 0 Z " />
<glyph glyph-name="tbar" unicode="&#x167;" horiz-adv-x="193" d="M48 120 C48 35 88 -5 152 -5 C172 -5 182 1 182 1 L182 58 C182 58 173 55 162 55 C132 55 117 70 117 115 L117 265 L183 265 L183 325 L117 325 L117 480 L183 480 L183 540 L117 540 L117 648 L76 648 L49 540 L10 518 L10 480 L48 480 L48 325 L10 325 L10 265 L48 265 L48 120 Z " />
<glyph glyph-name="Umacron" unicode="&#x16a;" horiz-adv-x="316" d="M45 135 C45 35 90 -10 158 -10 C226 -10 271 35 271 135 L271 700 L198 700 L198 130 C198 72 181 55 158 55 C135 55 118 72 118 130 L118 700 L45 700 L45 135 Z M80 775 L236 775 L236 830 L80 830 L80 775 Z " />
<glyph glyph-name="umacron" unicode="&#x16b;" horiz-adv-x="302" d="M45 90 C45 24 79 -10 119 -10 C169 -10 194 38 194 38 L217 -5 L257 -5 L257 540 L188 540 L188 99 C188 99 179 50 144 50 C127 50 114 63 114 95 L114 540 L45 540 L45 90 Z M73 615 L229 615 L229 670 L73 670 L73 615 Z " />
<glyph glyph-name="Ubreve" unicode="&#x16c;" horiz-adv-x="316" d="M45 135 C45 35 90 -10 158 -10 C226 -10 271 35 271 135 L271 700 L198 700 L198 130 C198 72 181 55 158 55 C135 55 118 72 118 130 L118 700 L45 700 L45 135 Z M68 840 C68 780 98 750 158 750 C218 750 248 780 248 840 L248 845 L195 845 L195 840 C195 813 183 800 158 800 C134 800 121 813 121 840 L121 845 L68 845 L68 840 Z " />
<glyph glyph-name="ubreve" unicode="&#x16d;" horiz-adv-x="302" d="M45 90 C45 24 79 -10 119 -10 C169 -10 194 38 194 38 L217 -5 L257 -5 L257 540 L188 540 L188 99 C188 99 179 50 144 50 C127 50 114 63 114 95 L114 540 L45 540 L45 90 Z M61 680 C61 620 91 590 151 590 C211 590 241 620 241 680 L241 685 L188 685 L188 680 C188 653 176 640 151 640 C127 640 114 653 114 680 L114 685 L61 685 L61 680 Z " />
<glyph glyph-name="Uring" unicode="&#x16e;" horiz-adv-x="316" d="M45 135 C45 35 90 -10 158 -10 C226 -10 271 35 271 135 L271 700 L198 700 L198 130 C198 72 181 55 158 55 C135 55 118 72 118 130 L118 700 L45 700 L45 135 Z M122 802 C122 824 135 837 158 837 C181 837 194 824 194 802 C194 780 181 767 158 767 C135 767 122 780 122 802 L122 802 Z M76 802 C76 755 106 725 158 725 C210 725 240 755 240 802 C240 849 210 879 158 879 C106 879 76 849 76 802 L76 802 Z " />
<glyph glyph-name="uring" unicode="&#x16f;" horiz-adv-x="302" d="M45 90 C45 24 79 -10 119 -10 C169 -10 194 38 194 38 L217 -5 L257 -5 L257 540 L188 540 L188 99 C188 99 179 50 144 50 C127 50 114 63 114 95 L114 540 L45 540 L45 90 Z M115 642 C115 664 128 677 151 677 C174 677 187 664 187 642 C187 620 174 607 151 607 C128 607 115 620 115 642 L115 642 Z M69 642 C69 595 99 565 151 565 C203 565 233 595 233 642 C233 689 203 719 151 719 C99 719 69 689 69 642 L69 642 Z " />
<glyph glyph-name="Uhungarumlaut" unicode="&#x170;" horiz-adv-x="316" d="M45 135 C45 35 90 -10 158 -10 C226 -10 271 35 271 135 L271 700 L198 700 L198 130 C198 72 181 55 158 55 C135 55 118 72 118 130 L118 700 L45 700 L45 135 Z M95 735 L137 735 L197 860 L124 860 L95 735 Z M182 735 L223 735 L286 860 L214 860 L182 735 Z " />
<glyph glyph-name="uhungarumlaut" unicode="&#x171;" horiz-adv-x="302" d="M45 90 C45 24 79 -10 119 -10 C169 -10 194 38 194 38 L217 -5 L257 -5 L257 540 L188 540 L188 99 C188 99 179 50 144 50 C127 50 114 63 114 95 L114 540 L45 540 L45 90 Z M86 575 L128 575 L188 700 L115 700 L86 575 Z M173 575 L214 575 L277 700 L205 700 L173 575 Z " />
<glyph glyph-name="Uogonek" unicode="&#x172;" horiz-adv-x="316" d="M221 -113 C221 -113 206 -120 186 -120 C162 -120 151 -108 151 -85 C151 -40 217 5 217 5 C250 25 271 66 271 135 L271 700 L198 700 L198 130 C198 72 181 55 158 55 C135 55 118 72 118 130 L118 700 L45 700 L45 135 C45 40 85 -5 147 -9 C124 -24 86 -54 86 -96 C86 -140 116 -167 170 -167 C205 -167 221 -158 221 -158 L221 -113 Z " />
<glyph glyph-name="uogonek" unicode="&#x173;" horiz-adv-x="302" d="M45 90 C45 24 79 -10 119 -10 C169 -10 194 38 194 38 L210 8 C210 8 122 -36 122 -96 C122 -140 152 -167 206 -167 C241 -167 257 -158 257 -158 L257 -113 C257 -113 242 -120 222 -120 C198 -120 187 -108 187 -85 C187 -40 257 0 257 0 L257 540 L188 540 L188 99 C188 99 179 50 144 50 C127 50 114 63 114 95 L114 540 L45 540 L45 90 Z " />
<glyph glyph-name="Wcircumflex" unicode="&#x174;" horiz-adv-x="450" d="M82 0 L172 0 L214 420 C220 480 225 560 225 560 L228 560 C228 560 233 480 237 420 L269 0 L354 0 L435 700 L365 700 L323 275 C318 220 312 140 312 140 L309 140 L267 700 L190 700 L135 140 L132 140 C132 140 129 210 123 275 L86 700 L15 700 L82 0 Z M123 735 L176 735 L228 810 L280 735 L333 735 L266 860 L190 860 L123 735 Z " />
<glyph glyph-name="wcircumflex" unicode="&#x175;" horiz-adv-x="413" d="M70 0 L152 0 L192 300 C202 375 204 420 204 420 L207 420 C207 420 210 375 217 300 L245 0 L327 0 L403 540 L337 540 L300 240 C293 185 287 110 287 110 L284 110 C284 110 281 185 275 240 L243 540 L173 540 L133 240 C126 185 119 110 119 110 L116 110 C116 110 113 185 108 240 L79 540 L10 540 L70 0 Z M103 575 L156 575 L208 650 L260 575 L313 575 L246 700 L170 700 L103 575 Z " />
<glyph glyph-name="Ycircumflex" unicode="&#x176;" horiz-adv-x="284" d="M101 0 L174 0 L174 264 L279 700 L208 700 L143 384 L140 384 L82 700 L5 700 L101 264 L101 0 Z M40 735 L93 735 L145 810 L197 735 L250 735 L183 860 L107 860 L40 735 Z " />
<glyph glyph-name="ycircumflex" unicode="&#x177;" horiz-adv-x="269" d="M15 -156 C15 -156 25 -160 47 -160 C110 -160 143 -130 165 -5 L259 540 L194 540 L152 260 C145 210 139 140 139 140 L136 140 C136 140 129 210 122 260 L85 540 L15 540 L99 -3 L95 -30 C88 -80 71 -100 36 -100 C24 -100 15 -97 15 -97 L15 -156 Z M32 575 L85 575 L137 650 L189 575 L242 575 L175 700 L99 700 L32 575 Z " />
<glyph glyph-name="Ydieresis" unicode="&#x178;" horiz-adv-x="284" d="M101 0 L174 0 L174 264 L279 700 L208 700 L143 384 L140 384 L82 700 L5 700 L101 264 L101 0 Z M44 804 C44 776 61 760 89 760 C117 760 134 776 134 804 C134 832 117 848 89 848 C61 848 44 832 44 804 L44 804 Z M156 804 C156 776 173 760 201 760 C229 760 246 776 246 804 C246 832 229 848 201 848 C173 848 156 832 156 804 L156 804 Z " />
<glyph glyph-name="Zacute" unicode="&#x179;" horiz-adv-x="227" d="M10 0 L209 0 L209 70 L83 70 L212 630 L212 700 L20 700 L20 630 L139 630 L10 70 L10 0 Z M90 735 L140 735 L212 860 L133 860 L90 735 Z " />
<glyph glyph-name="zacute" unicode="&#x17a;" horiz-adv-x="205" d="M15 0 L190 0 L190 65 L83 65 L189 475 L189 540 L20 540 L20 475 L121 475 L15 65 L15 0 Z M78 575 L128 575 L200 700 L121 700 L78 575 Z " />
<glyph glyph-name="Zdotaccent" unicode="&#x17b;" horiz-adv-x="227" d="M10 0 L209 0 L209 70 L83 70 L212 630 L212 700 L20 700 L20 630 L139 630 L10 70 L10 0 Z M70 800 C70 772 88 755 116 755 C144 755 162 772 162 800 C162 828 144 845 116 845 C88 845 70 828 70 800 L70 800 Z " />
<glyph glyph-name="zdotaccent" unicode="&#x17c;" horiz-adv-x="205" d="M15 0 L190 0 L190 65 L83 65 L189 475 L189 540 L20 540 L20 475 L121 475 L15 65 L15 0 Z M58 640 C58 612 76 595 104 595 C132 595 150 612 150 640 C150 668 132 685 104 685 C76 685 58 668 58 640 L58 640 Z " />
<glyph glyph-name="Zcaron" unicode="&#x17d;" horiz-adv-x="227" d="M10 0 L209 0 L209 70 L83 70 L212 630 L212 700 L20 700 L20 630 L139 630 L10 70 L10 0 Z M79 735 L155 735 L222 860 L169 860 L117 785 L65 860 L12 860 L79 735 Z " />
<glyph glyph-name="zcaron" unicode="&#x17e;" horiz-adv-x="205" d="M15 0 L190 0 L190 65 L83 65 L189 475 L189 540 L20 540 L20 475 L121 475 L15 65 L15 0 Z M67 575 L143 575 L210 700 L157 700 L105 625 L53 700 L0 700 L67 575 Z " />
<glyph glyph-name="uni018F" unicode="&#x18f;" horiz-adv-x="317" d="M40 135 C40 35 85 -10 156 -10 C227 -10 272 35 272 135 L272 565 C272 665 227 710 156 710 C85 710 40 665 40 565 L40 490 L113 490 L113 570 C113 628 130 645 156 645 C182 645 199 628 199 570 L199 395 L40 395 L40 135 Z M199 130 C199 72 182 55 156 55 C130 55 113 72 113 130 L113 325 L199 325 L199 130 Z " />
<glyph glyph-name="florin" unicode="&#x192;" horiz-adv-x="230" d="M-25 -155 C-25 -155 -10 -160 10 -160 C74 -160 117 -120 123 -35 L157 450 L232 450 L232 510 L161 510 L166 580 C169 625 185 640 215 640 C230 640 245 637 245 637 L245 696 C245 696 229 700 209 700 C145 700 103 660 96 575 L91 510 L30 488 L30 450 L88 450 L53 -40 C50 -85 34 -100 4 -100 C-11 -100 -25 -97 -25 -97 L-25 -155 Z " />
<glyph glyph-name="Aringacute" unicode="&#x1fa;" horiz-adv-x="297" d="M10 0 L82 0 L101 160 L196 160 L215 0 L287 0 L201 673 C222 686 234 709 234 738 C234 785 204 815 152 815 C100 815 70 785 70 738 C70 708 81 686 103 673 L10 0 Z M109 230 L134 450 C141 510 148 590 148 590 L152 590 C152 590 157 505 163 450 L188 230 L109 230 Z M127 830 L177 830 L249 910 L170 910 L127 830 Z M116 738 C116 760 129 773 152 773 C175 773 188 760 188 738 C188 716 175 703 152 703 C129 703 116 716 116 738 L116 738 Z " />
<glyph glyph-name="aringacute" unicode="&#x1fb;" horiz-adv-x="275" d="M30 90 C30 24 64 -10 102 -10 C152 -10 177 38 177 38 L200 -5 L240 -5 L240 425 C240 510 200 550 139 550 C78 550 38 510 38 425 L38 373 L107 373 L107 430 C107 475 122 490 139 490 C156 490 171 475 171 430 L171 325 L144 325 C75 325 30 280 30 190 L30 90 Z M171 99 C171 99 162 50 127 50 C112 50 99 63 99 95 L99 195 C99 245 114 265 144 265 L171 265 L171 99 Z M108 635 C108 653 121 663 139 663 C157 663 170 653 170 635 C170 617 157 607 139 607 C121 607 108 617 108 635 L108 635 Z M62 635 C62 592 92 565 139 565 C186 565 216 592 216 635 C216 678 186 705 139 705 C92 705 62 678 62 635 L62 635 Z M114 720 L164 720 L236 800 L157 800 L114 720 Z " />
<glyph glyph-name="AEacute" unicode="&#x1fc;" horiz-adv-x="372" d="M-20 0 L52 0 L83 160 L167 160 L167 0 L347 0 L347 70 L240 70 L240 320 L331 320 L331 390 L240 390 L240 630 L345 630 L345 700 L131 700 L-20 0 Z M96 230 L137 445 C151 515 164 605 164 605 L167 605 L167 230 L96 230 Z M185 735 L235 735 L307 860 L228 860 L185 735 Z " />
<glyph glyph-name="aeacute" unicode="&#x1fd;" horiz-adv-x="409" d="M30 115 C30 30 70 -10 125 -10 C180 -10 200 19 200 19 C200 19 220 -10 275 -10 C339 -10 379 30 379 115 L379 175 L310 175 L310 110 C310 65 295 50 275 50 C255 50 240 65 240 110 L240 255 L379 255 L379 425 C379 510 339 550 275 550 C229 550 205 526 205 526 C205 526 184 550 139 550 C78 550 38 510 38 425 L38 373 L107 373 L107 430 C107 475 122 490 139 490 C156 490 171 475 171 430 L171 315 L144 315 C75 315 30 270 30 180 L30 115 Z M171 110 C171 65 156 50 135 50 C114 50 99 65 99 110 L99 185 C99 235 114 255 144 255 L171 255 L171 110 Z M240 315 L240 430 C240 475 255 490 275 490 C295 490 310 475 310 430 L310 315 L240 315 Z M180 575 L230 575 L302 700 L223 700 L180 575 Z " />
<glyph glyph-name="Oslashacute" unicode="&#x1fe;" horiz-adv-x="322" d="M51 -40 L94 -40 L104 3 C120 -5 140 -10 161 -10 C232 -10 277 35 277 135 L277 565 C277 608 268 640 253 664 L271 740 L228 740 L218 697 C202 705 182 710 161 710 C90 710 45 665 45 565 L45 135 C45 92 54 60 69 36 L51 -40 Z M207 130 C207 72 190 55 161 55 C143 55 129 62 122 82 L205 450 L207 450 L207 130 Z M115 250 L115 570 C115 628 132 645 161 645 C179 645 193 638 200 618 L117 250 L115 250 Z M135 735 L185 735 L257 860 L178 860 L135 735 Z " />
<glyph glyph-name="oslashacute" unicode="&#x1ff;" horiz-adv-x="278" d="M25 -35 L65 -35 L78 7 C94 -4 115 -10 139 -10 C203 -10 243 30 243 115 L243 425 C243 455 238 479 229 498 L253 575 L213 575 L200 533 C184 544 163 550 139 550 C75 550 35 510 35 425 L35 115 C35 85 40 61 49 42 L25 -35 Z M100 210 L100 430 C100 475 116 490 139 490 C157 490 171 481 176 455 L102 210 L100 210 Z M178 110 C178 65 162 50 139 50 C121 50 107 59 102 85 L176 330 L178 330 L178 110 Z M114 575 L164 575 L236 700 L157 700 L114 575 Z " />
<glyph glyph-name="Scommaaccent" unicode="&#x218;" horiz-adv-x="272" d="M25 130 C25 35 65 -10 136 -10 C207 -10 247 35 247 130 C247 225 236 260 170 375 C110 480 103 495 103 575 C103 628 115 645 138 645 C161 645 173 628 173 575 L173 490 L246 490 L246 570 C246 665 206 710 138 710 C70 710 30 665 30 570 C30 480 42 446 105 335 C167 225 174 210 174 125 C174 72 162 55 136 55 C109 55 98 72 98 125 L98 225 L25 225 L25 130 Z M125 -195 C170 -100 170 -95 170 -35 L103 -35 L103 -45 C103 -100 105 -110 85 -195 L125 -195 Z " />
<glyph glyph-name="scommaaccent" unicode="&#x219;" horiz-adv-x="251" d="M25 115 C25 30 65 -10 125 -10 C185 -10 225 30 225 115 C225 195 216 227 158 295 C105 357 99 365 99 435 C99 475 109 490 128 490 C147 490 157 475 157 435 L157 375 L226 375 L226 430 C226 510 191 550 128 550 C65 550 30 510 30 430 C30 355 38 322 97 255 C151 194 156 185 156 110 C156 65 141 50 125 50 C109 50 94 65 94 110 L94 175 L25 175 L25 115 Z M114 -195 C159 -100 159 -95 159 -35 L92 -35 L92 -45 C92 -100 94 -110 74 -195 L114 -195 Z " />
<glyph glyph-name="uni021A" unicode="&#x21a;" horiz-adv-x="231" d="M79 0 L152 0 L152 630 L226 630 L226 700 L5 700 L5 630 L79 630 L79 0 Z M104 -195 C149 -100 149 -95 149 -35 L82 -35 L82 -45 C82 -100 84 -110 64 -195 L104 -195 Z " />
<glyph glyph-name="uni021B" unicode="&#x21b;" horiz-adv-x="193" d="M48 120 C48 35 88 -5 152 -5 C172 -5 182 1 182 1 L182 58 C182 58 173 55 162 55 C132 55 117 70 117 115 L117 480 L183 480 L183 540 L117 540 L117 648 L76 648 L49 540 L10 518 L10 480 L48 480 L48 120 Z M102 -195 C147 -100 147 -95 147 -35 L80 -35 L80 -45 C80 -100 82 -110 62 -195 L102 -195 Z " />
<glyph glyph-name="uni0232" unicode="&#x232;" horiz-adv-x="284" d="M101 0 L174 0 L174 264 L279 700 L208 700 L143 384 L140 384 L82 700 L5 700 L101 264 L101 0 Z M67 775 L223 775 L223 830 L67 830 L67 775 Z " />
<glyph glyph-name="uni0233" unicode="&#x233;" horiz-adv-x="269" d="M15 -156 C15 -156 25 -160 47 -160 C110 -160 143 -130 165 -5 L259 540 L194 540 L152 260 C145 210 139 140 139 140 L136 140 C136 140 129 210 122 260 L85 540 L15 540 L99 -3 L95 -30 C88 -80 71 -100 36 -100 C24 -100 15 -97 15 -97 L15 -156 Z M59 615 L215 615 L215 670 L59 670 L59 615 Z " />
<glyph glyph-name="uni0244" unicode="&#x244;" horiz-adv-x="326" d="M50 135 C50 35 95 -10 163 -10 C231 -10 276 35 276 135 L276 340 L306 340 L306 410 L276 410 L276 700 L203 700 L203 410 L123 410 L123 700 L50 700 L50 410 L20 410 L20 340 L50 340 L50 135 Z M203 130 C203 72 186 55 163 55 C140 55 123 72 123 130 L123 340 L203 340 L203 130 Z " />
<glyph glyph-name="uni0259" unicode="&#x259;" horiz-adv-x="278" d="M35 115 C35 30 75 -10 139 -10 C203 -10 243 30 243 115 L243 425 C243 510 203 550 139 550 C75 550 35 510 35 425 L35 365 L104 365 L104 430 C104 475 119 490 139 490 C159 490 174 475 174 430 L174 290 L35 290 L35 115 Z M174 110 C174 65 159 50 139 50 C119 50 104 65 104 110 L104 230 L174 230 L174 110 Z " />
<glyph glyph-name="uni0289" unicode="&#x289;" horiz-adv-x="292" d="M40 90 C40 24 74 -10 114 -10 C164 -10 189 38 189 38 L212 -5 L252 -5 L252 270 L277 270 L277 330 L252 330 L252 540 L183 540 L183 330 L109 330 L109 540 L40 540 L40 330 L15 330 L15 270 L40 270 L40 90 Z M183 99 C183 99 174 50 139 50 C122 50 109 63 109 95 L109 270 L183 270 L183 99 Z " />
<glyph glyph-name="uni02BC" unicode="&#x2bc;" horiz-adv-x="100" d="M50 535 C90 630 90 635 90 695 L25 695 L25 685 C25 630 25 620 10 535 L50 535 Z " />
<glyph glyph-name="circumflex" unicode="&#x2c6;" horiz-adv-x="230" d="M10 575 L63 575 L115 650 L167 575 L220 575 L153 700 L77 700 L10 575 Z " />
<glyph glyph-name="caron" unicode="&#x2c7;" horiz-adv-x="230" d="M77 575 L153 575 L220 700 L167 700 L115 625 L63 700 L10 700 L77 575 Z " />
<glyph glyph-name="breve" unicode="&#x2d8;" horiz-adv-x="200" d="M10 680 C10 620 40 590 100 590 C160 590 190 620 190 680 L190 685 L137 685 L137 680 C137 653 125 640 100 640 C76 640 63 653 63 680 L63 685 L10 685 L10 680 Z " />
<glyph glyph-name="dotaccent" unicode="&#x2d9;" horiz-adv-x="112" d="M10 640 C10 612 28 595 56 595 C84 595 102 612 102 640 C102 668 84 685 56 685 C28 685 10 668 10 640 L10 640 Z " />
<glyph glyph-name="ring" unicode="&#x2da;" horiz-adv-x="184" d="M56 642 C56 664 69 677 92 677 C115 677 128 664 128 642 C128 620 115 607 92 607 C69 607 56 620 56 642 L56 642 Z M10 642 C10 595 40 565 92 565 C144 565 174 595 174 642 C174 689 144 719 92 719 C40 719 10 689 10 642 L10 642 Z " />
<glyph glyph-name="ogonek" unicode="&#x2db;" horiz-adv-x="155" d="M145 -113 C145 -113 130 -120 110 -120 C86 -120 75 -108 75 -85 C75 -40 145 0 145 0 L89 0 C89 0 10 -36 10 -96 C10 -140 40 -167 94 -167 C129 -167 145 -158 145 -158 L145 -113 Z " />
<glyph glyph-name="tilde" unicode="&#x2dc;" horiz-adv-x="220" d="M10 595 L64 595 C64 612 70 621 82 621 C90 621 96 617 104 611 C121 599 133 594 150 594 C186 594 210 619 210 664 L210 679 L156 679 C156 662 150 653 138 653 C130 653 124 657 116 663 C99 675 87 680 70 680 C34 680 10 655 10 609 L10 595 Z " />
<glyph glyph-name="hungarumlaut" unicode="&#x2dd;" horiz-adv-x="211" d="M10 575 L52 575 L112 700 L39 700 L10 575 Z M97 575 L138 575 L201 700 L129 700 L97 575 Z " />
<glyph glyph-name="uni0301" unicode="&#x301;" d="M-192 755 L-142 755 L-70 880 L-149 880 L-192 755 Z " />
<glyph glyph-name="uni030A" unicode="&#x30a;" d="M-204 822 C-204 844 -191 857 -168 857 C-145 857 -132 844 -132 822 C-132 800 -145 787 -168 787 C-191 787 -204 800 -204 822 L-204 822 Z M-250 822 C-250 775 -220 745 -168 745 C-116 745 -86 775 -86 822 C-86 869 -116 899 -168 899 C-220 899 -250 869 -250 822 L-250 822 Z " />
<glyph glyph-name="uni0326" unicode="&#x326;" horiz-adv-x="105" d="M50 -195 C95 -100 95 -95 95 -35 L28 -35 L28 -45 C28 -100 30 -110 10 -195 L50 -195 Z " />
<glyph glyph-name="uni0401" unicode="&#x401;" horiz-adv-x="257" d="M50 0 L230 0 L230 70 L123 70 L123 320 L214 320 L214 390 L123 390 L123 630 L228 630 L228 700 L50 700 L50 0 Z M40 804 C40 776 57 760 85 760 C113 760 130 776 130 804 C130 832 113 848 85 848 C57 848 40 832 40 804 L40 804 Z M152 804 C152 776 169 760 197 760 C225 760 242 776 242 804 C242 832 225 848 197 848 C169 848 152 832 152 804 L152 804 Z " />
<glyph glyph-name="uni0402" unicode="&#x402;" horiz-adv-x="329" d="M72 0 L145 0 L145 393 C145 393 154 395 169 395 C204 395 226 373 226 305 L226 145 C226 82 209 65 178 65 L178 0 C254 0 299 45 299 145 L299 305 C299 410 249 460 179 460 C159 460 145 457 145 457 L145 630 L217 630 L217 700 L0 700 L0 630 L72 630 L72 0 Z " />
<glyph glyph-name="uni0403" unicode="&#x403;" horiz-adv-x="229" d="M50 0 L123 0 L123 630 L229 630 L229 700 L50 700 L50 0 Z M117 735 L167 735 L239 860 L160 860 L117 735 Z " />
<glyph glyph-name="uni0404" unicode="&#x404;" horiz-adv-x="296" d="M45 130 C45 35 85 -10 158 -10 C231 -10 271 35 271 130 L271 220 L198 220 L198 125 C198 72 187 55 158 55 C130 55 118 72 118 125 L118 325 L228 325 L228 395 L118 395 L118 575 C118 628 130 645 158 645 C186 645 198 628 198 575 L198 495 L271 495 L271 570 C271 665 231 710 158 710 C85 710 45 665 45 570 L45 130 Z " />
<glyph glyph-name="uni0405" unicode="&#x405;" horiz-adv-x="272" d="M25 130 C25 35 65 -10 136 -10 C207 -10 247 35 247 130 C247 225 236 260 170 375 C110 480 103 495 103 575 C103 628 115 645 138 645 C161 645 173 628 173 575 L173 490 L246 490 L246 570 C246 665 206 710 138 710 C70 710 30 665 30 570 C30 480 42 446 105 335 C167 225 174 210 174 125 C174 72 162 55 136 55 C109 55 98 72 98 125 L98 225 L25 225 L25 130 Z " />
<glyph glyph-name="uni0406" unicode="&#x406;" horiz-adv-x="173" d="M50 0 L123 0 L123 700 L50 700 L50 0 Z " />
<glyph glyph-name="uni0407" unicode="&#x407;" horiz-adv-x="173" d="M50 0 L123 0 L123 700 L50 700 L50 0 Z M-10 804 C-10 776 7 760 35 760 C63 760 80 776 80 804 C80 832 63 848 35 848 C7 848 -10 832 -10 804 L-10 804 Z M93 804 C93 776 110 760 138 760 C166 760 183 776 183 804 C183 832 166 848 138 848 C110 848 93 832 93 804 L93 804 Z " />
<glyph glyph-name="uni0408" unicode="&#x408;" horiz-adv-x="173" d="M-25 -157 C-25 -157 -15 -160 5 -160 C78 -160 123 -115 123 -15 L123 700 L50 700 L50 -20 C50 -78 33 -95 5 -95 C-15 -95 -25 -92 -25 -92 L-25 -157 Z " />
<glyph glyph-name="uni0409" unicode="&#x409;" horiz-adv-x="441" d="M0 -5 L10 -5 C92 -5 132 40 132 240 L132 630 L198 630 L198 0 L290 0 C371 0 421 50 421 155 L421 270 C421 375 371 425 290 425 L271 425 L271 700 L59 700 L59 260 C59 94 35 70 10 70 L0 70 L0 -5 Z M271 65 L271 360 L290 360 C326 360 348 338 348 270 L348 155 C348 87 326 65 290 65 L271 65 Z " />
<glyph glyph-name="uni040A" unicode="&#x40a;" horiz-adv-x="452" d="M50 0 L123 0 L123 355 L209 355 L209 0 L301 0 C382 0 432 50 432 155 L432 270 C432 375 382 425 301 425 L282 425 L282 700 L209 700 L209 425 L123 425 L123 700 L50 700 L50 0 Z M282 65 L282 360 L301 360 C337 360 359 338 359 270 L359 155 C359 87 337 65 301 65 L282 65 Z " />
<glyph glyph-name="uni040B" unicode="&#x40b;" horiz-adv-x="329" d="M72 0 L145 0 L145 388 C145 388 154 390 169 390 C204 390 226 368 226 300 L226 0 L299 0 L299 300 C299 405 249 455 179 455 C159 455 145 452 145 452 L145 630 L217 630 L217 700 L0 700 L0 630 L72 630 L72 0 Z " />
<glyph glyph-name="uni040C" unicode="&#x40c;" horiz-adv-x="322" d="M50 0 L123 0 L123 320 L154 320 L241 0 L317 0 L219 356 L307 700 L234 700 L154 380 L123 380 L123 700 L50 700 L50 0 Z M150 735 L200 735 L272 860 L193 860 L150 735 Z " />
<glyph glyph-name="uni040E" unicode="&#x40e;" horiz-adv-x="269" d="M30 -7 C30 -7 39 -10 59 -10 C120 -10 159 30 172 115 L264 700 L197 700 L145 290 L142 290 L83 700 L10 700 L108 141 L102 105 C96 70 80 55 54 55 C39 55 30 58 30 58 L30 -7 Z M50 840 C50 780 80 750 140 750 C200 750 230 780 230 840 L230 845 L172 845 L172 840 C172 813 163 800 140 800 C118 800 108 813 108 840 L108 845 L50 845 L50 840 Z " />
<glyph glyph-name="uni040F" unicode="&#x40f;" horiz-adv-x="327" d="M127 -100 L200 -100 L200 0 L277 0 L277 700 L204 700 L204 70 L123 70 L123 700 L50 700 L50 0 L127 0 L127 -100 Z " />
<glyph glyph-name="uni0410" unicode="&#x410;" horiz-adv-x="297" d="M10 0 L82 0 L101 160 L196 160 L215 0 L287 0 L198 700 L107 700 L10 0 Z M109 230 L134 450 C141 510 148 590 148 590 L152 590 C152 590 157 505 163 450 L188 230 L109 230 Z " />
<glyph glyph-name="uni0411" unicode="&#x411;" horiz-adv-x="303" d="M50 0 L142 0 C223 0 273 50 273 155 L273 280 C273 385 223 435 142 435 L123 435 L123 630 L259 630 L259 700 L50 700 L50 0 Z M123 65 L123 370 L142 370 C178 370 200 348 200 280 L200 155 C200 87 178 65 142 65 L123 65 Z " />
<glyph glyph-name="uni0412" unicode="&#x412;" horiz-adv-x="310" d="M50 0 L149 0 C230 0 280 50 280 155 L280 230 C280 330 217 354 217 354 C217 354 273 380 273 475 L273 545 C273 650 223 700 142 700 L50 700 L50 0 Z M123 65 L123 320 L149 320 C185 320 207 298 207 230 L207 155 C207 87 185 65 149 65 L123 65 Z M123 385 L123 635 L142 635 C178 635 200 613 200 545 L200 475 C200 407 178 385 142 385 L123 385 Z " />
<glyph glyph-name="uni0413" unicode="&#x413;" horiz-adv-x="229" d="M50 0 L123 0 L123 630 L229 630 L229 700 L50 700 L50 0 Z " />
<glyph glyph-name="uni0414" unicode="&#x414;" horiz-adv-x="326" d="M0 -100 L73 -100 L73 0 L238 0 L238 -100 L311 -100 L311 70 L271 70 L271 700 L67 700 L67 608 C67 135 20 70 20 70 L0 70 L0 -100 Z M90 70 C90 70 139 150 139 603 L139 630 L198 630 L198 70 L90 70 Z " />
<glyph glyph-name="uni0415" unicode="&#x415;" horiz-adv-x="255" d="M50 0 L230 0 L230 70 L123 70 L123 320 L214 320 L214 390 L123 390 L123 630 L228 630 L228 700 L50 700 L50 0 Z " />
<glyph glyph-name="uni0416" unicode="&#x416;" horiz-adv-x="443" d="M10 0 L86 0 L161 315 L185 315 L185 0 L258 0 L258 315 L282 315 L357 0 L433 0 L345 356 L423 700 L350 700 L282 385 L258 385 L258 700 L185 700 L185 385 L161 385 L93 700 L20 700 L98 356 L10 0 Z " />
<glyph glyph-name="uni0417" unicode="&#x417;" horiz-adv-x="280" d="M30 130 C30 35 70 -10 140 -10 C210 -10 250 35 250 130 L250 230 C250 330 189 354 189 354 C189 354 246 380 246 475 L246 575 C246 665 210 710 139 710 C68 710 32 665 32 575 L32 495 L105 495 L105 580 C105 628 113 645 139 645 C165 645 173 628 173 580 L173 475 C173 407 151 385 105 385 L76 385 L76 320 L114 320 C155 320 177 298 177 230 L177 125 C177 72 165 55 140 55 C114 55 103 72 103 125 L103 205 L30 205 L30 130 Z " />
<glyph glyph-name="uni0418" unicode="&#x418;" horiz-adv-x="356" d="M50 0 L130 0 L241 550 L243 550 C243 550 233 380 233 275 L233 0 L306 0 L306 700 L226 700 L115 150 L113 150 C113 150 123 320 123 425 L123 700 L50 700 L50 0 Z " />
<glyph glyph-name="uni0419" unicode="&#x419;" horiz-adv-x="356" d="M50 0 L130 0 L241 550 L243 550 C243 550 233 380 233 275 L233 0 L306 0 L306 700 L226 700 L115 150 L113 150 C113 150 123 320 123 425 L123 700 L50 700 L50 0 Z M88 840 C88 780 118 750 178 750 C238 750 268 780 268 840 L268 845 L210 845 L210 840 C210 813 201 800 178 800 C156 800 146 813 146 840 L146 845 L88 845 L88 840 Z " />
<glyph glyph-name="uni041A" unicode="&#x41a;" horiz-adv-x="322" d="M50 0 L123 0 L123 320 L154 320 L241 0 L317 0 L219 356 L307 700 L234 700 L154 380 L123 380 L123 700 L50 700 L50 0 Z " />
<glyph glyph-name="uni041B" unicode="&#x41b;" horiz-adv-x="326" d="M0 -5 L10 -5 C92 -5 132 40 132 240 L132 630 L203 630 L203 0 L276 0 L276 700 L59 700 L59 260 C59 94 35 70 10 70 L0 70 L0 -5 Z " />
<glyph glyph-name="uni041C" unicode="&#x41c;" horiz-adv-x="415" d="M35 0 L110 0 L113 315 C114 420 111 550 111 550 L114 550 L177 130 L234 130 L302 550 L305 550 C305 550 304 420 304 315 L305 0 L380 0 L363 700 L280 700 L225 360 C217 310 210 255 210 255 L207 255 C207 255 199 310 192 360 L141 700 L60 700 L35 0 Z " />
<glyph glyph-name="uni041D" unicode="&#x41d;" horiz-adv-x="332" d="M50 0 L123 0 L123 320 L209 320 L209 0 L282 0 L282 700 L209 700 L209 390 L123 390 L123 700 L50 700 L50 0 Z " />
<glyph glyph-name="uni041E" unicode="&#x41e;" horiz-adv-x="322" d="M204 130 C204 72 187 55 161 55 C135 55 118 72 118 130 L118 570 C118 628 135 645 161 645 C187 645 204 628 204 570 L204 130 Z M45 135 C45 35 90 -10 161 -10 C232 -10 277 35 277 135 L277 565 C277 665 232 710 161 710 C90 710 45 665 45 565 L45 135 Z " />
<glyph glyph-name="uni041F" unicode="&#x41f;" horiz-adv-x="326" d="M50 0 L123 0 L123 630 L203 630 L203 0 L276 0 L276 700 L50 700 L50 0 Z " />
<glyph glyph-name="uni0420" unicode="&#x420;" horiz-adv-x="307" d="M50 0 L123 0 L123 275 L146 275 C227 275 277 325 277 430 L277 545 C277 650 227 700 146 700 L50 700 L50 0 Z M123 340 L123 635 L146 635 C182 635 204 613 204 545 L204 430 C204 362 182 340 146 340 L123 340 Z " />
<glyph glyph-name="uni0421" unicode="&#x421;" horiz-adv-x="292" d="M45 130 C45 35 85 -10 156 -10 C227 -10 267 35 267 130 L267 235 L194 235 L194 125 C194 72 183 55 156 55 C130 55 118 72 118 125 L118 575 C118 628 130 645 156 645 C182 645 194 628 194 575 L194 485 L267 485 L267 570 C267 665 227 710 156 710 C85 710 45 665 45 570 L45 130 Z " />
<glyph glyph-name="uni0422" unicode="&#x422;" horiz-adv-x="231" d="M79 0 L152 0 L152 630 L226 630 L226 700 L5 700 L5 630 L79 630 L79 0 Z " />
<glyph glyph-name="uni0423" unicode="&#x423;" horiz-adv-x="269" d="M30 -7 C30 -7 39 -10 59 -10 C120 -10 159 30 172 115 L264 700 L197 700 L145 290 L142 290 L83 700 L10 700 L108 141 L102 105 C96 70 80 55 54 55 C39 55 30 58 30 58 L30 -7 Z " />
<glyph glyph-name="uni0424" unicode="&#x424;" horiz-adv-x="417" d="M166 112 C130 112 108 134 108 202 L108 498 C108 566 130 588 166 588 L172 588 L172 112 L166 112 Z M245 112 L245 588 L251 588 C287 588 309 566 309 498 L309 202 C309 134 287 112 251 112 L245 112 Z M172 -25 L245 -25 L245 47 C332 47 382 97 382 202 L382 498 C382 603 332 653 251 653 L245 653 L245 725 L172 725 L172 653 L166 653 C85 653 35 603 35 498 L35 202 C35 97 85 47 172 47 L172 -25 Z " />
<glyph glyph-name="uni0425" unicode="&#x425;" horiz-adv-x="284" d="M5 0 L77 0 L142 290 L145 290 L201 0 L279 0 L198 367 L279 700 L206 700 L148 430 L145 430 L92 700 L14 700 L92 358 L5 0 Z " />
<glyph glyph-name="uni0426" unicode="&#x426;" horiz-adv-x="331" d="M50 0 L243 0 L243 -100 L316 -100 L316 70 L276 70 L276 700 L203 700 L203 70 L123 70 L123 700 L50 700 L50 0 Z " />
<glyph glyph-name="uni0427" unicode="&#x427;" horiz-adv-x="308" d="M185 0 L258 0 L258 700 L185 700 L185 317 C185 317 176 315 161 315 C131 315 108 340 108 400 L108 700 L35 700 L35 405 C35 295 81 250 151 250 C171 250 185 253 185 253 L185 0 Z " />
<glyph glyph-name="uni0428" unicode="&#x428;" horiz-adv-x="465" d="M50 0 L415 0 L415 700 L342 700 L342 70 L269 70 L269 700 L196 700 L196 70 L123 70 L123 700 L50 700 L50 0 Z " />
<glyph glyph-name="uni0429" unicode="&#x429;" horiz-adv-x="470" d="M50 0 L382 0 L382 -100 L455 -100 L455 70 L415 70 L415 700 L342 700 L342 70 L269 70 L269 700 L196 700 L196 70 L123 70 L123 700 L50 700 L50 0 Z " />
<glyph glyph-name="uni042A" unicode="&#x42a;" horiz-adv-x="307" d="M60 0 L156 0 C237 0 287 50 287 155 L287 290 C287 395 237 445 156 445 L133 445 L133 700 L10 700 L10 630 L60 630 L60 0 Z M133 65 L133 380 L156 380 C192 380 214 358 214 290 L214 155 C214 87 192 65 156 65 L133 65 Z " />
<glyph glyph-name="uni042B" unicode="&#x42b;" horiz-adv-x="441" d="M318 0 L391 0 L391 700 L318 700 L318 0 Z M50 0 L140 0 C221 0 271 50 271 155 L271 290 C271 395 221 445 140 445 L123 445 L123 700 L50 700 L50 0 Z M123 65 L123 380 L140 380 C176 380 198 358 198 290 L198 155 C198 87 176 65 140 65 L123 65 Z " />
<glyph glyph-name="uni042C" unicode="&#x42c;" horiz-adv-x="297" d="M50 0 L146 0 C227 0 277 50 277 155 L277 290 C277 395 227 445 146 445 L123 445 L123 700 L50 700 L50 0 Z M123 65 L123 380 L146 380 C182 380 204 358 204 290 L204 155 C204 87 182 65 146 65 L123 65 Z " />
<glyph glyph-name="uni042D" unicode="&#x42d;" horiz-adv-x="294" d="M25 130 C25 35 65 -10 137 -10 C209 -10 249 35 249 130 L249 570 C249 665 209 710 137 710 C65 710 25 665 25 570 L25 495 L98 495 L98 575 C98 628 110 645 137 645 C164 645 176 628 176 575 L176 395 L75 395 L75 325 L176 325 L176 125 C176 72 164 55 137 55 C109 55 98 72 98 125 L98 220 L25 220 L25 130 Z " />
<glyph glyph-name="uni042E" unicode="&#x42e;" horiz-adv-x="442" d="M50 0 L123 0 L123 315 L175 315 L175 130 C175 35 215 -10 286 -10 C357 -10 397 35 397 130 L397 570 C397 665 357 710 286 710 C215 710 175 665 175 570 L175 385 L123 385 L123 700 L50 700 L50 0 Z M324 125 C324 72 312 55 286 55 C260 55 248 72 248 125 L248 575 C248 628 260 645 286 645 C312 645 324 628 324 575 L324 125 Z " />
<glyph glyph-name="uni042F" unicode="&#x42f;" horiz-adv-x="310" d="M20 0 L96 0 L155 295 L187 295 L187 0 L260 0 L260 700 L170 700 C89 700 39 650 39 545 L39 450 C39 350 87 320 87 320 L20 0 Z M170 360 C134 360 112 382 112 450 L112 545 C112 613 134 635 170 635 L187 635 L187 360 L170 360 Z " />
<glyph glyph-name="uni0430" unicode="&#x430;" horiz-adv-x="275" d="M30 90 C30 24 64 -10 102 -10 C152 -10 177 38 177 38 L200 -5 L240 -5 L240 425 C240 510 200 550 139 550 C78 550 38 510 38 425 L38 373 L107 373 L107 430 C107 475 122 490 139 490 C156 490 171 475 171 430 L171 325 L144 325 C75 325 30 280 30 190 L30 90 Z M171 99 C171 99 162 50 127 50 C112 50 99 63 99 95 L99 195 C99 245 114 265 144 265 L171 265 L171 99 Z " />
<glyph glyph-name="uni0431" unicode="&#x431;" horiz-adv-x="283" d="M40 115 C40 30 80 -10 144 -10 C208 -10 248 30 248 115 L248 410 C248 481 214 515 174 515 C134 515 109 480 109 480 L109 535 C109 593 130 616 166 617 C228 619 244 637 244 637 L244 707 C244 707 222 683 171 682 C90 680 40 630 40 530 L40 115 Z M179 110 C179 65 164 50 144 50 C124 50 109 65 109 110 L109 419 C109 419 119 455 149 455 C166 455 179 442 179 410 L179 110 Z " />
<glyph glyph-name="uni0432" unicode="&#x432;" horiz-adv-x="278" d="M45 0 L139 0 C208 0 253 45 253 135 L253 170 C253 255 197 277 197 277 C197 277 248 300 248 385 L248 405 C248 495 203 540 134 540 L45 540 L45 0 Z M114 60 L114 245 L139 245 C164 245 184 225 184 175 L184 130 C184 80 164 60 139 60 L114 60 Z M114 310 L114 480 L134 480 C159 480 179 460 179 410 L179 380 C179 330 159 310 134 310 L114 310 Z " />
<glyph glyph-name="uni0433" unicode="&#x433;" horiz-adv-x="205" d="M45 0 L114 0 L114 475 L205 475 L205 540 L45 540 L45 0 Z " />
<glyph glyph-name="uni0434" unicode="&#x434;" horiz-adv-x="303" d="M0 -90 L69 -90 L69 0 L224 0 L224 -90 L293 -90 L293 65 L255 65 L255 540 L61 540 L61 440 C61 120 21 65 21 65 L0 65 L0 -90 Z M88 65 C88 65 130 160 130 436 L130 475 L186 475 L186 65 L88 65 Z " />
<glyph glyph-name="uni0435" unicode="&#x435;" horiz-adv-x="273" d="M35 115 C35 30 75 -10 139 -10 C203 -10 243 30 243 115 L243 175 L174 175 L174 110 C174 65 159 50 139 50 C119 50 104 65 104 110 L104 250 L243 250 L243 425 C243 510 203 550 139 550 C75 550 35 510 35 425 L35 115 Z M104 310 L104 430 C104 475 119 490 139 490 C159 490 174 475 174 430 L174 310 L104 310 Z " />
<glyph glyph-name="uni0436" unicode="&#x436;" horiz-adv-x="387" d="M10 0 L81 0 L142 240 L159 240 L159 0 L228 0 L228 240 L245 240 L306 0 L377 0 L304 280 L374 540 L303 540 L245 305 L228 305 L228 540 L159 540 L159 305 L142 305 L84 540 L13 540 L83 280 L10 0 Z " />
<glyph glyph-name="uni0437" unicode="&#x437;" horiz-adv-x="259" d="M25 115 C25 30 65 -10 127 -10 C189 -10 229 30 229 115 L229 170 C229 255 175 280 175 280 C175 280 228 305 228 385 L228 425 C228 510 188 550 127 550 C66 550 26 510 26 425 L26 380 L95 380 L95 430 C95 475 107 490 127 490 C147 490 159 475 159 430 L159 380 C159 325 139 310 109 310 L77 310 L77 250 L105 250 C140 250 160 230 160 175 L160 110 C160 65 150 50 127 50 C104 50 94 65 94 110 L94 175 L25 175 L25 115 Z " />
<glyph glyph-name="uni0438" unicode="&#x438;" horiz-adv-x="318" d="M45 0 L114 0 L209 390 L212 390 C212 390 204 280 204 215 L204 0 L273 0 L273 540 L204 540 L109 150 L106 150 C106 150 114 260 114 325 L114 540 L45 540 L45 0 Z " />
<glyph glyph-name="uni0439" unicode="&#x439;" horiz-adv-x="318" d="M45 0 L114 0 L209 390 L212 390 C212 390 204 280 204 215 L204 0 L273 0 L273 540 L204 540 L109 150 L106 150 C106 150 114 260 114 325 L114 540 L45 540 L45 0 Z M69 680 C69 620 99 590 159 590 C219 590 249 620 249 680 L249 685 L191 685 L191 680 C191 653 182 640 159 640 C137 640 127 653 127 680 L127 685 L69 685 L69 680 Z " />
<glyph glyph-name="uni043A" unicode="&#x43a;" horiz-adv-x="284" d="M45 0 L114 0 L114 245 L131 245 L208 0 L279 0 L192 280 L276 540 L205 540 L132 305 L114 305 L114 540 L45 540 L45 0 Z " />
<glyph glyph-name="uni043B" unicode="&#x43b;" horiz-adv-x="299" d="M0 -5 L11 -5 C100 -5 126 30 126 405 L126 475 L185 475 L185 0 L254 0 L254 540 L57 540 L57 435 C57 81 44 65 4 65 L0 65 L0 -5 Z " />
<glyph glyph-name="uni043C" unicode="&#x43c;" horiz-adv-x="376" d="M45 0 L110 0 L110 195 C110 255 106 400 106 400 L109 400 L161 110 L209 110 L264 400 L267 400 C267 400 264 256 264 195 L264 0 L331 0 L331 540 L250 540 L201 295 C194 260 189 210 189 210 L186 210 C186 210 180 260 173 295 L126 540 L45 540 L45 0 Z " />
<glyph glyph-name="uni043D" unicode="&#x43d;" horiz-adv-x="304" d="M45 0 L114 0 L114 240 L190 240 L190 0 L259 0 L259 540 L190 540 L190 305 L114 305 L114 540 L45 540 L45 0 Z " />
<glyph glyph-name="uni043E" unicode="&#x43e;" horiz-adv-x="278" d="M35 115 C35 30 75 -10 139 -10 C203 -10 243 30 243 115 L243 425 C243 510 203 550 139 550 C75 550 35 510 35 425 L35 115 Z M174 110 C174 65 159 50 139 50 C119 50 104 65 104 110 L104 430 C104 475 119 490 139 490 C159 490 174 475 174 430 L174 110 Z " />
<glyph glyph-name="uni043F" unicode="&#x43f;" horiz-adv-x="300" d="M45 0 L114 0 L114 475 L186 475 L186 0 L255 0 L255 540 L45 540 L45 0 Z " />
<glyph glyph-name="uni0440" unicode="&#x440;" horiz-adv-x="292" d="M45 -160 L114 -160 L114 24 C114 24 134 -10 173 -10 C227 -10 257 33 257 110 L257 445 C257 516 223 550 178 550 C128 550 106 504 106 504 L86 545 L45 545 L45 -160 Z M188 110 C188 68 177 50 154 50 C121 50 114 93 114 93 L114 441 C114 441 123 490 158 490 C175 490 188 477 188 445 L188 110 Z " />
<glyph glyph-name="uni0441" unicode="&#x441;" horiz-adv-x="266" d="M35 115 C35 30 75 -10 138 -10 C201 -10 241 30 241 115 L241 180 L172 180 L172 110 C172 65 157 50 138 50 C119 50 104 65 104 110 L104 430 C104 475 119 490 138 490 C157 490 172 475 172 430 L172 370 L241 370 L241 425 C241 510 201 550 138 550 C75 550 35 510 35 425 L35 115 Z " />
<glyph glyph-name="uni0442" unicode="&#x442;" horiz-adv-x="207" d="M69 0 L138 0 L138 475 L202 475 L202 540 L5 540 L5 475 L69 475 L69 0 Z " />
<glyph glyph-name="uni0443" unicode="&#x443;" horiz-adv-x="269" d="M15 -156 C15 -156 25 -160 47 -160 C110 -160 143 -130 165 -5 L259 540 L194 540 L152 260 C145 210 139 140 139 140 L136 140 C136 140 129 210 122 260 L85 540 L15 540 L99 -3 L95 -30 C88 -80 71 -100 36 -100 C24 -100 15 -97 15 -97 L15 -156 Z " />
<glyph glyph-name="uni0444" unicode="&#x444;" horiz-adv-x="397" d="M154 50 C124 50 104 70 104 120 L104 420 C104 470 124 490 154 490 L164 490 L164 50 L154 50 Z M233 50 L233 490 L243 490 C273 490 293 470 293 420 L293 120 C293 70 273 50 243 50 L233 50 Z M164 -160 L233 -160 L233 -10 L243 -10 C317 -10 362 35 362 125 L362 415 C362 505 317 550 243 550 L233 550 L233 700 L164 700 L164 550 L154 550 C80 550 35 505 35 415 L35 125 C35 35 80 -10 154 -10 L164 -10 L164 -160 Z " />
<glyph glyph-name="uni0445" unicode="&#x445;" horiz-adv-x="253" d="M5 0 L72 0 L126 220 L128 220 L176 0 L248 0 L176 282 L246 540 L181 540 L131 335 L128 335 L85 540 L14 540 L80 277 L5 0 Z " />
<glyph glyph-name="uni0446" unicode="&#x446;" horiz-adv-x="299" d="M45 0 L220 0 L220 -90 L289 -90 L289 65 L254 65 L254 540 L185 540 L185 65 L114 65 L114 540 L45 540 L45 0 Z " />
<glyph glyph-name="uni0447" unicode="&#x447;" horiz-adv-x="280" d="M166 0 L235 0 L235 540 L166 540 L166 258 C166 258 160 255 144 255 C119 255 99 275 99 325 L99 540 L30 540 L30 325 C30 240 70 195 139 195 C154 195 166 198 166 198 L166 0 Z " />
<glyph glyph-name="uni0448" unicode="&#x448;" horiz-adv-x="423" d="M45 0 L378 0 L378 540 L309 540 L309 65 L246 65 L246 540 L177 540 L177 65 L114 65 L114 540 L45 540 L45 0 Z " />
<glyph glyph-name="uni0449" unicode="&#x449;" horiz-adv-x="428" d="M45 0 L349 0 L349 -90 L418 -90 L418 65 L378 65 L378 540 L309 540 L309 65 L246 65 L246 540 L177 540 L177 65 L114 65 L114 540 L45 540 L45 0 Z " />
<glyph glyph-name="uni044A" unicode="&#x44a;" horiz-adv-x="282" d="M57 0 L148 0 C217 0 262 45 262 135 L262 225 C262 315 217 360 148 360 L126 360 L126 540 L10 540 L10 475 L57 475 L57 0 Z M126 60 L126 300 L148 300 C173 300 193 280 193 230 L193 130 C193 80 173 60 148 60 L126 60 Z " />
<glyph glyph-name="uni044B" unicode="&#x44b;" horiz-adv-x="393" d="M279 0 L348 0 L348 540 L279 540 L279 0 Z M45 0 L131 0 C200 0 245 45 245 135 L245 225 C245 315 200 360 131 360 L114 360 L114 540 L45 540 L45 0 Z M114 60 L114 300 L131 300 C156 300 176 280 176 230 L176 130 C176 80 156 60 131 60 L114 60 Z " />
<glyph glyph-name="uni044C" unicode="&#x44c;" horiz-adv-x="270" d="M45 0 L136 0 C205 0 250 45 250 135 L250 225 C250 315 205 360 136 360 L114 360 L114 540 L45 540 L45 0 Z M114 60 L114 300 L136 300 C161 300 181 280 181 230 L181 130 C181 80 161 60 136 60 L114 60 Z " />
<glyph glyph-name="uni044D" unicode="&#x44d;" horiz-adv-x="266" d="M25 115 C25 30 65 -10 128 -10 C191 -10 231 31 231 115 L231 425 C231 510 191 550 128 550 C65 550 25 510 25 425 L25 375 L94 375 L94 430 C94 475 109 490 128 490 C147 490 162 474 162 430 L162 310 L75 310 L75 250 L162 250 L162 110 C162 65 147 50 128 50 C109 50 94 65 94 110 L94 175 L25 175 L25 115 Z " />
<glyph glyph-name="uni044E" unicode="&#x44e;" horiz-adv-x="388" d="M45 0 L114 0 L114 245 L156 245 L156 115 C156 30 196 -10 257 -10 C318 -10 358 30 358 115 L358 425 C358 510 318 550 257 550 C196 550 156 510 156 425 L156 310 L114 310 L114 540 L45 540 L45 0 Z M289 110 C289 65 277 50 257 50 C237 50 225 65 225 110 L225 430 C225 475 237 490 257 490 C277 490 289 475 289 430 L289 110 Z " />
<glyph glyph-name="uni044F" unicode="&#x44f;" horiz-adv-x="280" d="M15 0 L85 0 L140 210 L165 210 L165 0 L235 0 L235 540 L146 540 C77 540 32 495 32 405 L32 345 C32 255 77 231 77 231 L15 0 Z M146 270 C121 270 101 290 101 340 L101 410 C101 460 121 480 146 480 L165 480 L165 270 L146 270 Z " />
<glyph glyph-name="uni0451" unicode="&#x451;" horiz-adv-x="273" d="M35 115 C35 30 75 -10 139 -10 C203 -10 243 30 243 115 L243 175 L174 175 L174 110 C174 65 159 50 139 50 C119 50 104 65 104 110 L104 250 L243 250 L243 425 C243 510 203 550 139 550 C75 550 35 510 35 425 L35 115 Z M104 310 L104 430 C104 475 119 490 139 490 C159 490 174 475 174 430 L174 310 L104 310 Z M38 644 C38 616 55 600 83 600 C111 600 128 616 128 644 C128 672 111 688 83 688 C55 688 38 672 38 644 L38 644 Z M150 644 C150 616 167 600 195 600 C223 600 240 616 240 644 C240 672 223 688 195 688 C167 688 150 672 150 644 L150 644 Z " />
<glyph glyph-name="uni0452" unicode="&#x452;" horiz-adv-x="287" d="M118 -156 C118 -156 128 -160 148 -160 C212 -160 252 -120 252 -35 L252 350 C252 416 218 450 178 450 C134 450 110 411 109 409 L109 540 L194 540 L194 600 L109 600 L109 700 L40 700 L40 600 L5 600 L5 540 L40 540 L40 0 L109 0 L109 341 C109 341 118 390 153 390 C170 390 183 377 183 345 L183 -40 C183 -85 168 -100 138 -100 C128 -100 118 -98 118 -98 L118 -156 Z " />
<glyph glyph-name="uni0453" unicode="&#x453;" horiz-adv-x="205" d="M45 0 L114 0 L114 475 L205 475 L205 540 L45 540 L45 0 Z M98 575 L148 575 L220 700 L141 700 L98 575 Z " />
<glyph glyph-name="uni0454" unicode="&#x454;" horiz-adv-x="266" d="M35 115 C35 30 75 -10 138 -10 C201 -10 241 30 241 115 L241 175 L172 175 L172 110 C172 65 157 50 138 50 C119 50 104 65 104 110 L104 250 L197 250 L197 310 L104 310 L104 430 C104 475 119 490 138 490 C157 490 172 475 172 430 L172 375 L241 375 L241 425 C241 510 201 550 138 550 C75 550 35 510 35 425 L35 115 Z " />
<glyph glyph-name="uni0455" unicode="&#x455;" horiz-adv-x="251" d="M25 115 C25 30 65 -10 125 -10 C185 -10 225 30 225 115 C225 195 216 227 158 295 C105 357 99 365 99 435 C99 475 109 490 128 490 C147 490 157 475 157 435 L157 375 L226 375 L226 430 C226 510 191 550 128 550 C65 550 30 510 30 430 C30 355 38 322 97 255 C151 194 156 185 156 110 C156 65 141 50 125 50 C109 50 94 65 94 110 L94 175 L25 175 L25 115 Z " />
<glyph glyph-name="uni0456" unicode="&#x456;" horiz-adv-x="150" d="M30 640 C30 612 47 595 75 595 C103 595 120 612 120 640 C120 668 103 685 75 685 C47 685 30 668 30 640 L30 640 Z M40 0 L109 0 L109 540 L40 540 L40 0 Z " />
<glyph glyph-name="uni0457" unicode="&#x457;" horiz-adv-x="159" d="M45 0 L114 0 L114 540 L45 540 L45 0 Z M32 600 C57 600 74 616 74 644 C74 672 57 688 32 688 C7 688 -10 672 -10 644 C-10 616 7 600 32 600 L32 600 Z M127 600 C152 600 169 616 169 644 C169 672 152 688 127 688 C102 688 85 672 85 644 C85 616 102 600 127 600 L127 600 Z " />
<glyph glyph-name="uni0458" unicode="&#x458;" horiz-adv-x="150" d="M-25 -156 C-25 -156 -15 -160 5 -160 C69 -160 109 -120 109 -35 L109 540 L40 540 L40 -40 C40 -85 25 -100 -5 -100 C-15 -100 -25 -98 -25 -98 L-25 -156 Z M30 640 C30 612 47 595 75 595 C103 595 120 612 120 640 C120 668 103 685 75 685 C47 685 30 668 30 640 L30 640 Z " />
<glyph glyph-name="uni0459" unicode="&#x459;" horiz-adv-x="405" d="M0 -5 L11 -5 C100 -5 126 30 126 405 L126 475 L185 475 L185 0 L271 0 C340 0 385 45 385 135 L385 195 C385 285 340 330 271 330 L254 330 L254 540 L57 540 L57 435 C57 81 44 65 4 65 L0 65 L0 -5 Z M254 60 L254 270 L271 270 C296 270 316 250 316 200 L316 130 C316 80 296 60 271 60 L254 60 Z " />
<glyph glyph-name="uni045A" unicode="&#x45a;" horiz-adv-x="411" d="M45 0 L114 0 L114 265 L187 265 L187 0 L277 0 C346 0 391 45 391 135 L391 195 C391 285 346 330 277 330 L256 330 L256 540 L187 540 L187 330 L114 330 L114 540 L45 540 L45 0 Z M256 60 L256 270 L277 270 C302 270 322 250 322 200 L322 130 C322 80 302 60 277 60 L256 60 Z " />
<glyph glyph-name="uni045B" unicode="&#x45b;" horiz-adv-x="287" d="M40 0 L109 0 L109 341 C109 341 118 390 153 390 C170 390 183 377 183 345 L183 0 L252 0 L252 350 C252 416 218 450 178 450 C134 450 110 411 109 409 L109 540 L194 540 L194 600 L109 600 L109 700 L40 700 L40 600 L5 600 L5 540 L40 540 L40 0 Z " />
<glyph glyph-name="uni045C" unicode="&#x45c;" horiz-adv-x="284" d="M45 0 L114 0 L114 245 L131 245 L208 0 L279 0 L192 280 L276 540 L205 540 L132 305 L114 305 L114 540 L45 540 L45 0 Z M137 575 L187 575 L259 700 L180 700 L137 575 Z " />
<glyph glyph-name="uni045E" unicode="&#x45e;" horiz-adv-x="269" d="M15 -156 C15 -156 25 -160 47 -160 C110 -160 143 -130 165 -5 L259 540 L194 540 L152 260 C145 210 139 140 139 140 L136 140 C136 140 129 210 122 260 L85 540 L15 540 L99 -3 L95 -30 C88 -80 71 -100 36 -100 C24 -100 15 -97 15 -97 L15 -156 Z M47 680 C47 620 77 590 137 590 C197 590 227 620 227 680 L227 685 L169 685 L169 680 C169 653 160 640 137 640 C115 640 105 653 105 680 L105 685 L47 685 L47 680 Z " />
<glyph glyph-name="uni045F" unicode="&#x45f;" horiz-adv-x="299" d="M115 -90 L184 -90 L184 0 L254 0 L254 540 L185 540 L185 65 L114 65 L114 540 L45 540 L45 0 L115 0 L115 -90 Z " />
<glyph glyph-name="uni0490" unicode="&#x490;" horiz-adv-x="229" d="M50 0 L123 0 L123 630 L229 630 L229 770 L159 770 L159 700 L50 700 L50 0 Z " />
<glyph glyph-name="uni0491" unicode="&#x491;" horiz-adv-x="207" d="M45 0 L114 0 L114 475 L207 475 L207 612 L141 612 L141 540 L45 540 L45 0 Z " />
<glyph glyph-name="Wgrave" unicode="&#x1e80;" horiz-adv-x="450" d="M82 0 L172 0 L214 420 C220 480 225 560 225 560 L228 560 C228 560 233 480 237 420 L269 0 L354 0 L435 700 L365 700 L323 275 C318 220 312 140 312 140 L309 140 L267 700 L190 700 L135 140 L132 140 C132 140 129 210 123 275 L86 700 L15 700 L82 0 Z M203 735 L253 735 L210 860 L131 860 L203 735 Z " />
<glyph glyph-name="wgrave" unicode="&#x1e81;" horiz-adv-x="413" d="M70 0 L152 0 L192 300 C202 375 204 420 204 420 L207 420 C207 420 210 375 217 300 L245 0 L327 0 L403 540 L337 540 L300 240 C293 185 287 110 287 110 L284 110 C284 110 281 185 275 240 L243 540 L173 540 L133 240 C126 185 119 110 119 110 L116 110 C116 110 113 185 108 240 L79 540 L10 540 L70 0 Z M183 575 L233 575 L190 700 L111 700 L183 575 Z " />
<glyph glyph-name="Wacute" unicode="&#x1e82;" horiz-adv-x="450" d="M82 0 L172 0 L214 420 C220 480 225 560 225 560 L228 560 C228 560 233 480 237 420 L269 0 L354 0 L435 700 L365 700 L323 275 C318 220 312 140 312 140 L309 140 L267 700 L190 700 L135 140 L132 140 C132 140 129 210 123 275 L86 700 L15 700 L82 0 Z M203 735 L253 735 L325 860 L246 860 L203 735 Z " />
<glyph glyph-name="wacute" unicode="&#x1e83;" horiz-adv-x="413" d="M70 0 L152 0 L192 300 C202 375 204 420 204 420 L207 420 C207 420 210 375 217 300 L245 0 L327 0 L403 540 L337 540 L300 240 C293 185 287 110 287 110 L284 110 C284 110 281 185 275 240 L243 540 L173 540 L133 240 C126 185 119 110 119 110 L116 110 C116 110 113 185 108 240 L79 540 L10 540 L70 0 Z M183 575 L233 575 L305 700 L226 700 L183 575 Z " />
<glyph glyph-name="Wdieresis" unicode="&#x1e84;" horiz-adv-x="450" d="M82 0 L172 0 L214 420 C220 480 225 560 225 560 L228 560 C228 560 233 480 237 420 L269 0 L354 0 L435 700 L365 700 L323 275 C318 220 312 140 312 140 L309 140 L267 700 L190 700 L135 140 L132 140 C132 140 129 210 123 275 L86 700 L15 700 L82 0 Z M127 804 C127 776 144 760 172 760 C200 760 217 776 217 804 C217 832 200 848 172 848 C144 848 127 832 127 804 L127 804 Z M239 804 C239 776 256 760 284 760 C312 760 329 776 329 804 C329 832 312 848 284 848 C256 848 239 832 239 804 L239 804 Z " />
<glyph glyph-name="wdieresis" unicode="&#x1e85;" horiz-adv-x="413" d="M70 0 L152 0 L192 300 C202 375 204 420 204 420 L207 420 C207 420 210 375 217 300 L245 0 L327 0 L403 540 L337 540 L300 240 C293 185 287 110 287 110 L284 110 C284 110 281 185 275 240 L243 540 L173 540 L133 240 C126 185 119 110 119 110 L116 110 C116 110 113 185 108 240 L79 540 L10 540 L70 0 Z M107 644 C107 616 124 600 152 600 C180 600 197 616 197 644 C197 672 180 688 152 688 C124 688 107 672 107 644 L107 644 Z M219 644 C219 616 236 600 264 600 C292 600 309 616 309 644 C309 672 292 688 264 688 C236 688 219 672 219 644 L219 644 Z " />
<glyph glyph-name="uni1E9E" unicode="&#x1e9e;" horiz-adv-x="321" d="M45 0 L118 0 L118 545 C118 613 140 635 176 635 L216 635 L154 415 L154 350 L170 350 C201 350 218 333 218 275 L218 138 C218 80 201 63 175 63 C162 63 154 66 154 66 L154 1 C154 1 162 -2 182 -2 C246 -2 291 44 291 143 L291 270 C291 395 217 407 217 407 L282 635 L282 700 L176 700 C95 700 45 650 45 545 L45 0 Z " />
<glyph glyph-name="Ygrave" unicode="&#x1ef2;" horiz-adv-x="284" d="M101 0 L174 0 L174 264 L279 700 L208 700 L143 384 L140 384 L82 700 L5 700 L101 264 L101 0 Z M120 735 L170 735 L127 860 L48 860 L120 735 Z " />
<glyph glyph-name="ygrave" unicode="&#x1ef3;" horiz-adv-x="269" d="M15 -156 C15 -156 25 -160 47 -160 C110 -160 143 -130 165 -5 L259 540 L194 540 L152 260 C145 210 139 140 139 140 L136 140 C136 140 129 210 122 260 L85 540 L15 540 L99 -3 L95 -30 C88 -80 71 -100 36 -100 C24 -100 15 -97 15 -97 L15 -156 Z M112 575 L162 575 L119 700 L40 700 L112 575 Z " />
<glyph glyph-name="endash" unicode="&#x2013;" horiz-adv-x="302" d="M20 255 L282 255 L282 315 L20 315 L20 255 Z " />
<glyph glyph-name="emdash" unicode="&#x2014;" horiz-adv-x="463" d="M20 255 L443 255 L443 315 L20 315 L20 255 Z " />
<glyph glyph-name="quoteleft" unicode="&#x2018;" horiz-adv-x="142" d="M99 535 L99 550 C99 605 99 615 117 700 L76 700 C30 605 30 600 30 535 L99 535 Z " />
<glyph glyph-name="quoteright" unicode="&#x2019;" horiz-adv-x="142" d="M66 535 C112 630 112 635 112 700 L43 700 L43 685 C43 630 43 620 25 535 L66 535 Z " />
<glyph glyph-name="quotesinglbase" unicode="&#x201a;" horiz-adv-x="142" d="M66 -90 C112 5 112 10 112 75 L43 75 L43 60 C43 5 43 -5 25 -90 L66 -90 Z " />
<glyph glyph-name="quotedblleft" unicode="&#x201c;" horiz-adv-x="235" d="M192 535 L192 550 C192 605 192 615 210 700 L169 700 C123 605 123 600 123 535 L192 535 Z M99 535 L99 550 C99 605 99 615 117 700 L76 700 C30 605 30 600 30 535 L99 535 Z " />
<glyph glyph-name="quotedblright" unicode="&#x201d;" horiz-adv-x="235" d="M66 535 C112 630 112 635 112 700 L43 700 L43 685 C43 630 43 620 25 535 L66 535 Z M159 535 C205 630 205 635 205 700 L136 700 L136 685 C136 630 136 620 118 535 L159 535 Z " />
<glyph glyph-name="quotedblbase" unicode="&#x201e;" horiz-adv-x="235" d="M66 -90 C112 5 112 10 112 75 L43 75 L43 60 C43 5 43 -5 25 -90 L66 -90 Z M159 -90 C205 5 205 10 205 75 L136 75 L136 60 C136 5 136 -5 118 -90 L159 -90 Z " />
<glyph glyph-name="dagger" unicode="&#x2020;" horiz-adv-x="230" d="M80 0 L150 0 L150 475 L210 475 L210 540 L150 540 L150 700 L80 700 L80 540 L20 540 L20 475 L80 475 L80 0 Z " />
<glyph glyph-name="daggerdbl" unicode="&#x2021;" horiz-adv-x="230" d="M80 0 L150 0 L150 163 L210 163 L210 228 L150 228 L150 475 L210 475 L210 540 L150 540 L150 700 L80 700 L80 540 L20 540 L20 475 L80 475 L80 228 L20 228 L20 163 L80 163 L80 0 Z " />
<glyph glyph-name="bullet" unicode="&#x2022;" horiz-adv-x="320" d="M160 235 C195 235 220 260 220 295 C220 330 195 355 160 355 C125 355 100 330 100 295 C100 260 125 235 160 235 L160 235 Z " />
<glyph glyph-name="ellipsis" unicode="&#x2026;" horiz-adv-x="510" d="M85 -6 C115 -6 135 14 135 45 C135 75 115 95 85 95 C55 95 35 75 35 45 C35 14 55 -6 85 -6 L85 -6 Z M255 -6 C285 -6 305 14 305 45 C305 75 285 95 255 95 C225 95 205 75 205 45 C205 14 225 -6 255 -6 L255 -6 Z M425 -6 C455 -6 475 14 475 45 C475 75 455 95 425 95 C395 95 375 75 375 45 C375 14 395 -6 425 -6 L425 -6 Z " />
<glyph glyph-name="perthousand" unicode="&#x2030;" horiz-adv-x="718" d="M120 0 L183 0 L388 700 L325 700 L120 0 Z M35 429 C35 354 70 319 125 319 C180 319 215 354 215 429 L215 599 C215 674 180 709 125 709 C70 709 35 674 35 599 L35 429 Z M155 424 C155 387 145 374 125 374 C105 374 95 387 95 424 L95 604 C95 641 105 654 125 654 C145 654 155 641 155 604 L155 424 Z M293 101 C293 26 328 -9 383 -9 C438 -9 473 26 473 101 L473 271 C473 346 438 381 383 381 C328 381 293 346 293 271 L293 101 Z M413 96 C413 59 403 46 383 46 C363 46 353 59 353 96 L353 276 C353 313 363 326 383 326 C403 326 413 313 413 276 L413 96 Z M503 101 C503 26 538 -9 593 -9 C648 -9 683 26 683 101 L683 271 C683 346 648 381 593 381 C538 381 503 346 503 271 L503 101 Z M623 96 C623 59 613 46 593 46 C573 46 563 59 563 96 L563 276 C563 313 573 326 593 326 C613 326 623 313 623 276 L623 96 Z " />
<glyph glyph-name="guilsinglleft" unicode="&#x2039;" horiz-adv-x="236" d="M125 105 L196 105 L111 264 L196 423 L125 423 L40 264 L125 105 Z " />
<glyph glyph-name="guilsinglright" unicode="&#x203a;" horiz-adv-x="236" d="M40 105 L111 105 L196 264 L111 423 L40 423 L125 264 L40 105 Z " />
<glyph glyph-name="fraction" unicode="&#x2044;" horiz-adv-x="78" d="M-95 0 L-32 0 L173 700 L110 700 L-95 0 Z " />
<glyph glyph-name="uni2070" unicode="&#x2070;" horiz-adv-x="240" d="M30 580 C30 505 65 470 120 470 C175 470 210 505 210 580 L210 750 C210 825 175 860 120 860 C65 860 30 825 30 750 L30 580 Z M150 575 C150 538 140 525 120 525 C100 525 90 538 90 575 L90 755 C90 792 100 805 120 805 C140 805 150 792 150 755 L150 575 Z " />
<glyph glyph-name="uni2074" unicode="&#x2074;" horiz-adv-x="234" d="M10 555 L128 555 L128 478 L188 478 L188 555 L224 555 L224 605 L188 605 L188 850 L119 850 L10 605 L10 555 Z M67 605 L135 775 L138 775 L128 605 L67 605 Z " />
<glyph glyph-name="uni2075" unicode="&#x2075;" horiz-adv-x="219" d="M15 580 C15 505 50 470 107 470 C164 470 199 505 199 580 L199 630 C199 695 173 730 136 730 C101 730 85 703 85 703 L85 795 L198 795 L198 850 L26 850 L26 655 L83 655 C83 655 92 675 112 675 C129 675 139 662 139 635 L139 575 C139 538 129 525 107 525 C85 525 75 538 75 575 L75 590 L15 590 L15 580 Z " />
<glyph glyph-name="uni2076" unicode="&#x2076;" horiz-adv-x="239" d="M30 580 C30 505 65 470 122 470 C179 470 214 505 214 580 L214 615 C214 680 188 715 146 715 C111 715 90 689 90 689 L90 756 C90 792 100 805 122 805 C144 805 154 792 154 755 L154 745 L214 745 L214 750 C214 825 179 860 122 860 C65 860 30 825 30 750 L30 580 Z M90 637 C90 637 101 660 126 660 C144 660 154 647 154 620 L154 575 C154 538 144 525 122 525 C101 525 90 538 90 575 L90 637 Z " />
<glyph glyph-name="uni2077" unicode="&#x2077;" horiz-adv-x="196" d="M24 478 L87 478 L191 795 L191 850 L10 850 L10 795 L130 795 L24 478 Z " />
<glyph glyph-name="uni2078" unicode="&#x2078;" horiz-adv-x="238" d="M25 575 C25 505 60 470 119 470 C178 470 213 505 213 575 L213 585 C213 650 174 667 174 667 C174 667 209 685 209 745 L209 755 C209 825 174 860 119 860 C63 860 29 825 29 755 L29 745 C29 685 64 667 64 667 C64 667 25 650 25 585 L25 575 Z M85 590 C85 627 95 640 119 640 C143 640 153 627 153 590 L153 575 C153 538 143 525 119 525 C95 525 85 538 85 575 L85 590 Z M89 755 C89 792 99 805 119 805 C139 805 149 792 149 755 L149 740 C149 703 139 690 119 690 C99 690 89 703 89 740 L89 755 Z " />
<glyph glyph-name="uni2079" unicode="&#x2079;" horiz-adv-x="239" d="M25 580 C25 505 60 470 117 470 C174 470 209 505 209 580 L209 750 C209 825 174 860 117 860 C60 860 25 825 25 750 L25 715 C25 650 51 615 93 615 C128 615 149 641 149 641 L149 574 C149 538 139 525 117 525 C95 525 85 538 85 575 L85 585 L25 585 L25 580 Z M85 755 C85 792 95 805 117 805 C138 805 149 792 149 755 L149 693 C149 693 138 670 113 670 C95 670 85 683 85 710 L85 755 Z " />
<glyph glyph-name="uni2080" unicode="&#x2080;" horiz-adv-x="240" d="M30 -53 C30 -128 65 -163 120 -163 C175 -163 210 -128 210 -53 L210 117 C210 192 175 227 120 227 C65 227 30 192 30 117 L30 -53 Z M150 -58 C150 -95 140 -108 120 -108 C100 -108 90 -95 90 -58 L90 122 C90 159 100 172 120 172 C140 172 150 159 150 122 L150 -58 Z " />
<glyph glyph-name="uni2081" unicode="&#x2081;" horiz-adv-x="166" d="M66 -155 L126 -155 L126 217 L86 217 L10 182 L10 127 L66 147 L66 -155 Z " />
<glyph glyph-name="uni2082" unicode="&#x2082;" horiz-adv-x="236" d="M20 -155 L211 -155 L211 -63 L154 -63 L154 -100 L89 -100 C195 55 204 72 204 117 C204 192 169 227 112 227 C55 227 20 192 20 117 L20 92 L80 92 L80 122 C80 159 90 172 112 172 C134 172 144 159 144 122 C144 87 135 65 20 -100 L20 -155 Z " />
<glyph glyph-name="uni2083" unicode="&#x2083;" horiz-adv-x="219" d="M15 -53 C15 -128 50 -163 107 -163 C164 -163 199 -128 199 -53 L199 -33 C199 72 119 73 119 73 L197 162 L197 217 L24 217 L24 162 L132 162 L56 74 L56 22 L101 22 C129 22 139 9 139 -33 L139 -58 C139 -95 129 -108 107 -108 C85 -108 75 -95 75 -58 L75 -43 L15 -43 L15 -53 Z " />
<glyph glyph-name="uni2084" unicode="&#x2084;" horiz-adv-x="234" d="M10 -78 L128 -78 L128 -155 L188 -155 L188 -78 L224 -78 L224 -28 L188 -28 L188 217 L119 217 L10 -28 L10 -78 Z M67 -28 L135 142 L138 142 L128 -28 L67 -28 Z " />
<glyph glyph-name="uni2085" unicode="&#x2085;" horiz-adv-x="219" d="M15 -53 C15 -128 50 -163 107 -163 C164 -163 199 -128 199 -53 L199 -3 C199 62 173 97 136 97 C101 97 85 70 85 70 L85 162 L198 162 L198 217 L26 217 L26 22 L83 22 C83 22 92 42 112 42 C129 42 139 29 139 2 L139 -58 C139 -95 129 -108 107 -108 C85 -108 75 -95 75 -58 L75 -43 L15 -43 L15 -53 Z " />
<glyph glyph-name="uni2086" unicode="&#x2086;" horiz-adv-x="239" d="M30 -53 C30 -128 65 -163 122 -163 C179 -163 214 -128 214 -53 L214 -18 C214 47 188 82 146 82 C111 82 90 56 90 56 L90 123 C90 159 100 172 122 172 C144 172 154 159 154 122 L154 112 L214 112 L214 117 C214 192 179 227 122 227 C65 227 30 192 30 117 L30 -53 Z M90 4 C90 4 101 27 126 27 C144 27 154 14 154 -13 L154 -58 C154 -95 144 -108 122 -108 C101 -108 90 -95 90 -58 L90 4 Z " />
<glyph glyph-name="uni2087" unicode="&#x2087;" horiz-adv-x="196" d="M24 -155 L87 -155 L191 162 L191 217 L10 217 L10 162 L130 162 L24 -155 Z " />
<glyph glyph-name="uni2088" unicode="&#x2088;" horiz-adv-x="238" d="M25 -58 C25 -128 60 -163 119 -163 C178 -163 213 -128 213 -58 L213 -48 C213 17 174 34 174 34 C174 34 209 52 209 112 L209 122 C209 192 174 227 119 227 C63 227 29 192 29 122 L29 112 C29 52 64 34 64 34 C64 34 25 17 25 -48 L25 -58 Z M85 -43 C85 -6 95 7 119 7 C143 7 153 -6 153 -43 L153 -58 C153 -95 143 -108 119 -108 C95 -108 85 -95 85 -58 L85 -43 Z M89 122 C89 159 99 172 119 172 C139 172 149 159 149 122 L149 107 C149 70 139 57 119 57 C99 57 89 70 89 107 L89 122 Z " />
<glyph glyph-name="uni2089" unicode="&#x2089;" horiz-adv-x="239" d="M25 -53 C25 -128 60 -163 117 -163 C174 -163 209 -128 209 -53 L209 117 C209 192 174 227 117 227 C60 227 25 192 25 117 L25 82 C25 17 51 -18 93 -18 C128 -18 149 8 149 8 L149 -59 C149 -95 139 -108 117 -108 C95 -108 85 -95 85 -58 L85 -48 L25 -48 L25 -53 Z M85 122 C85 159 95 172 117 172 C138 172 149 159 149 122 L149 60 C149 60 138 37 113 37 C95 37 85 50 85 77 L85 122 Z " />
<glyph glyph-name="Euro" unicode="&#x20ac;" horiz-adv-x="307" d="M55 130 C55 35 95 -10 166 -10 C237 -10 277 35 277 130 L277 230 L204 230 L204 125 C204 72 193 55 166 55 C140 55 128 72 128 125 L128 285 L219 285 L219 335 L128 335 L128 380 L219 380 L219 430 L128 430 L128 575 C128 628 140 645 166 645 C192 645 204 628 204 575 L204 485 L277 485 L277 570 C277 665 237 710 166 710 C95 710 55 665 55 570 L55 430 L15 430 L15 380 L55 380 L55 335 L15 335 L15 285 L55 285 L55 130 Z " />
<glyph glyph-name="uni20B4" unicode="&#x20b4;" horiz-adv-x="281" d="M30 370 L255 370 L255 425 L211 425 C211 425 250 485 250 570 C250 665 210 710 140 710 C70 710 30 665 30 570 L30 535 L103 535 L103 575 C103 628 114 645 140 645 C165 645 177 628 177 575 C177 485 131 425 131 425 L30 425 L30 370 Z M30 275 L66 275 C66 275 30 215 30 130 C30 35 75 -10 143 -10 C211 -10 256 35 256 130 L256 170 L183 170 L183 125 C183 72 167 55 143 55 C120 55 103 72 103 125 C103 220 144 275 144 275 L255 275 L255 330 L30 330 L30 275 Z " />
<glyph glyph-name="uni20BD" unicode="&#x20bd;" horiz-adv-x="317" d="M60 0 L133 0 L133 170 L226 170 L226 230 L133 230 L133 275 L156 275 C237 275 287 325 287 430 L287 545 C287 650 237 700 156 700 L60 700 L60 340 L20 340 L20 275 L60 275 L60 230 L20 230 L20 170 L60 170 L60 0 Z M133 340 L133 635 L156 635 C192 635 214 613 214 545 L214 430 C214 362 192 340 156 340 L133 340 Z " />
<glyph glyph-name="uni2116" unicode="&#x2116;" horiz-adv-x="551" d="M353 240 L519 240 L519 295 L353 295 L353 240 Z M351 449 C351 374 386 339 436 339 C486 339 521 374 521 449 L521 600 C521 675 486 710 436 710 C386 710 351 675 351 600 L351 449 Z M461 444 C461 402 451 394 436 394 C421 394 411 402 411 444 L411 605 C411 647 421 655 436 655 C451 655 461 647 461 605 L461 444 Z M50 0 L119 0 L119 285 C119 385 109 535 109 535 L111 535 L230 0 L310 0 L310 700 L241 700 L241 415 C241 315 251 165 251 165 L249 165 L130 700 L50 700 L50 0 Z " />
<glyph glyph-name="trademark" unicode="&#x2122;" horiz-adv-x="453" d="M180 360 L235 360 L245 585 L247 585 L277 425 L321 425 L351 585 L353 585 L363 360 L418 360 L396 700 L335 700 L301 525 L297 525 L263 700 L202 700 L180 360 Z M70 360 L130 360 L130 650 L180 650 L180 700 L20 700 L20 650 L70 650 L70 360 Z " />
<glyph glyph-name="arrowleft" unicode="&#x2190;" horiz-adv-x="750" d="M125 350 L360 150 L360 220 L240 320 L620 320 L620 380 L240 380 L360 480 L360 550 L125 350 Z " />
<glyph glyph-name="arrowup" unicode="&#x2191;" horiz-adv-x="750" d="M375 110 L575 345 L505 345 L405 225 L405 605 L345 605 L345 225 L245 345 L175 345 L375 110 Z " />
<glyph glyph-name="arrowright" unicode="&#x2192;" horiz-adv-x="750" d="M125 320 L505 320 L385 220 L385 150 L620 350 L385 550 L385 480 L505 380 L125 380 L125 320 Z " />
<glyph glyph-name="arrowdown" unicode="&#x2193;" horiz-adv-x="750" d="M345 110 L405 110 L405 490 L505 370 L575 370 L375 605 L175 370 L245 370 L345 490 L345 110 Z " />
<glyph glyph-name="uni2196" unicode="&#x2196;" horiz-adv-x="750" d="M180 135 L480 135 L480 190 L270 190 L565 485 L525 525 L235 235 L235 435 L180 435 L180 135 Z " />
<glyph glyph-name="uni2197" unicode="&#x2197;" horiz-adv-x="750" d="M265 135 L565 135 L565 435 L510 435 L510 235 L220 525 L180 485 L475 190 L265 190 L265 135 Z " />
<glyph glyph-name="uni2198" unicode="&#x2198;" horiz-adv-x="750" d="M180 175 L220 135 L510 425 L510 225 L565 225 L565 525 L265 525 L265 470 L475 470 L180 175 Z " />
<glyph glyph-name="uni2199" unicode="&#x2199;" horiz-adv-x="750" d="M180 225 L235 225 L235 425 L525 135 L565 175 L270 470 L480 470 L480 525 L180 525 L180 225 Z " />
<glyph glyph-name="minus" unicode="&#x2212;" horiz-adv-x="323" d="M25 300 L298 300 L298 360 L25 360 L25 300 Z " />
<glyph glyph-name="approxequal" unicode="&#x2248;" horiz-adv-x="323" d="M25 345 C25 345 55 365 91 365 C122 365 185 340 225 340 C268 340 298 360 298 360 L298 420 C298 420 268 400 232 400 C201 400 138 425 98 425 C55 425 25 405 25 405 L25 345 Z M25 220 C25 220 55 240 91 240 C122 240 185 215 225 215 C268 215 298 235 298 235 L298 295 C298 295 268 275 232 275 C201 275 138 300 98 300 C55 300 25 280 25 280 L25 220 Z " />
<glyph glyph-name="notequal" unicode="&#x2260;" horiz-adv-x="323" d="M53 180 L111 180 L139 230 L298 230 L298 290 L172 290 L208 355 L298 355 L298 415 L242 415 L270 465 L212 465 L184 415 L25 415 L25 355 L150 355 L114 290 L25 290 L25 230 L81 230 L53 180 Z " />
<glyph glyph-name="lessequal" unicode="&#x2264;" horiz-adv-x="323" d="M25 135 L298 135 L298 195 L25 195 L25 135 Z M25 336 L298 221 L298 287 L97 369 L298 451 L298 517 L25 402 L25 336 Z " />
<glyph glyph-name="greaterequal" unicode="&#x2265;" horiz-adv-x="323" d="M25 135 L298 135 L298 195 L25 195 L25 135 Z M25 221 L298 336 L298 402 L25 517 L25 451 L226 369 L25 287 L25 221 Z " />
<glyph glyph-name="uniF6D1" unicode="&#xf6d1;" horiz-adv-x="200" d="M10 840 C10 780 40 750 100 750 C160 750 190 780 190 840 L190 845 L132 845 L132 840 C132 813 123 800 100 800 C78 800 68 813 68 840 L68 845 L10 845 L10 840 Z " />
<glyph glyph-name="uniF6D4" unicode="&#xf6d4;" horiz-adv-x="200" d="M10 680 C10 620 40 590 100 590 C160 590 190 620 190 680 L190 685 L132 685 L132 680 C132 653 123 640 100 640 C78 640 68 653 68 680 L68 685 L10 685 L10 680 Z " />
<glyph glyph-name="ff" unicode="&#xfb00;" horiz-adv-x="345" d="M48 0 L117 0 L117 480 L208 480 L208 0 L277 0 L277 480 L341 480 L341 540 L277 540 L277 580 C277 625 292 640 322 640 C340 640 350 636 350 636 L350 697 C350 697 335 700 312 700 C248 700 208 660 208 575 L208 540 L117 540 L117 580 C117 625 132 640 162 640 C180 640 190 636 190 636 L190 697 C190 697 175 700 152 700 C88 700 48 660 48 575 L48 540 L10 518 L10 480 L48 480 L48 0 Z " />
<glyph glyph-name="fi" unicode="&#xfb01;" horiz-adv-x="322" d="M48 0 L117 0 L117 480 L208 480 L208 0 L277 0 L277 540 L117 540 L117 565 C117 618 139 640 197 640 C217 640 236 637 236 637 L236 697 C236 697 217 700 192 700 C95 700 48 653 48 565 L48 540 L10 518 L10 480 L48 480 L48 0 Z " />
<glyph glyph-name="fl" unicode="&#xfb02;" horiz-adv-x="322" d="M48 0 L117 0 L117 480 L176 480 L176 540 L117 540 L117 580 C117 625 132 640 162 640 L208 640 L208 0 L277 0 L277 700 L152 700 C88 700 48 660 48 575 L48 540 L10 518 L10 480 L48 480 L48 0 Z " />
<glyph glyph-name="ffi" unicode="&#xfb03;" horiz-adv-x="482" d="M48 0 L117 0 L117 480 L208 480 L208 0 L277 0 L277 480 L368 480 L368 0 L437 0 L437 540 L277 540 L277 565 C277 618 299 640 357 640 C377 640 396 637 396 637 L396 697 C396 697 377 700 352 700 C255 700 208 653 208 565 L208 540 L117 540 L117 580 C117 625 132 640 162 640 C180 640 190 636 190 636 L190 697 C190 697 175 700 152 700 C88 700 48 660 48 575 L48 540 L10 518 L10 480 L48 480 L48 0 Z " />
<glyph glyph-name="ffl" unicode="&#xfb04;" horiz-adv-x="482" d="M48 0 L117 0 L117 480 L208 480 L208 0 L277 0 L277 480 L336 480 L336 540 L277 540 L277 580 C277 625 292 640 322 640 L368 640 L368 0 L437 0 L437 700 L312 700 C248 700 208 660 208 575 L208 540 L117 540 L117 580 C117 625 132 640 162 640 C180 640 190 636 190 636 L190 697 C190 697 175 700 152 700 C88 700 48 660 48 575 L48 540 L10 518 L10 480 L48 480 L48 0 Z " />
</font>
</svg>
