<?xml version="1.0" encoding="UTF-8"?><svg xmlns="http://www.w3.org/2000/svg" viewBox="0 0 42.52 42.52" width="150" height="150"><defs><style>.cls-1{fill:none;}.cls-2{fill:#7aa069;}</style></defs><g id="text"><rect class="cls-1" x="0" width="42.52" height="42.52"/><g><path class="cls-2" d="m4.96,28.29l.57,1.03-1.87,1.73,2.46-.68.57,1.03-2.97,1.65-.33-.6,2.3-1.28-.04-.07-2.49.62-.33-.6,1.84-1.78-.04-.07-2.3,1.28-.33-.6,2.97-1.65Z"/><path class="cls-2" d="m7.08,31.78l.42.54-2.69,2.09-.42-.55,2.69-2.08Z"/><path class="cls-2" d="m6.97,36.68c-.2-.13-.56-.41-.77-.63-.73-.76-.49-1.33.36-2.16.93-.9,1.47-1.02,2.17-.29.25.25.48.62.6.81l-.41.37c-.13-.19-.4-.52-.55-.68-.37-.38-.61-.37-1.31.3-.66.64-.74.89-.33,1.31.16.17.48.44.65.57l-.4.4Z"/><path class="cls-2" d="m8.82,36.81l-.69.91-.55-.42,2.06-2.71,1.05.8c.62.47.75,1,.28,1.62-.29.38-.63.51-.99.48l-.4,1.33-.6-.46.38-1.15-.53-.4Zm1.52-.95l-.5-.38-.66.86.51.39c.27.21.53.1.71-.14.2-.26.2-.53-.07-.73Z"/><path class="cls-2" d="m11.01,37.77c.53-1.02,1.13-1.42,2.07-.92.95.5.96,1.21.42,2.23s-1.11,1.38-2.06.89c-.95-.5-.97-1.18-.44-2.19Zm1.87.98c.36-.69.42-1.11-.07-1.37s-.8.03-1.17.72c-.36.69-.41,1.07.09,1.33s.78,0,1.15-.68Z"/><path class="cls-2" d="m14.55,40.18l-.31.94-.65-.22,1.07-3.23,1.19.39c.76.25,1.03.75.78,1.5-.25.75-.78,1.04-1.54.79l-.53-.18Zm.71-.39c.33.11.55-.04.69-.45.13-.4.02-.61-.3-.72l-.53-.17-.39,1.17.53.17Z"/><path class="cls-2" d="m16.7,41.84l.6-3.34.68.12-.49,2.74,1.22.22-.11.6-1.9-.34Z"/><path class="cls-2" d="m19.92,38.88l1.31.05.64,3.42-.69-.03-.11-.62-1.19-.04-.16.61-.69-.03.89-3.36Zm.11,2.19l.93.03-.29-1.62h-.24s-.4,1.59-.4,1.59Z"/><path class="cls-2" d="m24.32,39.31s-.71,0-1,.03c-.37.04-.53.19-.5.42.02.21.17.27.75.39.76.15,1,.33,1.07.89.08.74-.38,1.14-1.05,1.21-.46.05-1.15-.03-1.15-.03v-.54s.69.02,1.04-.02c.37-.04.51-.23.48-.5-.02-.21-.15-.29-.66-.38-.78-.14-1.1-.36-1.16-.9-.08-.7.36-1.06,1.04-1.13.45-.05,1.13.01,1.13.01v.55Z"/><path class="cls-2" d="m24.44,38.68l2.42-.62.15.59-.87.22.69,2.7-.67.17-.69-2.7-.88.22-.15-.59Z"/><path class="cls-2" d="m27.1,37.93l.65-.24,1.19,3.19-.65.24-1.19-3.19Z"/><path class="cls-2" d="m31.75,39.49c-.18.15-.56.41-.83.55-.94.47-1.42.08-1.96-.99-.58-1.15-.54-1.71.37-2.16.32-.16.74-.28.95-.33l.23.5c-.22.07-.62.23-.82.33-.47.24-.53.48-.1,1.34.41.82.63.97,1.15.71.21-.1.57-.33.73-.45l.27.5Z"/><path class="cls-2" d="m31.42,35.73l1.7-1.34.37.47-1.16.92.62.78.95-.75.37.47-.95.75.74.94-.54.43-2.11-2.67Z"/><path class="cls-2" d="m35.46,35.23l.83.78-.47.5-2.48-2.32.9-.96c.53-.57,1.07-.64,1.64-.11.34.32.44.68.37,1.04l1.28.53-.52.55-1.1-.49-.45.49Zm-.79-1.6l-.43.46.79.74.44-.47c.24-.25.16-.52-.06-.72-.24-.22-.51-.25-.73,0Z"/><path class="cls-2" d="m35.27,32.06l1.24-1.81.49.34-.85,1.24.66.45.68-1,.49.33-.68,1,.67.46.85-1.25.49.34-1.24,1.81-2.8-1.92Z"/><path class="cls-2" d="m36.68,29.9l.97-1.98.54.26-.66,1.36.72.35.53-1.09.53.26-.53,1.09.73.36.66-1.36.54.26-.97,1.98-3.06-1.49Z"/></g></g><g id="icon"><g><path class="cls-2" d="m29.43,26.82c-.36.65-1.04,1.05-1.79,1.05s-1.43-.4-1.79-1.05l-.34-.62-.34.62c-.36.65-1.04,1.05-1.79,1.05s-1.43-.4-1.79-1.05l-.33-.6v-.02s-.02.02-.02.02l-.33.6c-.36.65-1.04,1.05-1.79,1.05s-1.43-.4-1.79-1.05l-.34-.62-.34.62c-.36.65-1.04,1.05-1.79,1.05s-1.43-.4-1.79-1.05l-.34-.62-.34.62c-.36.65-1.04,1.05-1.79,1.05v.77c.51,0,1-.14,1.43-.39.26-.15.5-.35.7-.58.2.23.44.43.7.58.42.25.92.39,1.43.39s1-.14,1.43-.39c.26-.15.5-.35.7-.58.2.23.44.43.7.58.42.25.91.39,1.43.39s1-.14,1.43-.39c.26-.15.5-.35.7-.58.2.23.44.43.7.58.42.25.92.39,1.43.39s1-.14,1.43-.39c.26-.15.5-.35.7-.58.2.23.44.43.7.58.42.25.92.39,1.43.39s1-.14,1.43-.39c.26-.15.5-.35.7-.58.2.23.44.43.7.58.42.25.91.39,1.43.39v-.77c-.75,0-1.43-.4-1.79-1.05l-.34-.62-.34.62Z"/><path class="cls-2" d="m12.41,22.17c-.36.65-1.04,1.05-1.79,1.05v.77c.51,0,1-.14,1.43-.39.26-.15.5-.35.7-.58.2.23.44.43.7.58.91.53,2.08.54,3.02-.11-.13-.22-.25-.45-.36-.7-.99.76-2.43.46-3.03-.63l-.34-.62-.34.62Z"/><path class="cls-2" d="m29.43,22.17c-.6,1.09-2.04,1.39-3.03.63-.1.24-.22.47-.36.7.94.65,2.12.64,3.02.11.26-.15.5-.35.7-.58.2.23.44.43.7.58.42.25.91.39,1.43.39v-.77c-.75,0-1.43-.4-1.79-1.05l-.34-.62-.34.62Z"/><path class="cls-2" d="m12.41,17.53c-.36.65-1.04,1.05-1.79,1.05v.77c.51,0,1-.14,1.43-.39.26-.15.5-.35.7-.58.2.23.44.43.7.58.42.25.92.39,1.43.39.34,0,.67-.06.97-.18.07-.34.17-.68.28-1.03-.35.27-.79.43-1.26.43-.75,0-1.43-.4-1.79-1.05l-.34-.62-.34.62Z"/><path class="cls-2" d="m29.43,17.53c-.36.65-1.04,1.05-1.79,1.05-.46,0-.9-.16-1.26-.43.11.35.21.69.28,1.03.31.11.64.18.97.18.51,0,1-.14,1.43-.39.26-.15.5-.35.7-.58.2.23.44.43.7.58.42.25.91.39,1.43.39v-.77c-.75,0-1.43-.4-1.79-1.05l-.34-.62-.34.62Z"/><g><path class="cls-2" d="m21.57,11.79l-.31-.41-.31.41c-.17.22-4.11,5.52-4.11,8.85,0,2.44,1.98,4.42,4.42,4.42s4.42-1.98,4.42-4.42c0-3.32-3.95-8.62-4.11-8.85Zm-.31,12.5c-2.01,0-3.65-1.64-3.65-3.65,0-2.55,2.72-6.63,3.65-7.95.93,1.32,3.65,5.4,3.65,7.95,0,2.01-1.63,3.65-3.65,3.65Z"/><path class="cls-2" d="m23.36,20.25c-.21,0-.39.17-.39.39,0,.94-.77,1.71-1.71,1.71-.21,0-.39.17-.39.39s.17.39.39.39c1.37,0,2.49-1.12,2.49-2.49,0-.21-.17-.39-.39-.39Z"/></g></g></g><g id="rahmen"><path class="cls-2" d="m21.26,6.42c8.18,0,14.84,6.66,14.84,14.84s-6.66,14.84-14.84,14.84-14.84-6.66-14.84-14.84,6.66-14.84,14.84-14.84m0-.75c-8.61,0-15.59,6.98-15.59,15.59s6.98,15.59,15.59,15.59,15.59-6.98,15.59-15.59-6.98-15.59-15.59-15.59h0Z"/></g></svg>