<?xml version="1.0" encoding="UTF-8"?><svg xmlns="http://www.w3.org/2000/svg" viewBox="0 0 42.52 42.52" width="150" height="150"><defs><style>.cls-1{fill:none;}.cls-2{fill:#7aa069;}</style></defs><g id="text"><g><path class="cls-2" d="m2.03,24.34c-1.25.12-1.71-.29-1.78-1.08-.08-.79.29-1.28,1.54-1.4,1.29-.12,1.77.29,1.85,1.08.08.8-.32,1.28-1.61,1.4Zm-.18-1.91c-.9.09-1.16.34-1.12.79.04.45.34.64,1.24.55.96-.09,1.23-.32,1.18-.79-.04-.46-.34-.65-1.31-.55Z"/><path class="cls-2" d="m4.26,25.87l-.03.33-3.64-.25.02-.32,3.65.25Zm-2.49,1.54c-.47.12-.75-.04-.84-.39-.09-.35.09-.61.56-.73.47-.11.74.04.83.39.09.35-.08.62-.55.73Zm-.51-.47c.03.13.16.14.41.07.25-.06.35-.12.32-.25-.03-.13-.15-.14-.4-.08-.25.06-.36.13-.33.26Zm2.09-1.4c-.47.12-.75-.04-.83-.39-.09-.35.09-.62.56-.73.47-.12.74.04.83.39.09.35-.08.61-.55.73Zm-.5-.47c.03.13.16.14.41.08.25-.06.35-.13.32-.25-.03-.13-.15-.14-.4-.08-.25.06-.36.13-.33.25Z"/><path class="cls-2" d="m3.04,29.51l-.96.46-.24-.5,3.08-1.5.55,1.13c.34.7.17,1.21-.53,1.55-.7.34-1.26.18-1.6-.52l-.31-.63Zm.74.42c.18.37.49.43.92.22.42-.21.52-.46.34-.83l-.3-.63-1.26.61.3.63Z"/><path class="cls-2" d="m5.72,33.2l-.86-1.21-1.21.86-.32-.45,2.79-1.99.32.45-1.19.85.86,1.21,1.19-.85.32.46-2.79,1.99-.32-.46,1.21-.86Z"/><path class="cls-2" d="m6.68,34.08c.8-.81,1.48-1.04,2.24-.29s.54,1.43-.26,2.25c-.82.83-1.46,1.02-2.22.27-.76-.75-.57-1.4.24-2.22Zm1.57,1.55c.6-.6.8-1.03.33-1.5-.47-.46-.9-.25-1.5.35-.6.61-.78,1.01-.3,1.48s.86.29,1.47-.33Z"/><path class="cls-2" d="m11.55,36.63s-.52-.47-.76-.64c-.34-.24-.6-.25-.77,0-.19.26-.08.43.3.9.47.58.57.89.23,1.36-.44.61-1.01.6-1.56.21-.36-.26-.83-.76-.83-.76l.3-.33s.5.47.78.67c.34.25.61.21.82-.08.17-.24.1-.41-.25-.81-.49-.58-.62-.95-.27-1.44.4-.56.94-.53,1.49-.13.35.25.81.73.81.73l-.3.34Z"/><path class="cls-2" d="m11.71,38.84l-.48.95-.5-.25,1.56-3.05,1.12.57c.7.35.87.87.52,1.55-.35.69-.89.9-1.59.55l-.62-.32Zm.84-.11c.37.19.65.05.87-.38.21-.42.14-.68-.23-.87l-.62-.32-.64,1.25.62.32Z"/><path class="cls-2" d="m16.11,40.17l-1.41-.44-.44,1.41-.53-.17,1.02-3.27.53.17-.44,1.39,1.41.44.44-1.39.54.17-1.02,3.27-.54-.17.44-1.41Z"/><path class="cls-2" d="m18.32,38.65l1.1.15.38,3.51-.55-.08-.08-.75-1.3-.18-.28.7-.55-.08,1.3-3.28Zm-.29,2.18l1.09.15-.18-1.78-.25-.03-.65,1.66Z"/><path class="cls-2" d="m20.02,38.91l2.5-.04v.5s-.96.01-.96.01l.04,2.93h-.56s-.04-2.92-.04-2.92h-.98s0-.48,0-.48Z"/><path class="cls-2" d="m22.8,38.85l2.14-.3.07.48-1.59.23.14.96,1.29-.18.07.47-1.29.18.14.99,1.59-.23.07.48-2.14.3-.48-3.39Z"/><path class="cls-2" d="m28.55,38.08c.17.43.05.71-.33,1.17l.79.35c0-.14-.08-.51-.15-.71l.49-.18c.09.35.15.79.14,1.04l.75.3-.16.44-.7-.26c-.1.36-.38.67-.8.83-.92.35-1.35.09-1.58-.52-.2-.53-.07-.86.33-1.21-.36-.2-.46-.32-.57-.62-.16-.43.08-.83.63-1.04.58-.22.99-.08,1.17.39Zm-.87.93l.14.07c.25-.3.33-.48.23-.75-.09-.24-.26-.31-.51-.21-.24.09-.34.26-.24.52.06.16.17.27.38.37Zm1.24,1.08l-1.22-.54c-.26.23-.33.46-.21.77.14.37.41.5.86.33.29-.11.53-.32.58-.55Z"/><path class="cls-2" d="m32.16,35.79s-.63.32-.87.48c-.35.23-.45.48-.28.72.18.27.37.23.95.04.71-.23,1.03-.22,1.36.27.42.62.21,1.16-.36,1.53-.37.25-1.01.51-1.01.51l-.2-.4s.61-.3.91-.5c.35-.24.41-.5.21-.8-.16-.24-.35-.24-.85-.05-.72.25-1.11.24-1.44-.25-.38-.58-.16-1.07.41-1.45.36-.24.97-.5.97-.5l.21.4Z"/><path class="cls-2" d="m32.31,34.99l.43-.36,2.2,2.63-.43.36-2.2-2.63Z"/><path class="cls-2" d="m35.67,36.62l-2.44-2.4.39-.39,2.08,2.06.96-.97.35.35-1.35,1.37Z"/><path class="cls-2" d="m34.76,32.59l.35-.43,2.66,2.16-.35.43-2.66-2.16Z"/><path class="cls-2" d="m39.52,31.69c-.08.22-.26.61-.44.88-.57.88-1.2.75-2.18.12-1.04-.67-1.34-1.18-.79-2.04.19-.3.48-.6.64-.75l.37.26c-.16.17-.42.49-.55.7-.34.53-.17.82.64,1.35.79.51,1.13.58,1.5.02.14-.21.32-.57.41-.77l.39.24Z"/><path class="cls-2" d="m38.38,30.4c-1.04-.46-1.5-1.02-1.06-2s1.14-1.01,2.19-.54c1.06.47,1.47,1,1.03,1.98-.44.98-1.11,1.03-2.16.56Zm.9-2.02c-.78-.34-1.25-.39-1.52.22-.27.6.08.93.85,1.28.78.35,1.22.37,1.49-.23.27-.61-.03-.9-.82-1.26Z"/><path class="cls-2" d="m38.06,26.77l.23-.94,3.1-.31.02-.07-2.85-.7.13-.54,3.32.82-.23.92-3.11.33-.02.07,2.85.7-.13.54-3.32-.82Z"/><path class="cls-2" d="m38.74,23.64l.17-2.16.48.04-.12,1.6.97.07.1-1.3.48.04-.1,1.3,1,.08.12-1.6.49.04-.17,2.16-3.42-.26Z"/></g><rect class="cls-1" x="0" width="42.52" height="42.52"/></g><g id="icon"><g><path class="cls-2" d="m25.84,30.53h-10c-1.04,0-1.97-.54-2.49-1.44s-.52-1.97,0-2.87l4.42-7.66c.32-.56.49-1.19.49-1.84v-2.85c-.41-.14-.68-.49-.68-.91,0-.54.44-.97.97-.97h4.55c.54,0,.97.44.97.97,0,.43-.29.8-.68.93v.71c0,.21-.17.38-.38.38s-.38-.17-.38-.38v-1.04c0-.21.17-.38.38-.38s.3-.1.3-.22-.1-.22-.22-.22h-4.55c-.12,0-.22.1-.22.22s.1.22.22.22c.21,0,.46.17.46.38v3.17c0,.78-.21,1.54-.59,2.21l-4.42,7.66c-.38.66-.38,1.46,0,2.12s1.07,1.06,1.84,1.06h10c.77,0,1.45-.4,1.84-1.06.38-.66.38-1.46,0-2.12l-1.71-2.96c-.1-.18-.04-.41.14-.51.18-.1.41-.04.51.14l1.71,2.96c.52.9.52,1.97,0,2.87-.52.9-1.45,1.44-2.49,1.44Z"/><path class="cls-2" d="m20.11,21.01c-.32,0-.65-.05-.99-.16-.29-.09-.58-.21-.86-.33-.3-.13-.59-.25-.86-.32-.2-.05-.32-.26-.27-.46s.25-.32.46-.27c.33.08.65.22.97.36.26.11.52.22.79.31.42.13.79.16,1.16.09.2-.04.4.1.44.3s-.1.4-.3.44c-.17.03-.35.05-.52.05Z"/><path class="cls-2" d="m25.25,21.14c-.33,0-.65-.14-.87-.39l-1.71-1.93c-.32-.37-.31-.92.04-1.27.31-.31.78-.36,1.15-.13l1.37.86,2.94-2.5c.17-.15.41-.22.63-.19.23.03.43.15.57.33.23.31.22.73-.03,1.03l-3.2,3.78c-.22.26-.54.41-.87.41h-.01Zm-1.89-3.11s-.09.02-.12.05c-.07.07-.07.17,0,.24l1.71,1.94c.08.09.19.14.31.14.12,0,.23-.05.31-.15h0l3.2-3.78s.02-.07,0-.1l-.36-.3.24.29-3.06,2.6c-.15.15-.52.18-.71-.02l-1.42-.88s-.06-.03-.09-.03Zm1.75.36s-.02.02-.03.03l.03-.03Z"/><path class="cls-2" d="m25.09,22.91c-2.2,0-3.99-1.79-3.99-3.99s1.79-3.99,3.99-3.99c.78,0,1.54.23,2.19.65.17.11.22.35.11.52-.12.17-.35.22-.52.11-.53-.35-1.14-.53-1.77-.53-1.79,0-3.24,1.45-3.24,3.24s1.45,3.24,3.24,3.24,3.24-1.45,3.24-3.24c0-.09,0-.19-.01-.28-.02-.21.14-.39.34-.41.2-.03.39.13.41.34,0,.11.01.23.01.34,0,2.2-1.79,3.99-3.99,3.99Z"/><path class="cls-2" d="m25.16,28.55c-.21,0-.38-.17-.38-.38v-2.48c0-.21.17-.38.38-.38s.38.17.38.38v2.48c0,.21-.17.38-.38.38Z"/><path class="cls-2" d="m22.9,28.55c-.21,0-.38-.17-.38-.38v-1.77c0-.21.17-.38.38-.38s.38.17.38.38v1.77c0,.21-.17.38-.38.38Z"/><path class="cls-2" d="m20.63,28.55c-.21,0-.38-.17-.38-.38v-4.44c0-.21.17-.38.38-.38s.38.17.38.38v4.44c0,.21-.17.38-.38.38Z"/><path class="cls-2" d="m18.36,28.55c-.21,0-.38-.17-.38-.38v-3.16c0-.21.17-.38.38-.38s.38.17.38.38v3.16c0,.21-.17.38-.38.38Z"/><path class="cls-2" d="m16.09,28.55c-.21,0-.38-.17-.38-.38v-1.21c0-.21.17-.38.38-.38s.38.17.38.38v1.21c0,.21-.17.38-.38.38Z"/></g></g><g id="rahmen"><path class="cls-2" d="m22.93,15.05h-.81c-.21,0-.38-.17-.38-.38s.17-.38.38-.38h.81c.21,0,.38.17.38.38s-.17.38-.38.38Z"/><path class="cls-2" d="m21.25,6.42c8.18,0,14.84,6.66,14.84,14.84s-6.66,14.84-14.84,14.84-14.84-6.66-14.84-14.84,6.66-14.84,14.84-14.84m0-.75c-8.61,0-15.59,6.98-15.59,15.59s6.98,15.59,15.59,15.59,15.59-6.98,15.59-15.59-6.98-15.59-15.59-15.59h0Z"/></g></svg>