<?xml version="1.0" encoding="UTF-8"?><svg xmlns="http://www.w3.org/2000/svg" viewBox="0 0 42.52 42.52" width="150" height="150"><defs><style>.cls-1{fill:none;}.cls-2{fill:#7aa069;}</style></defs><g id="text"><g><path class="cls-2" d="m.2,20.4l3.43-.05.02,1.19c.02,1.11-.57,1.38-1.64,1.4-1.09.02-1.78-.21-1.79-1.34l-.02-1.19Zm2.96,1.14v-.63s-2.46.04-2.46.04v.63c.02.69.55.79,1.3.78.75-.01,1.17-.12,1.16-.81Z"/><path class="cls-2" d="m3.73,23.34l.37,2.13-.48.08-.27-1.58-.96.17.22,1.29-.47.08-.22-1.29-.99.17.27,1.58-.48.08-.37-2.13,3.38-.59Z"/><path class="cls-2" d="m2.29,27.09l-1.15.39-.18-.52,3.24-1.11.42,1.23c.24.71.06,1.2-.66,1.45-.46.16-.84.08-1.12-.21l-1.09.97-.2-.58.99-.86-.26-.76Zm1.87.15l-.24-.7-1.18.4.24.71c.14.4.45.46.78.34.37-.13.52-.38.39-.76Z"/><path class="cls-2" d="m5.11,28.54l.48.84-1.94,1.99,2.7-.67.48.84-2.97,1.7-.28-.49,2.44-1.4-.04-.06-2.72.63-.29-.5,1.91-2.03-.04-.06-2.44,1.4-.28-.48,2.97-1.7Z"/><path class="cls-2" d="m7.54,32.34l.72.84-2.04,2.88-.37-.42.44-.62-.86-1-.68.34-.36-.42,3.14-1.6Zm-1.66,1.44l.72.83,1.04-1.45-.16-.19-1.59.81Z"/><path class="cls-2" d="m8.67,33.66l1.88,1.66-.33.37-.72-.64-1.94,2.2-.42-.37,1.94-2.2-.73-.65.33-.37Z"/><path class="cls-2" d="m9.66,36.82c.62-.96,1.24-1.33,2.14-.75.9.58.83,1.29.21,2.25-.63.98-1.21,1.3-2.12.72-.91-.58-.85-1.25-.23-2.23Zm1.86,1.19c.46-.72.57-1.18.02-1.54-.56-.36-.93-.06-1.39.65-.46.72-.55,1.15,0,1.51.56.36.9.11,1.37-.62Z"/><path class="cls-2" d="m11.93,40.16l1.4-3.12.51.23-1.2,2.67,1.25.56-.2.45-1.75-.79Z"/><path class="cls-2" d="m14.65,39.52c.31-1.1.8-1.63,1.83-1.34,1.03.29,1.16.99.85,2.09-.32,1.12-.78,1.6-1.81,1.3-1.03-.29-1.18-.95-.87-2.06Zm2.12.6c.23-.82.2-1.29-.43-1.47-.63-.18-.91.21-1.14,1.03-.23.82-.19,1.26.45,1.44.64.18.89-.16,1.13-1Z"/><path class="cls-2" d="m19.42,40.43l.97.1-.19,1.73s-.74.04-1.15,0c-1.08-.12-1.3-.77-1.17-1.9.13-1.19.52-1.73,1.53-1.62.52.06,1.14.26,1.14.26l-.07.44s-.59-.14-1.05-.19c-.68-.07-.89.22-.99,1.18-.1.93,0,1.29.7,1.36.22.02.49.02.55.01l.09-.83-.42-.05.05-.49Z"/><path class="cls-2" d="m21.1,38.89h.56s.05,3.42.05,3.42h-.55s-.05-3.42-.05-3.42Z"/><path class="cls-2" d="m24.83,41.99c-.23.08-.64.18-.96.22-1.04.12-1.35-.45-1.48-1.61-.14-1.23.06-1.79,1.08-1.91.35-.04.77-.01.99.01l.03.45c-.23-.01-.65,0-.89.02-.63.07-.75.39-.64,1.36.11.94.27,1.25.94,1.17.25-.03.65-.11.86-.17l.07.46Z"/><path class="cls-2" d="m25.34,38.42l1.07-.29,1.72,3.08-.54.15-.37-.66-1.27.34v.76s-.52.15-.52.15l-.08-3.52Zm.58,2.12l1.06-.29-.86-1.56-.24.07.05,1.79Z"/><path class="cls-2" d="m28.87,40.91l-1.36-3.15.51-.22,1.16,2.69,1.25-.54.2.46-1.76.76Z"/><path class="cls-2" d="m31.25,39.82l-1.74-2.95.48-.28,1.48,2.52,1.17-.69.25.43-1.65.97Z"/><path class="cls-2" d="m34.13,37.92l-.45.34-.85-1.13-2.07-.96.5-.38,1.46.74-.3-1.61.5-.37.36,2.25.85,1.13Z"/><path class="cls-2" d="m33.6,33.91l1.66-1.87.37.33-.64.72,2.19,1.95-.37.42-2.19-1.95-.65.73-.37-.33Z"/><path class="cls-2" d="m35.4,31.83l1.19-1.8.4.27-.89,1.34.81.54.72-1.09.4.26-.72,1.09.83.55.89-1.34.41.27-1.19,1.8-2.85-1.89Z"/><path class="cls-2" d="m38.09,28.1s-.37.6-.5.86c-.18.38-.14.64.13.76.29.14.43,0,.83-.45.49-.57.77-.72,1.3-.47.68.32.77.88.48,1.49-.19.4-.6.95-.6.95l-.38-.24s.37-.57.52-.89c.18-.38.09-.64-.23-.79-.26-.12-.42-.03-.76.39-.49.59-.83.78-1.37.53-.62-.29-.69-.83-.39-1.45.19-.39.57-.93.57-.93l.39.23Z"/><path class="cls-2" d="m37.73,27.67l.74-2.39.47.15-.29.92,2.8.87-.17.54-2.8-.87-.29.93-.47-.15Z"/><path class="cls-2" d="m38.5,25.03l.34-2.14.48.08-.25,1.59.96.15.21-1.29.47.08-.21,1.29.99.16.25-1.59.48.08-.34,2.14-3.39-.54Z"/><path class="cls-2" d="m42.33,22.47l-3.43.05-.02-1.19c-.02-1.11.57-1.38,1.64-1.4,1.09-.02,1.78.21,1.79,1.34l.02,1.19Zm-2.96-1.14v.63s2.46-.04,2.46-.04v-.63c-.02-.69-.55-.79-1.3-.78-.75.01-1.17.12-1.16.81Z"/></g><rect class="cls-1" width="42.52" height="42.52"/></g><g id="icon"><g><path class="cls-2" d="m21.22,29.77s-.05,0-.07,0c-1.03-.03-1.93-.27-3.1-.84-.38-.18-.74-.37-1.08-.55l.09-.38-.18.33c-.86-.45-1.94-.58-2.9-.66-.21-.02-.36-.2-.34-.4.02-.21.19-.36.4-.34,1.03.08,2.21.23,3.12.71,0,0,.11.06.11.06.38.21.74.39,1.1.56,1.08.52,1.87.74,2.8.76.61.03,2.05-.3,5.02-1.93,1.47-.81,4.19-2.3,4.25-2.94,0-.02,0-.06-.09-.13-.52-.42-2.35.54-3.82,1.32-.35.19-.71.37-1.06.55-.18.1-.41.02-.5-.16-.09-.18-.02-.41.16-.5.35-.18.7-.36,1.05-.55,2.01-1.06,3.75-1.97,4.65-1.24.33.27.38.58.36.78-.08.88-1.5,1.8-4.64,3.53-2.44,1.34-4.23,2.02-5.33,2.02Z"/><path class="cls-2" d="m23.74,27.64c-.49,0-1.12-.21-1.94-.5l-.67-.24c-1.01-.36-1.89-.67-3.11-.77-.21-.02-.36-.2-.34-.4s.2-.36.4-.34c1.32.11,2.24.43,3.31.81l.66.23c.84.29,1.63.56,1.9.42.02-.01.07-.04.11-.16.12-.39-.99-1.49-2.92-2.27-.55-.22-1.02-.53-1.47-.82-.58-.38-1.13-.73-1.73-.81-.88-.12-1.68.09-2.34.31-.54.18-1.03.32-1.49.42-.21.05-.4-.08-.45-.28-.04-.2.08-.4.28-.45.43-.1.9-.23,1.42-.4.71-.23,1.64-.48,2.68-.35.76.1,1.41.52,2.04.92.42.27.86.56,1.35.75,1.55.62,3.72,1.99,3.36,3.18-.09.29-.25.49-.48.61-.16.08-.34.12-.54.12Z"/><path class="cls-2" d="m24.37,24.92c-.12,0-.25-.06-.32-.17-.11-.17-.06-.41.12-.52l.35-.23c1.26-.81,2.35-1.51,3.32-1.51h0c.39,0,.69.1.95.3.09.07.54.46.54.98,0,.21-.17.38-.38.38s-.38-.17-.38-.38c0-.11-.13-.29-.26-.39-.09-.07-.21-.14-.48-.14h0c-.75,0-1.8.67-2.92,1.39l-.36.23c-.06.04-.13.06-.2.06Z"/><path class="cls-2" d="m23.52,24.33c-.12,0-.23-.05-.3-.15-.12-.17-.09-.4.08-.52.24-.17.45-.34.65-.49.76-.58,1.31-1.01,2.01-1.07.18-.02.34,0,.5.02.34.07.79.43.71,1.04-.02.21-.22.36-.42.33-.21-.02-.35-.21-.33-.42.02-.16-.09-.21-.12-.22-.09-.02-.17-.02-.29-.01-.48.04-.93.39-1.62.92-.2.15-.42.32-.66.5-.07.05-.14.07-.22.07Z"/><path class="cls-2" d="m22.54,23.83c-.11,0-.22-.05-.29-.14-.13-.16-.11-.4.05-.53.28-.23.47-.41.62-.55.31-.29.53-.51,1.01-.58.16-.03.32-.05.53,0,.37.09.79.37.79.83,0,.21-.17.38-.38.38s-.38-.17-.38-.38c-.01,0-.1-.07-.23-.1-.05-.01-.09-.01-.23,0-.24.04-.31.1-.61.38-.16.15-.36.35-.66.59-.07.06-.15.08-.24.08Z"/><path class="cls-2" d="m13.82,28.52h-1.93c-.31,0-.56-.25-.56-.56v-5.31c0-.31.25-.56.56-.56h1.93c.31,0,.56.25.56.56v5.31c0,.31-.25.56-.56.56Zm-1.74-.75h1.55v-4.93h-1.55v4.93Z"/><path class="cls-2" d="m20.59,21.45c-.48,0-.94-.21-1.26-.57l-2.83-3.2c-.45-.51-.43-1.28.05-1.76.43-.43,1.08-.5,1.59-.18l2.42,1.53,5-4.25c.24-.2.55-.3.86-.26.31.03.59.2.78.45.31.42.3,1-.04,1.4l-5.29,6.25c-.31.37-.78.59-1.26.59h-.02Zm-3.13-5.16c-.14,0-.27.05-.38.16-.2.2-.21.52-.02.73l2.83,3.2c.18.2.43.3.7.31.27,0,.52-.12.7-.33l.29.24-.29-.24,5.29-6.25c.11-.13.12-.33.01-.47-.06-.08-.15-.14-.26-.15-.1-.01-.2.02-.28.09l-5.07,4.31c-.19.19-.61.21-.85-.02l-2.4-1.5c-.09-.06-.19-.08-.29-.08Zm3.04,1.04s-.01,0-.02.01h.02Z"/></g></g><g id="rahmen"><path class="cls-2" d="m21.26,6.42c8.18,0,14.84,6.66,14.84,14.84s-6.66,14.84-14.84,14.84-14.84-6.66-14.84-14.84,6.66-14.84,14.84-14.84m0-.75c-8.61,0-15.59,6.98-15.59,15.59s6.98,15.59,15.59,15.59,15.59-6.98,15.59-15.59-6.98-15.59-15.59-15.59h0Z"/></g></svg>