<?xml version="1.0" encoding="utf-8"?>
<!-- Generator: Adobe Illustrator 26.5.0, SVG Export Plug-In . SVG Version: 6.00 Build 0)  -->
<svg version="1.1" id="Ebene_1" xmlns="http://www.w3.org/2000/svg" xmlns:xlink="http://www.w3.org/1999/xlink" x="0px" y="0px"
	 viewBox="0 0 150 150" style="enable-background:new 0 0 150 150;" xml:space="preserve">
<style type="text/css">
	.st0{fill:#7AA069;}
</style>
<g>
	<g id="text">
		<g>
			<path class="st0" d="M11.7,95.6l2.3,3.9l-7.4,6.6l9.7-2.7l2.3,3.9L7,113.9l-1.2-2.3l8.9-5.1v-0.4l-9.7,2.3l-1.2-2.3l7-7v-0.4
				l-8.9,5.1L0,101.8L11.7,95.6z"/>
			<path class="st0" d="M19.8,109.2l1.6,1.9l-10.5,8.2l-1.6-1.9L19.8,109.2z"/>
			<path class="st0" d="M19.4,128.2c-0.8-0.4-2.3-1.6-3.1-2.3c-2.7-3.1-1.9-5.1,1.6-8.5c3.5-3.5,5.8-3.9,8.5-1.2
				c0.8,1.2,1.9,2.3,2.3,3.1l-1.6,1.6c-0.4-0.8-1.6-1.9-2.3-2.7c-1.6-1.6-2.3-1.6-5.1,1.2c-2.7,2.3-2.7,3.5-1.2,5.1
				c0.8,0.8,1.9,1.6,2.3,2.3L19.4,128.2z"/>
			<path class="st0" d="M26.4,128.6l-2.7,3.5l-1.9-1.6l8.2-10.5l4.3,3.1c2.3,1.9,2.7,3.9,1.2,6.2c-1.2,1.6-2.3,1.9-3.9,1.9l-1.6,5.1
				l-2.7-1.6l1.6-4.3L26.4,128.6z M32.3,125.1l-1.9-1.6l-2.7,3.5l1.9,1.6c1.2,0.8,1.9,0.4,2.7-0.4C33.4,126.7,33.4,125.9,32.3,125.1
				z"/>
			<path class="st0" d="M35,132.5c1.9-3.9,4.3-5.4,8.2-3.5c3.5,1.9,3.9,4.7,1.6,8.5c-2.3,3.9-4.3,5.4-8.2,3.5
				C33,139.1,33,136.4,35,132.5z M42.4,136c1.6-2.7,1.6-4.3-0.4-5.4s-3.1,0-4.7,2.7s-1.6,4.3,0.4,5.1S40.8,138.7,42.4,136z"/>
			<path class="st0" d="M49,141.8l-1.2,3.5l-2.7-0.8l4.3-12.4l4.7,1.6c3.1,1.2,3.9,3.1,3.1,5.8c-0.8,3.1-3.1,3.9-5.8,3.1L49,141.8z
				 M51.7,140.3c1.2,0.4,2.3,0,2.7-1.6c0.4-1.6,0-2.3-1.2-2.7l-1.9-0.8l-1.6,4.7L51.7,140.3z"/>
			<path class="st0" d="M57.1,148.1l2.3-12.8l2.7,0.4l-1.9,10.5l4.7,0.8l-0.4,2.3L57.1,148.1z"/>
			<path class="st0" d="M69.6,136.8h5.1l2.3,13.2h-2.7l-0.4-2.3h-4.7l-0.8,2.3h-2.7L69.6,136.8z M69.9,145.3h3.5l-1.2-6.2h-0.8
				L69.9,145.3z"/>
			<path class="st0" d="M86.7,138.3c0,0-2.7,0-3.9,0c-1.6,0-1.9,0.8-1.9,1.6s0.8,1.2,3.1,1.6c3.1,0.8,3.9,1.2,4.3,3.5
				c0.4,2.7-1.6,4.3-3.9,4.7c-1.9,0.4-4.3,0-4.3,0v-1.9c0,0,2.7,0,3.9,0c1.6,0,1.9-0.8,1.9-1.9c0-0.8-0.8-1.2-2.7-1.6
				c-3.1-0.4-4.3-1.6-4.7-3.5c-0.4-2.7,1.6-4.3,3.9-4.3c1.9-0.4,4.3,0,4.3,0L86.7,138.3z"/>
			<path class="st0" d="M87,136l9.3-2.3l0.8,2.3l-3.5,0.8l2.7,10.5l-2.7,0.8l-2.3-10.9l-3.5,0.8L87,136z"/>
			<path class="st0" d="M97.5,132.9l2.3-0.8l4.7,12.4l-2.3,0.8L97.5,132.9z"/>
			<path class="st0" d="M115.4,139.1c-0.8,0.4-2.3,1.6-3.1,1.9c-3.5,1.9-5.4,0.4-7.8-3.9c-2.3-4.7-1.9-6.6,1.6-8.5
				c1.2-0.8,2.7-1.2,3.9-1.2l0.8,1.9c-0.8,0.4-2.3,0.8-3.1,1.2c-1.9,0.8-1.9,1.9-0.4,5.1c1.6,3.1,2.3,3.9,4.7,2.7
				c0.8-0.4,2.3-1.2,2.7-1.6L115.4,139.1z"/>
			<path class="st0" d="M114.2,124.4l6.6-5.1l1.6,1.9l-4.7,3.5l2.3,3.1l3.5-2.7l1.6,1.9l-3.5,2.3l2.7,3.5l-1.9,1.6L114.2,124.4z"/>
			<path class="st0" d="M130.2,122.4l3.1,3.1l-1.9,1.9l-9.7-8.9l3.5-3.9c1.9-2.3,4.3-2.3,6.2-0.4c1.2,1.2,1.6,2.7,1.6,3.9l5.1,1.9
				l-1.9,2.3l-4.3-1.9L130.2,122.4z M127.1,116.2l-1.6,1.9l3.1,2.7l1.6-1.9c0.8-1.2,0.8-1.9-0.4-2.7
				C129,115.4,127.8,115.4,127.1,116.2z"/>
			<path class="st0" d="M129.4,110.4l4.7-7l1.9,1.2l-3.5,4.7l2.7,1.6l2.7-3.9l1.9,1.2l-2.7,3.9l2.7,1.9l3.5-4.7l1.9,1.2l-5.1,7.4
				L129.4,110.4z"/>
			<path class="st0" d="M134.8,101.8l3.9-7.8l1.9,1.2l-2.7,5.4l2.7,1.2l1.9-4.3l1.9,1.2l-1.9,4.3l2.7,1.6l2.7-5.4l1.9,1.2l-3.9,7.8
				L134.8,101.8z"/>
		</g>
	</g>
	<g id="icon">
		<g>
			<path class="st0" d="M106.5,89.8c-1.6,2.7-3.9,4.3-7,4.3c-2.7,0-5.4-1.6-7-4.3l-1.2-2.3l-1.2,2.3c-1.6,2.7-3.9,4.3-7,4.3
				c-2.7,0-5.4-1.6-7-4.3L75,87.4l0,0l0,0l-1.2,2.3c-1.6,2.7-3.9,4.3-7,4.3c-2.7,0-5.4-1.6-7-4.3l-1.6-2.3l-1.2,2.3
				c-1.6,2.7-3.9,4.3-7,4.3c-2.7,0-5.4-1.6-7-4.3L42,87.4l-1.2,2.3c-1.6,2.7-3.9,4.3-7,4.3v3.1c1.9,0,3.9-0.4,5.4-1.6
				c1.2-0.8,1.9-1.2,2.7-2.3c0.8,0.8,1.6,1.6,2.7,2.3c1.6,0.8,3.5,1.6,5.4,1.6s3.9-0.4,5.4-1.6c1.2-0.8,1.9-1.2,2.7-2.3
				c0.8,0.8,1.6,1.6,2.7,2.3c1.6,0.8,3.5,1.6,5.4,1.6s3.9-0.4,5.4-1.6c1.2-0.8,1.9-1.2,2.7-2.3c0.8,0.8,1.6,1.6,2.7,2.3
				c1.6,0.8,3.5,1.6,5.4,1.6c1.9,0,3.9-0.4,5.4-1.6c1.2-0.8,1.9-1.2,2.7-2.3c0.8,0.8,1.6,1.6,2.7,2.3c1.6,0.8,3.5,1.6,5.4,1.6
				c1.9,0,3.9-0.4,5.4-1.6c1.2-0.8,1.9-1.2,2.7-2.3c0.8,0.8,1.6,1.6,2.7,2.3c1.6,0.8,3.5,1.6,5.4,1.6V94c-2.7,0-5.4-1.6-7-4.3
				l-1.2-2.3L106.5,89.8z"/>
			<path class="st0" d="M40.4,71.9c-1.6,2.7-3.9,4.3-7,4.3v2.7c1.9,0,3.9-0.4,5.4-1.6c1.2-0.8,1.9-1.2,2.7-2.3
				c0.8,0.8,1.6,1.6,2.7,2.3c3.5,1.9,8.2,1.9,11.7-0.4c-0.4-0.8-1.2-1.9-1.6-2.7c-3.9,3.1-9.3,1.9-11.7-2.3l-1.2-2.3L40.4,71.9z"/>
			<path class="st0" d="M106.5,71.9c-2.3,4.3-7.8,5.4-11.7,2.3c-0.4,0.8-0.8,1.9-1.6,2.7c3.5,2.3,8.2,2.3,11.7,0.4
				c1.2-0.8,1.9-1.2,2.7-2.3c0.8,0.8,1.6,1.6,2.7,2.3c1.6,0.8,3.5,1.6,5.4,1.6v-3.1c-2.7,0-5.4-1.6-7-4.3l-1.2-2.3L106.5,71.9z"/>
			<path class="st0" d="M40.4,53.6c-1.6,2.7-3.9,4.3-7,4.3V61c1.9,0,3.9-0.4,5.4-1.6c1.2-0.8,1.9-1.2,2.7-2.3
				c0.8,0.8,1.6,1.6,2.7,2.3c1.6,0.8,3.5,1.6,5.4,1.6c1.2,0,2.7-0.4,3.9-0.8c0.4-1.2,0.8-2.7,1.2-3.9c-1.6,1.2-3.1,1.6-5.1,1.6
				c-2.7,0-5.4-1.6-7-4.3l-1.2-2.3L40.4,53.6z"/>
			<path class="st0" d="M106.5,53.6c-1.6,2.7-3.9,4.3-7,4.3c-1.9,0-3.5-0.8-5.1-1.6c0.4,1.2,0.8,2.7,1.2,3.9
				c1.2,0.4,2.3,0.8,3.9,0.8c1.9,0,3.9-0.4,5.4-1.6c1.2-0.8,1.9-1.2,2.7-2.3c0.8,0.8,1.6,1.6,2.7,2.3c1.6,0.8,3.5,1.6,5.4,1.6v-3.1
				c-2.7,0-5.4-1.6-7-4.3l-1.2-2.3L106.5,53.6z"/>
			<g>
				<path class="st0" d="M76.2,31.5L75,29.9l-1.2,1.6c-0.8,0.8-15.9,21.4-15.9,34.2c0,9.3,7.8,17.1,17.1,17.1S92.1,75,92.1,65.7
					C92.1,52.8,76.6,32.3,76.2,31.5z M75,80.1c-7.8,0-14-6.2-14-14C61,56,71.5,40.4,75,35c3.5,5.1,14,21,14,31.1
					C89,73.4,82.8,80.1,75,80.1z"/>
				<path class="st0" d="M83.2,64.1c-0.8,0-1.6,0.8-1.6,1.6c0,3.5-3.1,6.6-6.6,6.6c-0.8,0-1.6,0.8-1.6,1.6c0,0.8,0.8,1.6,1.6,1.6
					c5.4,0,9.7-4.3,9.7-9.7C84.3,64.9,83.9,64.1,83.2,64.1z"/>
			</g>
		</g>
	</g>
	<g id="rahmen">
		<g>
			<path class="st0" d="M75,10.5c31.9,0,57.5,26,57.5,57.5s-26,57.5-57.5,57.5c-31.9,0-57.5-26-57.5-57.5S43.1,10.5,75,10.5 M75,7.8
				C41.6,7.8,14.4,35,14.4,68.4S41.6,129,75,129s60.6-27.2,60.6-60.6C135.6,34.6,108.4,7.8,75,7.8L75,7.8z"/>
		</g>
	</g>
</g>
</svg>
