<?xml version="1.0" encoding="utf-8"?>
<!-- Generator: Adobe Illustrator 26.5.0, SVG Export Plug-In . SVG Version: 6.00 Build 0)  -->
<svg version="1.1" id="Ebene_1" xmlns="http://www.w3.org/2000/svg" xmlns:xlink="http://www.w3.org/1999/xlink" x="0px" y="0px"
	 viewBox="0 0 150 150" style="enable-background:new 0 0 150 150;" xml:space="preserve">
<style type="text/css">
	.st0{fill:#7AA069;}
</style>
<g>
	<g id="text">
		<g>
			<path class="st0" d="M58.5,135L51,146.8l-3.9-1.2l1.2-13.8l2.4,0.8l-1.2,11.8l0.8,0.4l6.3-10.3L58.5,135z"/>
			<path class="st0" d="M59.7,135l8.3,1.2l-0.4,2l-6.3-1.2l-0.8,3.9l5.1,0.8l-0.4,2l-5.1-0.8l-0.8,3.9l6.3,1.2l0.4,1.6l-8.3-1.2
				L59.7,135z"/>
			<path class="st0" d="M75,142.9H79v6.7c0,0-2.8,0.4-4.3,0.4c-4.3,0-5.5-2.8-5.1-7.1c0-4.7,1.6-7.1,5.5-7.1c2,0,4.7,0.8,4.7,0.8
				v1.6c0,0-2.4-0.4-4.3-0.4c-2.8,0-3.6,1.2-3.6,5.1c0,3.6,0.4,5.1,3.2,5.1c0.8,0,2,0,2,0v-3.2h-1.6L75,142.9z"/>
			<path class="st0" d="M82.9,136.2l4.3-0.8l5.1,13l-2,0.4l-1.2-2.8l-5.1,0.8l-0.4,3.2h-2L82.9,136.2z M84.1,144.9l4.3-0.8l-2.8-6.7
				h-0.8L84.1,144.9z"/>
			<path class="st0" d="M91.6,134.6l3.6-1.2l7.5,9.9h0.4l-3.6-11.1l2-0.8l4.3,13l-3.6,1.2l-7.5-9.9h-0.4l3.6,11.1l-2,0.8L91.6,134.6
				z"/>
		</g>
	</g>
	<g id="icon">
		<path class="st0" d="M101.9,37.1c-0.4,0-7.9,1.2-17.4,3.9C71.9,45,62.4,49.7,56.9,55.2c-7.1,7.1-7.9,15.4-7.1,20.9
			c0.4,4.3,2,7.5,2.8,9.1L41.5,96.3c-0.8,0.8-0.8,1.6,0,2.4c0.8,0.8,1.6,0.8,2.4,0l11.1-11.1c1.6,0.8,5.1,2.4,9.1,2.8
			c5.5,0.8,13.8,0,20.9-7.1c5.5-5.5,10.3-15,14.2-27.6c2.8-9.5,3.9-17,3.9-17.4c0-0.4,0-1.2-0.4-1.6
			C102.7,37.5,102.3,37.1,101.9,37.1z M82.9,81.7c-5.1,5.1-11.1,7.1-18.2,6.3c-3.2-0.4-5.5-1.2-7.1-2l10.3-10.3h12.6
			c0.4,0,0.8,0,1.2-0.4c0.4-0.4,0.4-0.8,0.4-1.2c0-0.8-0.8-1.6-1.6-1.6h-9.1l6.3-6.3h7.5c0.4,0,0.8,0,1.2-0.4s0.4-0.8,0.4-1.2
			c0-0.8-0.8-1.6-1.6-1.6h-3.9l5.9-5.9c0.8-0.8,0.8-1.6,0-2.4s-1.6-0.8-2.4,0L79,60.8v-3.9c0-0.8-0.8-1.6-1.6-1.6
			c-0.8,0-1.6,0.8-1.6,1.6v7.5l-7.1,5.5v-9.1c0-0.8-0.8-1.6-1.6-1.6c-0.8,0-1.6,0.8-1.6,1.6v12.6L55.3,83.7c-0.8-1.6-1.6-4.3-2-7.1
			c-0.8-7.1,1.2-13,6.3-18.2c10.7-10.7,33.2-15.8,40.7-17C98.3,48.5,93.2,71,82.9,81.7z"/>
	</g>
	<g id="rahmen">
		<g>
			<path class="st0" d="M75,8.3c32.4,0,58.4,26.5,58.4,58.4S107,125.1,75,125.1s-58.8-26.1-58.8-58S42.7,8.3,75,8.3 M75,5.5
				c-34,0-61.6,27.6-61.6,61.6s27.6,61.6,61.6,61.6s61.6-27.6,61.6-61.6C136.6,32.7,109,5.5,75,5.5L75,5.5z"/>
		</g>
	</g>
</g>
</svg>
