<?xml version="1.0" encoding="utf-8"?>
<!-- Generator: Adobe Illustrator 26.5.0, SVG Export Plug-In . SVG Version: 6.00 Build 0)  -->
<svg version="1.1" id="Ebene_1" xmlns="http://www.w3.org/2000/svg" xmlns:xlink="http://www.w3.org/1999/xlink" x="0px" y="0px"
	 viewBox="0 0 150 150" style="enable-background:new 0 0 150 150;" xml:space="preserve">
<style type="text/css">
	.st0{fill:#7AA069;}
	.st1{fill:none;stroke:#7AA069;stroke-width:0.75;stroke-linecap:round;stroke-linejoin:round;stroke-miterlimit:10;}
	.st2{fill:none;stroke:#7AA069;stroke-width:0.75;stroke-linecap:round;stroke-miterlimit:10;}
</style>
<g id="text">
</g>
<g id="icon">
</g>
<g>
	<g>
		<path class="st0" d="M6.5,86.1c-4.3,0.4-6-1.1-6.4-3.9c-0.4-2.8,1.1-4.6,5.3-5c4.6-0.4,6.4,1.1,6.4,3.9
			C12.6,83.9,11.1,85.7,6.5,86.1z M5.8,79.3c-3.2,0.4-4.3,1.1-3.9,2.8c0,1.4,1.1,2.1,4.3,1.8c3.6-0.4,4.3-1.1,4.3-2.8
			C10.4,79.7,9.4,79,5.8,79.3z"/>
		<path class="st0" d="M14.7,91.8v1.1L1.9,92.1V91L14.7,91.8z M5.8,97.1C4,97.4,3,97.1,3,95.7c-0.4-1.1,0.4-2.1,2.1-2.5
			s2.5,0,2.8,1.4C8,95.7,7.2,96.7,5.8,97.1z M4,95.3c0,0.4,0.7,0.4,1.4,0.4c0.7-0.4,1.1-0.4,1.1-0.7s-0.7-0.4-1.4-0.4
			C4,94.6,3.7,95,4,95.3z M11.1,90.3c-1.8,0.4-2.8,0-2.8-1.4c-0.4-1.4,0.4-2.1,2.1-2.5s2.5,0,2.8,1.4C13.6,89.3,12.9,90,11.1,90.3z
			 M9.4,88.9c0,0.4,0.7,0.4,1.4,0.4c1.1-0.4,1.4-0.4,1.1-1.1c0-0.4-0.7-0.4-1.4-0.4C9.7,88.2,9.4,88.2,9.4,88.9z"/>
		<path class="st0" d="M10.1,104.5l-3.6,1.8l-0.7-1.8l11-5.3l1.8,3.9c1.1,2.5,0.7,4.3-1.8,5.7c-2.5,1.1-4.6,0.7-5.7-1.8L10.1,104.5z
			 M12.9,106c0.7,1.4,1.8,1.4,3.2,0.7c1.4-0.7,1.8-1.8,1.1-2.8l-1.1-2.1l-4.6,2.1L12.9,106z"/>
		<path class="st0" d="M19.7,117.7l-2.8-4.3l-4.3,3.2l-1.1-1.8l9.9-7.1l1.1,1.8l-4.3,2.8l3.2,4.3l4.3-2.8l1.1,1.8l-9.9,7.1l-1.1-1.8
			L19.7,117.7z"/>
		<path class="st0" d="M23.2,120.9c2.8-2.8,5.3-3.6,7.8-1.1c2.5,2.5,1.8,5-1.1,7.8c-2.8,2.8-5.3,3.6-7.8,1.1
			C19.7,125.9,20.4,123.7,23.2,120.9z M28.9,126.2c2.1-2.1,2.8-3.6,1.1-5.3c-1.8-1.8-3.2-1.1-5.3,1.1c-2.1,2.1-2.8,3.6-1.1,5.3
			C25.4,129,26.4,128.3,28.9,126.2z"/>
		<path class="st0" d="M40.6,129.8c0,0-1.8-1.8-2.8-2.1c-1.1-0.7-2.1-0.7-2.8,0c-0.7,1.1-0.4,1.4,1.1,3.2c1.8,2.1,2.1,3.2,0.7,5
			c-1.4,2.1-3.6,2.1-5.7,0.7c-1.4-1.1-2.8-2.8-2.8-2.8l1.1-1.1c0,0,1.8,1.8,2.8,2.5c1.1,0.7,2.1,0.7,2.8-0.4
			c0.7-0.7,0.4-1.4-1.1-2.8c-1.8-2.1-2.1-3.6-1.1-5c1.4-2.1,3.2-1.8,5.3-0.4c1.4,1.1,2.8,2.5,2.8,2.5L40.6,129.8z"/>
		<path class="st0" d="M41,137.6l-1.8,3.2l-1.8-1.1l5.7-11l3.9,2.1c2.5,1.4,3.2,3.2,1.8,5.7c-1.4,2.5-3.2,3.2-5.7,1.8L41,137.6z
			 M44.2,137.2c1.4,0.7,2.5,0,3.2-1.4s0.4-2.5-0.7-3.2l-2.1-1.1l-2.1,4.3L44.2,137.2z"/>
		<path class="st0" d="M56.6,142.5l-5-1.4l-1.4,5l-2.1-0.7l3.6-11.7l1.8,0.7l-1.4,5l5,1.4l1.4-5l1.8,0.7l-3.6,11.7l-1.8-0.7
			L56.6,142.5z"/>
		<path class="st0" d="M64.4,137.2l3.9,0.4l1.4,12.4l-2.1-0.4l-0.4-2.8l-4.6-0.7l-0.7,2.8l-2.1-0.4L64.4,137.2z M63.3,144.7l3.9,0.4
			l-0.7-6.4h-0.7L63.3,144.7z"/>
		<path class="st0" d="M70.5,137.9h8.9v1.8h-3.6V150h-2.1v-10.3h-3.6L70.5,137.9z"/>
		<path class="st0" d="M80.4,137.9l7.5-1.1l0.4,1.4l-5.7,0.7l0.4,3.6l4.6-0.7l0.4,1.8l-4.6,0.7l0.4,3.6l5.7-0.7l0.4,1.8l-7.5,1.1
			L80.4,137.9z"/>
		<path class="st0" d="M100.6,135.1c0.7,1.4,0,2.5-1.1,4.3l2.8,1.1c0-0.4-0.4-1.8-0.4-2.5l1.8-0.7c0.4,1.1,0.4,2.8,0.4,3.6l2.8,1.1
			l-0.7,1.4l-2.5-1.1c-0.4,1.4-1.4,2.5-2.8,2.8c-3.2,1.4-5,0.4-5.7-1.8c-0.7-1.8-0.4-3.2,1.1-4.3c-1.4-0.7-1.8-1.1-2.1-2.1
			c-0.7-1.4,0.4-2.8,2.1-3.6C98.9,133,100.3,133.3,100.6,135.1z M97.8,138.3l0.4,0.4c0.7-1.1,1.1-1.8,0.7-2.5
			c-0.4-0.7-1.1-1.1-1.8-0.7s-1.1,1.1-0.7,1.8C96.7,137.6,97.1,137.9,97.8,138.3z M102.1,142.2l-4.3-1.8c-1.1,0.7-1.1,1.8-0.7,2.8
			c0.4,1.4,1.4,1.8,3.2,1.1C101,143.6,102.1,142.9,102.1,142.2z"/>
		<path class="st0" d="M113.8,126.9c0,0-2.1,1.1-3.2,1.8c-1.1,0.7-1.4,1.8-1.1,2.5c0.7,1.1,1.4,0.7,3.2,0c2.5-0.7,3.6-0.7,5,1.1
			c1.4,2.1,0.7,4.3-1.4,5.3c-1.4,0.7-3.6,1.8-3.6,1.8l-0.7-1.4c0,0,2.1-1.1,3.2-1.8c1.4-0.7,1.4-1.8,0.7-2.8
			c-0.7-0.7-1.1-0.7-3.2-0.4c-2.5,1.1-3.9,0.7-5-1.1c-1.4-2.1-0.7-3.9,1.4-5c1.4-0.7,3.6-1.8,3.6-1.8L113.8,126.9z"/>
		<path class="st0" d="M114.1,124.1l1.4-1.4l7.8,9.2l-1.4,1.4L114.1,124.1z"/>
		<path class="st0" d="M126.2,129.8l-8.5-8.5l1.4-1.4l7.5,7.5l3.6-3.6l1.4,1.1L126.2,129.8z"/>
		<path class="st0" d="M123,115.6l1.4-1.4l9.6,7.8l-1.4,1.4L123,115.6z"/>
		<path class="st0" d="M139.7,112.4c-0.4,0.7-1.1,2.1-1.4,3.2c-2.1,3.2-4.3,2.8-7.8,0.4c-3.6-2.5-4.6-4.3-2.8-7.1
			c0.7-1.1,1.8-2.1,2.1-2.8l1.4,1.1c-0.7,0.7-1.4,1.8-1.8,2.5c-1.1,1.8-0.7,2.8,2.1,5c2.8,1.8,3.9,2.1,5.3,0
			c0.4-0.7,1.1-2.1,1.4-2.8L139.7,112.4z"/>
		<path class="st0" d="M135.8,107.7c-3.6-1.8-5.3-3.6-3.9-7.1s3.9-3.6,7.8-1.8c3.9,1.8,5.3,3.6,3.6,7.1
			C141.8,109.2,139.3,109.5,135.8,107.7z M139,100.6c-2.8-1.4-4.6-1.4-5.3,0.7c-1.1,2.1,0.4,3.2,3.2,4.6c2.8,1.1,4.3,1.4,5.3-0.7
			C142.9,102.8,141.8,101.7,139,100.6z"/>
		<path class="st0" d="M134.7,95l0.7-3.2l11-1.1v-0.4l-9.9-2.5l0.4-1.8l11.7,2.5l-0.7,3.2l-11,1.1v0.4l10.3,2.5l-0.4,1.8L134.7,95z"
			/>
		<path class="st0" d="M136.9,83.6l0.7-7.8h1.8l-0.4,5.7l3.6,0.4l0.4-4.6h1.8l-0.4,4.6l3.6,0.4l0.4-5.7h1.8l-0.7,7.8L136.9,83.6z"/>
	</g>
	<line class="st1" x1="80.8" y1="52" x2="77.9" y2="52"/>
	<g>
		<path class="st1" d="M81.1,51.6v-3.6h0.4c1.1,0,2.1-1.1,2.1-2.1l0,0c0-1.1-1.1-2.1-2.1-2.1H65.1c-1.1,0-2.1,1.1-2.1,2.1l0,0
			c0,1.1,1.1,2.1,2.1,2.1h0.4v11.4c0,2.5-0.7,5-1.8,7.1L48.1,93.9c-3.6,6,0.7,13.1,7.8,13.1h35.5c6.7,0,11-7.5,7.8-13.1l-6-10.7"/>
		<path class="st1" d="M72.6,72.9c-1.4,0.4-2.8,0.4-4.6-0.4c-2.1-0.7-4.3-1.8-6-2.5"/>
		<path class="st1" d="M91.4,72.6l11.4-13.5c0.4-0.7,0.4-1.4,0-2.1l0,0c-0.7-0.7-1.8-0.7-2.5-0.4l-11,9.2c-0.4,0.4-0.4,0.4-0.7,0
			l-5.3-3.2c-0.7-0.4-1.8-0.4-2.5,0.4l0,0c-0.7,0.7-0.7,1.8,0,2.8l6,6.7C88.2,74,90,73.6,91.4,72.6z"/>
		<path class="st1" d="M95.7,56.2c-2.1-1.4-4.3-2.1-7.1-2.1c-7.1,0-12.8,5.7-12.8,12.8s5.7,12.8,12.8,12.8s12.8-5.7,12.8-12.8
			c0-0.4,0-0.7,0-1.1"/>
		<line class="st2" x1="88.9" y1="99.9" x2="88.9" y2="91"/>
		<line class="st2" x1="80.8" y1="99.9" x2="80.8" y2="93.5"/>
		<line class="st2" x1="72.6" y1="99.9" x2="72.6" y2="83.9"/>
		<line class="st2" x1="64.8" y1="99.9" x2="64.8" y2="88.6"/>
		<line class="st2" x1="56.6" y1="99.9" x2="56.6" y2="95.7"/>
	</g>
	<g>
		<path class="st0" d="M75.1,22.5c29.1,0,52.6,23.8,52.6,52.6s-23.8,52.6-52.6,52.6s-52.9-23.4-52.9-52.2S45.9,22.5,75.1,22.5
			 M75.1,20c-30.5,0-55.4,24.9-55.4,55.4s24.9,55.4,55.4,55.4s55.4-24.9,55.4-55.4C130.1,44.5,105.6,20,75.1,20L75.1,20z"/>
	</g>
</g>
</svg>
