<?xml version="1.0" encoding="utf-8"?>
<!-- Generator: Adobe Illustrator 27.0.0, SVG Export Plug-In . SVG Version: 6.00 Build 0)  -->
<svg version="1.1" id="Ebene_1" xmlns="http://www.w3.org/2000/svg" xmlns:xlink="http://www.w3.org/1999/xlink" x="0px" y="0px"
	 viewBox="0 0 150 150" style="enable-background:new 0 0 150 150;" xml:space="preserve">
<style type="text/css">
	.st0{fill:#7AA069;}
	.st1{fill:none;stroke:#7AA069;stroke-width:2.5;stroke-linecap:round;stroke-linejoin:round;}
	.st2{fill:none;stroke:#7AA069;stroke-width:2.5;stroke-linecap:round;stroke-miterlimit:10;}
</style>
<path class="st0" d="M6.4,76.1c-4.3,0.4-6-1.1-6.4-3.9s1.1-4.6,5.3-5c4.6-0.4,6.4,1.1,6.4,3.9C12.5,73.9,11.1,75.7,6.4,76.1z
	 M5.7,69.3c-3.2,0.4-4.3,1.1-3.9,2.8c0,1.4,1.1,2.1,4.3,1.8c3.6-0.4,4.3-1.1,4.3-2.8C10.3,69.7,9.3,69,5.7,69.3z"/>
<path class="st0" d="M14.6,81.8v1.1L1.8,82.1V81L14.6,81.8z M5.7,87.1c-1.8,0.4-2.8,0-2.8-1.4c-0.4-1.1,0.4-2.1,2.1-2.5
	s2.5,0,2.8,1.4C7.9,85.7,7.1,86.7,5.7,87.1z M3.9,85.3c0,0.4,0.7,0.4,1.4,0.4C6,85.3,6.4,85.3,6.4,85S5.7,84.6,5,84.6
	C3.9,84.6,3.6,85,3.9,85.3z M11.1,80.3c-1.8,0.4-2.8,0-2.8-1.4c-0.4-1.4,0.4-2.1,2.1-2.5s2.5,0,2.8,1.4C13.5,79.3,12.8,80,11.1,80.3
	z M9.3,78.9c0,0.4,0.7,0.4,1.4,0.4c1.1-0.4,1.4-0.4,1.1-1.1c0-0.4-0.7-0.4-1.4-0.4C9.6,78.2,9.3,78.2,9.3,78.9z"/>
<path class="st0" d="M10,94.5l-3.6,1.8l-0.7-1.8l11-5.3l1.8,3.9c1.1,2.5,0.7,4.3-1.8,5.7c-2.5,1.1-4.6,0.7-5.7-1.8L10,94.5z
	 M12.8,96c0.7,1.4,1.8,1.4,3.2,0.7c1.4-0.7,1.8-1.8,1.1-2.8L16,91.7l-4.6,2.1L12.8,96z"/>
<path class="st0" d="M19.6,107.7l-2.8-4.3l-4.3,3.2l-1.1-1.8l10-7.1l1.1,1.8l-4.3,2.8l3.2,4.3l4.3-2.8l1.1,1.8l-10,7.1l-1.1-1.8
	C15.7,110.9,19.6,107.7,19.6,107.7z"/>
<path class="st0" d="M23.1,110.9c2.8-2.8,5.3-3.6,7.8-1.1s1.8,5-1.1,7.8s-5.3,3.6-7.8,1.1C19.6,115.9,20.3,113.7,23.1,110.9z
	 M28.8,116.2c2.1-2.1,2.8-3.6,1.1-5.3c-1.8-1.8-3.2-1.1-5.3,1.1c-2.1,2.1-2.8,3.6-1.1,5.3C25.3,119.1,26.3,118.4,28.8,116.2z"/>
<path class="st0" d="M40.5,119.8c0,0-1.8-1.8-2.8-2.1c-1.1-0.7-2.1-0.7-2.8,0c-0.7,1.1-0.4,1.4,1.1,3.2c1.8,2.1,2.1,3.2,0.7,5
	c-1.4,2.1-3.6,2.1-5.7,0.7c-1.4-1.1-2.8-2.8-2.8-2.8l1.1-1.1c0,0,1.8,1.8,2.8,2.5c1.1,0.7,2.1,0.7,2.8-0.4c0.7-0.7,0.4-1.4-1.1-2.8
	c-1.8-2.1-2.1-3.6-1.1-5c1.4-2.1,3.2-1.8,5.3-0.4c1.4,1.1,2.8,2.5,2.8,2.5L40.5,119.8z"/>
<path class="st0" d="M40.9,127.6l-1.8,3.2l-1.8-1.1l5.7-11l3.9,2.1c2.5,1.4,3.2,3.2,1.8,5.7c-1.4,2.5-3.2,3.2-5.7,1.8L40.9,127.6z
	 M44.1,127.2c1.4,0.7,2.5,0,3.2-1.4s0.4-2.5-0.7-3.2l-2.1-1.1l-2.1,4.3C42.3,125.8,44.1,127.2,44.1,127.2z"/>
<path class="st0" d="M56.5,132.6l-5-1.4l-1.4,5l-2.1-0.7l3.6-11.7l1.8,0.7l-1.4,5l5,1.4l1.4-5l1.8,0.7l-3.6,11.7l-1.8-0.7
	L56.5,132.6z"/>
<path class="st0" d="M64.4,127.2l3.9,0.4l1.4,12.4l-2.1-0.4l-0.4-2.8l-4.6-0.7l-0.7,2.8l-2.1-0.4L64.4,127.2z M63.3,134.7l3.9,0.4
	l-0.7-6.4h-0.7L63.3,134.7z"/>
<path class="st0" d="M70.4,127.9h8.9v1.8h-3.6V140h-2.1v-10.3H70L70.4,127.9z"/>
<path class="st0" d="M80.3,127.9l7.5-1.1l0.4,1.4l-5.7,0.7l0.4,3.6l4.6-0.7l0.4,1.8l-4.6,0.7l0.4,3.6l5.7-0.7l0.4,1.8l-7.5,1.1
	C82.1,140,80.3,127.9,80.3,127.9z"/>
<path class="st0" d="M100.6,125.1c0.7,1.4,0,2.5-1.1,4.3l2.8,1.1c0-0.4-0.4-1.8-0.4-2.5l1.8-0.7c0.4,1.1,0.4,2.8,0.4,3.6l2.8,1.1
	l-0.7,1.4l-2.5-1.1c-0.4,1.4-1.4,2.5-2.8,2.8c-3.2,1.4-5,0.4-5.7-1.8c-0.7-1.8-0.4-3.2,1.1-4.3c-1.4-0.7-1.8-1.1-2.1-2.1
	c-0.7-1.4,0.4-2.8,2.1-3.6C98.8,123,100.2,123.3,100.6,125.1z M97.8,128.3l0.4,0.4c0.7-1.1,1.1-1.8,0.7-2.5s-1.1-1.1-1.8-0.7
	c-0.7,0.4-1.1,1.1-0.7,1.8C96.7,127.6,97.1,127.9,97.8,128.3z M102,132.2l-4.3-1.8c-1.1,0.7-1.1,1.8-0.7,2.8
	c0.4,1.4,1.4,1.8,3.2,1.1C101,133.6,102,132.9,102,132.2z"/>
<path class="st0" d="M113.8,116.9c0,0-2.1,1.1-3.2,1.8c-1.1,0.7-1.4,1.8-1.1,2.5c0.7,1.1,1.4,0.7,3.2,0c2.5-0.7,3.6-0.7,5,1.1
	c1.4,2.1,0.7,4.3-1.4,5.3l-3.6,1.8L112,128c0,0,2.1-1.1,3.2-1.8c1.4-0.7,1.4-1.8,0.7-2.8c-0.7-0.7-1.1-0.7-3.2-0.4
	c-2.5,1.1-3.9,0.7-5-1.1c-1.4-2.1-0.7-3.9,1.4-5c1.4-0.7,3.6-1.8,3.6-1.8L113.8,116.9z"/>
<path class="st0" d="M114.1,114.1l1.4-1.4l7.8,9.2l-1.4,1.4L114.1,114.1z"/>
<path class="st0" d="M126.2,119.8l-8.5-8.5l1.4-1.4l7.5,7.5l3.6-3.6l1.4,1.1L126.2,119.8z"/>
<path class="st0" d="M123,105.6l1.4-1.4l9.6,7.8l-1.4,1.4L123,105.6z"/>
<path class="st0" d="M139.7,102.4c-0.4,0.7-1.1,2.1-1.4,3.2c-2.1,3.2-4.3,2.8-7.8,0.4c-3.6-2.5-4.6-4.3-2.8-7.1
	c0.7-1.1,1.8-2.1,2.1-2.8l1.4,1.1c-0.7,0.7-1.4,1.8-1.8,2.5c-1.1,1.8-0.7,2.8,2.1,5c2.8,1.8,3.9,2.1,5.3,0c0.4-0.7,1.1-2.1,1.4-2.8
	C138.3,101.7,139.7,102.4,139.7,102.4z"/>
<path class="st0" d="M135.8,97.7c-3.6-1.8-5.3-3.6-3.9-7.1s3.9-3.6,7.8-1.8c3.9,1.8,5.3,3.6,3.6,7.1
	C141.8,99.2,139.3,99.5,135.8,97.7z M139,90.6c-2.8-1.4-4.6-1.4-5.3,0.7c-1.1,2.1,0.4,3.2,3.2,4.6c2.8,1.1,4.3,1.4,5.3-0.7
	C142.9,92.8,141.8,91.7,139,90.6z"/>
<path class="st0" d="M134.7,85l0.7-3.2l11-1.1v-0.4l-10-2.5l0.4-1.8l11.7,2.5l-0.7,3.2l-11,1.1v0.4l10.3,2.5l-0.4,1.8L134.7,85z"/>
<path class="st0" d="M136.9,73.6l0.7-7.8h1.8l-0.4,5.7l3.6,0.4l0.4-4.6h1.8l-0.4,4.6l3.6,0.4l0.4-5.7h1.8l-0.7,7.8L136.9,73.6z"/>
<line class="st1" x1="80.7" y1="42" x2="77.9" y2="42"/>
<path class="st1" d="M81.1,41.6V38h0.4c1.1,0,2.1-1.1,2.1-2.1l0,0c0-1.1-1.1-2.1-2.1-2.1H65.1c-1.1,0-2.1,1.1-2.1,2.1l0,0
	c0,1.1,1.1,2.1,2.1,2.1h0.4v11.4c0,2.5-0.7,5-1.8,7.1L48,83.9c-3.6,6,0.7,13.1,7.8,13.1h35.5c6.8,0,11-7.5,7.8-13.1l-6-10.7"/>
<path class="st1" d="M72.5,62.9c-1.4,0.4-2.8,0.4-4.6-0.4c-2.1-0.7-4.3-1.8-6-2.5"/>
<path class="st1" d="M91.4,62.6l11.4-13.5c0.4-0.7,0.4-1.4,0-2.1l0,0c-0.7-0.7-1.8-0.7-2.5-0.4l-11,9.2c-0.4,0.4-0.4,0.4-0.7,0
	l-5.3-3.2c-0.7-0.4-1.8-0.4-2.5,0.4l0,0c-0.7,0.7-0.7,1.8,0,2.8l6,6.8C88.2,64,89.9,63.6,91.4,62.6z"/>
<path class="st1" d="M95.6,46.2c-2.1-1.4-4.3-2.1-7.1-2.1c-7.1,0-12.8,5.7-12.8,12.8s5.7,12.8,12.8,12.8s12.8-5.7,12.8-12.8v-1.1"/>
<line class="st2" x1="88.9" y1="89.9" x2="88.9" y2="81"/>
<line class="st2" x1="80.7" y1="89.9" x2="80.7" y2="83.5"/>
<line class="st2" x1="72.5" y1="89.9" x2="72.5" y2="73.9"/>
<line class="st2" x1="64.7" y1="89.9" x2="64.7" y2="78.6"/>
<line class="st2" x1="56.5" y1="89.9" x2="56.5" y2="85.7"/>
<path class="st0" d="M75,12.5c29.1,0,52.6,23.8,52.6,52.6s-23.8,52.6-52.6,52.6S22.1,94.2,22.1,65.4S45.9,12.5,75,12.5 M75,10
	c-30.6,0-55.4,24.9-55.4,55.4s24.9,55.4,55.4,55.4s55.4-24.9,55.4-55.4C130.1,34.5,105.6,10,75,10L75,10z"/>
</svg>
