<?xml version="1.0" encoding="utf-8"?>
<!-- Generator: Adobe Illustrator 27.0.0, SVG Export Plug-In . SVG Version: 6.00 Build 0)  -->
<svg version="1.1" id="Ebene_1" xmlns="http://www.w3.org/2000/svg" xmlns:xlink="http://www.w3.org/1999/xlink" x="0px" y="0px"
	 viewBox="0 0 150 150" style="enable-background:new 0 0 150 150;" xml:space="preserve">
<style type="text/css">
	.st0{fill:#7AA069;}
	.st1{fill:none;stroke:#7AA069;stroke-width:2.5;stroke-linecap:round;stroke-linejoin:round;}
</style>
<path class="st0" d="M0.3,62.2l12.1-0.4v4.3c0,3.9-2.1,5-5.7,5c-3.9,0-6.4-0.7-6.4-5C0.3,66.1,0.3,62.2,0.3,62.2z M11,66.1V64H2.1
	v2.1c0,2.5,1.8,2.8,4.6,2.8C9.2,69,11,68.3,11,66.1z"/>
<path class="st0" d="M12.7,72.5l1.4,7.4l-1.8,0.4l-1-5.3l-3.5,0.7l0.7,4.6l-1.8,0.4L6,76.1l-3.5,0.7l1.4,5.3l-1.8,0.4L0.7,75
	L12.7,72.5z"/>
<path class="st0" d="M7.8,85.6L3.5,87l-0.4-1.8l11.4-3.9l1.4,4.3c0.7,2.5,0.4,4.3-2.5,5c-1.8,0.7-2.8,0.4-3.9-0.7l-3.9,3.5l-0.7-2.1
	l3.5-3.2C8.5,88.1,7.8,85.6,7.8,85.6z M14.5,86l-0.7-2.5l-4.3,1.4l0.7,2.8c0.4,1.1,1.4,1.4,2.8,1.1C14.2,88.5,14.9,87.4,14.5,86z"/>
<path class="st0" d="M17.7,90.6l1.8,2.8l-6.7,7.1l9.6-2.5l1.8,2.8l-10.6,6l-1.1-1.8l8.5-4.3v-0.4l-9.6,2.1l-1.1-1.8l6.7-7.1v-0.4
	l-8.5,5l-1.1-1.8L17.7,90.6z"/>
<path class="st0" d="M26.2,104.4l2.5,2.5l-7.1,10.3l-1.4-1.4l1.8-2.1l-3.2-3.5l-2.5,1.1l-1.4-1.4C14.9,109.8,26.2,104.1,26.2,104.4z
	 M20.6,109.8l2.5,2.8l3.5-5.3l-0.4-0.7C26.2,106.6,20.6,109.4,20.6,109.8z"/>
<path class="st0" d="M30.5,109.4l6.7,6l-1.1,1.4l-2.8-2.8l-6.7,7.8l-1.4-1.4l6.7-7.8l-2.8-2.1C29.1,110.5,30.5,109.4,30.5,109.4z"/>
<path class="st0" d="M34,120.4c2.1-3.5,4.3-4.6,7.4-2.8c3.2,2.1,2.8,4.6,0.7,8.2c-2.1,3.5-4.3,4.6-7.4,2.5
	C31.5,126.4,31.5,124,34,120.4z M40.4,124.3c1.8-2.5,2.1-4.3,0-5.3c-2.1-1.4-3.2-0.4-5,2.5c-1.8,2.5-2.1,3.9,0,5.3
	C37.6,127.9,38.6,127.1,40.4,124.3z"/>
<path class="st0" d="M41.8,132.1l5-11l1.8,0.7l-4.3,9.6l4.3,2.1l-0.7,1.8L41.8,132.1z"/>
<path class="st0" d="M51.4,129.6c1.1-3.9,2.8-5.7,6.4-4.6c3.5,1.1,4.3,3.5,3.2,7.4c-1.1,3.9-2.8,5.7-6.4,4.6
	C51.1,136,50.3,133.5,51.4,129.6z M59.2,131.8c0.7-2.8,0.7-4.6-1.4-5.3s-3.2,0.7-3.9,3.5s-0.7,4.6,1.4,5
	C57.4,136,58.2,134.9,59.2,131.8z"/>
<path class="st0" d="M68.4,133.2l3.5,0.4l-0.7,5.7H67c-3.9-0.4-4.6-2.8-4.3-6.7c0.4-4.3,1.8-6,5.3-5.7c1.8,0.4,3.9,1.1,3.9,1.1
	l-0.4,1.4c0,0-2.1-0.4-3.5-0.7c-2.5-0.4-3.2,0.7-3.5,4.3c-0.4,3.2,0,4.6,2.5,5h1.8l0.4-2.8h-1.4C67.7,135.3,68.4,133.2,68.4,133.2z"
	/>
<path class="st0" d="M74.5,127.9h2.1L77,140h-2.1L74.5,127.9z"/>
<path class="st0" d="M87.6,138.5c-0.7,0.4-2.1,0.7-3.5,0.7c-3.5,0.4-4.6-1.4-5.3-5.7c-0.4-4.3,0.4-6.4,3.9-6.7h3.5v1.8H83
	c-2.1,0.4-2.5,1.4-2.1,5c0.4,3.2,1.1,4.3,3.2,4.3c1.1,0,2.1-0.4,3.2-0.7C87.2,137.4,87.6,138.9,87.6,138.5z"/>
<path class="st0" d="M89.4,126.1l3.9-1.1l6,11l-1.8,0.4l-1.4-2.8l-4.6,1.4v2.8l-1.8,0.4C89.7,138.1,89.4,125.7,89.4,126.1z
	 M91.5,133.2l3.9-1.1l-3.2-5.7l-0.7,0.4C91.5,126.8,91.5,133.2,91.5,133.2z"/>
<path class="st0" d="M102.1,134.9l-5-11l1.8-0.7l4.3,9.6l4.6-1.8l0.7,1.8L102.1,134.9z"/>
<path class="st0" d="M110.3,130.7l-6-9.9l1.8-1.1l5.3,8.9l4.3-2.5l1.1,1.4C116.7,127.5,110.3,131,110.3,130.7z"/>
<path class="st0" d="M120.6,124.3l-1.4,1.1l-2.8-3.9L109,118l1.8-1.4l5.3,2.5l-1.1-5.7l1.8-1.4l1.4,8.2L120.6,124.3z"/>
<path class="st0" d="M118.8,110.1l6-6.7l1.4,1.1l-2.5,2.8l7.8,6.4l-1.4,1.4l-7.8-6.7l-2.1,2.5L118.8,110.1z"/>
<path class="st0" d="M125.2,102.7l4.3-6.4l1.4,1.1l-3.2,4.6l2.8,1.8l2.5-3.9l1.4,1.1l-2.5,3.9l2.8,2.1l3.2-4.6l1.4,1.1l-4.3,6
	C135.1,109.4,125.2,102.3,125.2,102.7z"/>
<path class="st0" d="M134.8,89.2c0,0-1.4,2.1-1.8,3.2c-0.7,1.4-0.4,2.1,0.4,2.8c1.1,0.4,1.4,0,2.8-1.8c1.8-2.1,2.8-2.5,4.6-1.8
	c2.5,1.1,2.8,3.2,1.8,5.3c-0.7,1.4-2.1,3.5-2.1,3.5l-1.1-1.1c0,0,1.4-2.1,1.8-3.2c0.7-1.4,0.4-2.1-0.7-2.8c-1.1-0.4-1.4,0-2.8,1.4
	c-1.8,2.1-2.8,2.8-5,1.8c-2.1-1.1-2.5-2.8-1.4-5c0.7-1.4,2.1-3.2,2.1-3.2S134.8,89.5,134.8,89.2z"/>
<path class="st0" d="M133.4,88.1l2.5-8.5l1.8,0.4l-1.1,3.2l9.9,3.2l-0.7,1.8l-9.9-3.2l-1.1,3.2L133.4,88.1L133.4,88.1z"/>
<path class="st0" d="M136.2,78.2l1.1-7.4l1.8,0.4l-1.1,5.7l3.5,0.7l0.7-4.6l1.8,0.4l-0.7,5l3.5,0.7l1.1-5.7l1.8,0.4l-1.1,7.4
	C148.6,81,136.2,78.5,136.2,78.2z"/>
<path class="st0" d="M149.7,69.3l-12.1,0.4v-4.3c0-3.9,2.1-5,5.7-5c3.9,0,6.4,0.7,6.4,4.6C149.7,65.4,149.7,69.7,149.7,69.3z
	 M139.4,65.4v2.1h8.9v-2.1c0-2.5-1.8-2.8-4.6-2.8C140.8,62.6,139.4,62.6,139.4,65.4z"/>
<path class="st1" d="M49.3,86.7c3.9,0.4,7.8,1.1,10.6,2.5c0,0,0.4,0,0.4,0.4h0.4c1.1,0.7,2.5,1.4,3.9,1.8c3.9,1.8,6.7,2.8,10.6,2.8
	c4.6,0,12.4-3.5,18.4-7.1c11.7-6.4,18.1-10.6,14.9-13.1c-2.8-2.5-11,2.5-18.8,6.4"/>
<path class="st1" d="M63.5,81.4c5.3,0.4,8.9,2.1,13.8,3.5c5,1.8,8.2,2.8,8.9,0s-5-7.1-11-9.6c-4.3-1.8-7.4-5.3-11.7-5.7
	c-3.5-0.4-6.4,0.4-8.9,1.1c-1.8,0.7-3.5,1.1-5.3,1.4"/>
<path class="st1" d="M86.2,76.4c4.6-2.8,8.9-6,12.4-6c1.1,0,2.1,0.4,2.5,0.7c0.4,0.4,1.4,1.4,1.4,2.5"/>
<path class="st1" d="M83,74.6c3.9-2.8,6-5,8.9-5.3h1.4c0.4,0,1.8,0.7,1.4,2.1"/>
<path class="st1" d="M79.4,72.9c2.8-2.5,3.2-3.5,5-3.5h1.4c0.7,0.4,1.8,0.7,1.8,1.8"/>
<path class="st1" d="M48.6,89.2h-6.7c-0.4,0-0.7-0.4-0.7-0.7V69.7c0-0.4,0.4-0.7,0.7-0.7h6.7c0.4,0,0.7,0.4,0.7,0.7v19.2
	C49.3,89.2,48.9,89.2,48.6,89.2z"/>
<path class="st1" d="M76.2,62.6L95,40.2c0.7-1.1,0.7-2.5,0-3.2l0,0c-1.1-1.1-2.8-1.4-3.9-0.4L73,51.9c-0.4,0.4-0.7,0.4-1.1,0
	L63,46.2c-1.4-0.7-2.8-0.7-3.9,0.4l0,0c-1.1,1.1-1.4,3.2,0,4.3L69,62.3C70.9,64.7,74.5,64.7,76.2,62.6z"/>
<path class="st0" d="M75.2,12.6c29.1,0,52.5,23.8,52.5,52.5s-23.8,52.1-52.5,52.1s-52.9-23-52.9-51.8S46.1,12.6,75.2,12.6
	 M75.2,10.1c-30.5,0-55.3,24.8-55.3,55.3s24.8,55.3,55.3,55.3s55.3-24.8,55.3-55.3S105.7,10.1,75.2,10.1L75.2,10.1z"/>
</svg>
