<?xml version="1.0" encoding="utf-8"?>
<!-- Generator: Adobe Illustrator 26.5.0, SVG Export Plug-In . SVG Version: 6.00 Build 0)  -->
<svg version="1.1" id="Ebene_1" xmlns="http://www.w3.org/2000/svg" xmlns:xlink="http://www.w3.org/1999/xlink" x="0px" y="0px"
	 viewBox="0 0 150 150" style="enable-background:new 0 0 150 150;" xml:space="preserve">
<style type="text/css">
	.st0{fill:#7AA069;}
	.st1{fill:none;stroke:#7AA069;stroke-width:0.75;stroke-linecap:round;stroke-linejoin:round;stroke-miterlimit:10;}
</style>
<path class="st0" d="M0,71.7l12.1-0.4v4.3c0,3.9-2.1,5-5.7,5C2.5,80.6,0,79.9,0,76L0,71.7z M10.7,75.6v-2.1H1.8v2.1
	c0,2.5,1.8,2.9,4.6,2.9C8.9,78.5,10.7,78.1,10.7,75.6z"/>
<path class="st0" d="M12.5,82l1.4,7.5l-1.8,0.4L11,84.5l-3.6,0.7l0.7,4.6l-1.8,0.4l-0.7-4.6l-3.6,0.7l1.4,5.3L1.8,92l-1.4-7.5
	L12.5,82z"/>
<path class="st0" d="M7.5,95.6L3.2,97l-0.4-1.8l11.4-3.9l1.4,4.3c0.7,2.5,0.4,4.3-2.5,5c-1.8,0.7-2.9,0.4-3.9-0.7l-3.9,3.6l-0.7-2.1
	l3.6-3.2L7.5,95.6z M14.3,95.9l-0.7-2.5l-4.3,1.4l0.7,2.9c0.4,1.1,1.4,1.4,2.9,1.1C13.9,98.4,14.6,97.3,14.3,95.9z"/>
<path class="st0" d="M17.5,100.6l1.8,2.9l-6.8,7.1l9.6-2.5l1.8,2.9l-10.7,6.1l-1.1-1.8l8.6-4.3v-0.4l-9.6,2.1l-1.1-1.8l6.8-7.1v-0.4
	l-8.6,5l-1.1-1.8L17.5,100.6z"/>
<path class="st0" d="M26,114.1l2.5,2.9l-7.1,10.3l-1.4-1.4l1.8-2.1l-3.2-3.6l-2.5,1.1l-1.4-1.4L26,114.1z M20.3,119.4l2.5,2.9
	l3.6-5.3l-0.4-0.4L20.3,119.4z"/>
<path class="st0" d="M30.3,119.1l6.8,6.1l-1.1,1.4l-2.9-2.9l-6.8,7.8l-1.4-1.4l6.8-7.8l-2.9-2.1L30.3,119.1z"/>
<path class="st0" d="M33.8,130.1c2.1-3.6,4.3-4.6,7.5-2.9c3.2,2.1,2.9,4.6,0.7,8.2c-2.1,3.6-4.3,4.6-7.5,2.5
	C31.4,136.2,31.4,133.7,33.8,130.1z M40.3,134.4c1.8-2.5,2.1-4.3,0-5.3c-2.1-1.4-3.2-0.4-5,2.5c-1.8,2.5-2.1,3.9,0,5.3
	C37.4,138,38.5,136.9,40.3,134.4z"/>
<path class="st0" d="M41.7,142.2l5-11l1.8,0.7l-4.3,9.6l4.3,2.1l-0.7,1.8L41.7,142.2z"/>
<path class="st0" d="M51.3,139.7c1.1-3.9,2.9-5.7,6.4-4.6c3.6,1.1,4.3,3.6,3.2,7.5c-1.1,3.9-2.9,5.7-6.4,4.6
	C51,146.2,50.2,143.7,51.3,139.7z M59.1,141.9c0.7-2.9,0.7-4.6-1.4-5.3c-2.1-0.7-3.2,0.7-3.9,3.6c-0.7,2.9-0.7,4.6,1.4,5
	C57.4,146.2,58.1,145.1,59.1,141.9z"/>
<path class="st0" d="M68.4,143l3.6,0.4l-0.7,6.1c0,0-2.5,0-4.3,0c-3.9-0.4-4.6-2.9-4.3-6.8c0.4-4.3,1.8-6.1,5.3-5.7
	c1.8,0.4,3.9,1.1,3.9,1.1l-0.4,1.4c0,0-2.1-0.4-3.6-0.7c-2.5-0.4-3.2,0.7-3.6,4.3c-0.4,3.2,0,4.6,2.5,5c0.7,0,1.8,0,1.8,0l0.4-2.9
	h-1.4L68.4,143z"/>
<path class="st0" d="M74.5,137.6h2.1l0.4,12.1h-2.1L74.5,137.6z"/>
<path class="st0" d="M87.6,148.7c-0.7,0.4-2.1,0.7-3.6,0.7c-3.6,0.4-4.6-1.4-5.3-5.7c-0.4-4.3,0.4-6.4,3.9-6.8c1.4,0,2.9,0,3.6,0
	v1.8c-0.7,0-2.1,0-3.2,0c-2.1,0.4-2.5,1.4-2.1,5c0.4,3.2,1.1,4.3,3.2,4.3c1.1,0,2.1-0.4,3.2-0.7L87.6,148.7z"/>
<path class="st0" d="M89.4,135.8l3.9-1.1l6.1,11l-1.8,0.4l-1.4-2.5l-4.6,1.4v2.9l-1.8,0.4L89.4,135.8z M91.6,143.3l3.9-1.1l-3.2-5.7
	l-0.7,0.4V143.3z"/>
<path class="st0" d="M102.3,144.7l-5-11L99,133l4.3,9.6l4.6-1.8l0.7,1.8L102.3,144.7z"/>
<path class="st0" d="M110.5,140.8l-6.1-10.3l1.8-1.1l5.3,8.9l4.3-2.5l1.1,1.4L110.5,140.8z"/>
<path class="st0" d="M120.8,134l-1.4,1.1l-2.9-3.9l-7.5-3.6l1.8-1.4l5.3,2.5l-1.1-5.7l1.8-1.4l1.4,8.2L120.8,134z"/>
<path class="st0" d="M119,119.8l6.1-6.8l1.4,1.1l-2.5,2.9l7.8,6.8l-1.4,1.4l-7.8-6.8l-2.1,2.5L119,119.8z"/>
<path class="st0" d="M125.4,112.3l4.3-6.4l1.4,1.1l-3.2,4.6l2.9,1.8l2.5-3.9l1.4,1.1l-2.5,3.9l2.9,2.1l3.2-4.6l1.4,1.1l-4.3,6.4
	L125.4,112.3z"/>
<path class="st0" d="M135,99.1c0,0-1.4,2.1-1.8,3.2c-0.7,1.4-0.4,2.1,0.4,2.9c1.1,0.4,1.4,0,2.9-1.8c1.8-2.1,2.9-2.5,4.6-1.8
	c2.5,1.1,2.9,3.2,1.8,5.3c-0.7,1.4-2.1,3.6-2.1,3.6l-1.1-1.1c0,0,1.4-2.1,1.8-3.2c0.7-1.4,0.4-2.1-0.7-2.9c-1.1-0.4-1.4,0-2.9,1.4
	c-1.8,2.1-2.9,2.9-5,1.8c-2.1-1.1-2.5-2.9-1.4-5c0.7-1.4,2.1-3.2,2.1-3.2L135,99.1z"/>
<path class="st0" d="M133.6,97.7l2.5-8.6l1.8,0.4l-1.1,3.2l10,3.2l-0.7,1.8l-10-3.2l-1.1,3.2H133.6z"/>
<path class="st0" d="M136.5,88.1l1.1-7.5l1.8,0.4l-1.1,5.7l3.6,0.7l0.7-4.6l1.8,0.4l-0.7,4.6l3.6,0.7l1.1-5.7l1.8,0.4l-1.1,7.5
	L136.5,88.1z"/>
<path class="st0" d="M150,79.2l-12.1,0.4v-4.3c0-3.9,2.1-5,5.7-5c3.9,0,6.4,0.7,6.4,4.6L150,79.2z M139.7,74.9V77h8.9v-2.1
	c0-2.5-1.8-2.9-4.6-2.9C141.1,72,139.7,72.4,139.7,74.9z"/>
<path class="st1" d="M49.2,96.3c3.9,0.4,7.8,1.1,10.7,2.5c0,0,0.4,0,0.4,0.4c0,0,0,0,0.4,0l0,0c1.1,0.7,2.5,1.4,3.9,1.8
	c3.9,1.8,6.8,2.9,10.7,2.9c4.6,0,12.5-3.6,18.5-7.1c11.8-6.4,18.2-10.7,15-13.2c-2.9-2.5-11,2.5-18.9,6.4"/>
<path class="st1" d="M63.4,90.9c5.3,0.4,8.9,2.1,13.9,3.6c5,1.8,8.2,2.9,8.9,0c0.7-2.9-5-7.1-11-9.6c-4.3-1.8-7.5-5.3-11.8-5.7
	c-3.6-0.4-6.4,0.4-8.9,1.1c-1.8,0.7-3.6,1.1-5.3,1.4"/>
<path class="st1" d="M86.2,86.3c4.6-2.9,8.9-6.1,12.5-6.1c1.1,0,2.1,0.4,2.5,0.7c0.4,0.4,1.4,1.4,1.4,2.5"/>
<path class="st1" d="M83,84.5c3.9-2.9,6.1-5,8.9-5.3c0.7,0,1.1,0,1.4,0c0.4,0,1.8,0.7,1.4,2.1"/>
<path class="st1" d="M79.5,82.7c2.9-2.5,3.2-3.6,5-3.6c0.4,0,0.7,0,1.4,0c0.7,0.4,1.8,0.7,1.8,1.8"/>
<path class="st1" d="M48.5,99.1h-6.8c-0.4,0-0.7-0.4-0.7-0.7V79.5c0-0.4,0.4-0.7,0.7-0.7h6.8c0.4,0,0.7,0.4,0.7,0.7v19.2
	C49.2,99.1,48.8,99.1,48.5,99.1z"/>
<path class="st1" d="M76.2,72.4L95.1,50c0.7-1.1,0.7-2.5,0-3.2l0,0c-1.1-1.1-2.9-1.4-3.9-0.4L73,61.7c-0.4,0.4-0.7,0.4-1.1,0
	L63.1,56c-1.4-0.7-2.9-0.7-3.9,0.4l0,0c-1.1,1.1-1.4,3.2,0,4.3l10,11.4C70.9,74.5,74.5,74.5,76.2,72.4z"/>
<path class="st0" d="M75.2,21.8c29.2,0,52.7,23.9,52.7,52.7s-23.9,52.7-52.7,52.7s-53.1-23.5-53.1-52.4S46,21.8,75.2,21.8
	 M75.2,19.3c-30.6,0-55.6,24.9-55.6,55.6s24.9,55.6,55.6,55.6s55.6-24.9,55.6-55.6C130.8,43.9,105.8,19.3,75.2,19.3L75.2,19.3z"/>
</svg>
