<?xml version="1.0" encoding="UTF-8"?>
<svg id="Ebene_1" data-name="Ebene 1" xmlns="http://www.w3.org/2000/svg" viewBox="0 0 42.21 36.6">
  <defs>
    <style>
      .cls-1 {
        stroke-linejoin: round;
      }

      .cls-1, .cls-2 {
        fill: none;
        stroke: #7aa069;
        stroke-linecap: round;
        stroke-width: .75px;
      }

      .cls-3 {
        fill: #7aa069;
      }

      .cls-2 {
        stroke-miterlimit: 10;
      }
    </style>
  </defs>
  <path class="cls-3" d="M1.81,18.6c-1.2,.1-1.7-.3-1.8-1.1-.1-.8,.3-1.3,1.5-1.4,1.3-.1,1.8,.3,1.8,1.1,.2,.8-.2,1.3-1.5,1.4Zm-.2-1.9c-.9,.1-1.2,.3-1.1,.8,0,.4,.3,.6,1.2,.5,1-.1,1.2-.3,1.2-.8,0-.4-.3-.6-1.3-.5Z"/>
  <path class="cls-3" d="M4.11,20.2v.3l-3.6-.2v-.3l3.6,.2Zm-2.5,1.5c-.5,.1-.8,0-.8-.4-.1-.3,.1-.6,.6-.7s.7,0,.8,.4c0,.3-.2,.6-.6,.7Zm-.5-.5c0,.1,.2,.1,.4,.1,.2-.1,.3-.1,.3-.2s-.2-.1-.4-.1c-.3,0-.4,.1-.3,.2Zm2-1.4c-.5,.1-.8,0-.8-.4-.1-.4,.1-.6,.6-.7s.7,0,.8,.4c.1,.4-.1,.6-.6,.7Zm-.5-.4c0,.1,.2,.1,.4,.1,.3-.1,.4-.1,.3-.3,0-.1-.2-.1-.4-.1-.2,.1-.3,.1-.3,.3Z"/>
  <path class="cls-3" d="M2.81,23.8l-1,.5-.2-.5,3.1-1.5,.5,1.1c.3,.7,.2,1.2-.5,1.6-.7,.3-1.3,.2-1.6-.5l-.3-.7Zm.8,.4c.2,.4,.5,.4,.9,.2,.4-.2,.5-.5,.3-.8l-.3-.6-1.3,.6,.4,.6Z"/>
  <path class="cls-3" d="M5.51,27.5l-.8-1.2-1.2,.9-.3-.5,2.8-2,.3,.5-1.2,.8,.9,1.2,1.2-.8,.3,.5-2.8,2-.3-.5,1.1-.9Z"/>
  <path class="cls-3" d="M6.51,28.4c.8-.8,1.5-1,2.2-.3s.5,1.4-.3,2.2-1.5,1-2.2,.3c-.7-.8-.5-1.4,.3-2.2Zm1.6,1.5c.6-.6,.8-1,.3-1.5s-.9-.3-1.5,.3-.8,1-.3,1.5,.8,.3,1.5-.3Z"/>
  <path class="cls-3" d="M11.41,30.9s-.5-.5-.8-.6c-.3-.2-.6-.2-.8,0-.2,.3-.1,.4,.3,.9,.5,.6,.6,.9,.2,1.4-.4,.6-1,.6-1.6,.2-.4-.3-.8-.8-.8-.8l.3-.3s.5,.5,.8,.7,.6,.2,.8-.1c.2-.2,.1-.4-.3-.8-.5-.6-.6-1-.3-1.4,.4-.6,.9-.5,1.5-.1,.4,.3,.8,.7,.8,.7l-.1,.2Z"/>
  <path class="cls-3" d="M11.51,33.1l-.5,.9-.5-.3,1.6-3.1,1.1,.6c.7,.4,.9,.9,.5,1.6-.4,.7-.9,.9-1.6,.5l-.6-.2Zm.9-.1c.4,.2,.7,0,.9-.4s.1-.7-.2-.9l-.6-.3-.6,1.2,.5,.4Z"/>
  <path class="cls-3" d="M15.91,34.5l-1.4-.4-.4,1.4-.6-.2,1-3.3,.5,.2-.4,1.4,1.4,.4,.4-1.4,.5,.2-1,3.3-.5-.2,.5-1.4Z"/>
  <path class="cls-3" d="M18.11,33l1.1,.1,.4,3.5-.6-.1-.1-.8-1.3-.2-.2,.8-.6-.1,1.3-3.2Zm-.3,2.1l1.1,.1-.2-1.8h-.2l-.7,1.7Z"/>
  <path class="cls-3" d="M19.81,33.2h2.5v.5h-1v2.9h-.6v-2.9h-1l.1-.5Z"/>
  <path class="cls-3" d="M22.61,33.2l2.1-.3,.1,.4-1.6,.2,.1,1,1.3-.2,.1,.5-1.3,.2,.1,1,1.6-.2,.1,.5-2.1,.3-.5-3.4Z"/>
  <path class="cls-3" d="M28.31,32.4c.2,.4,0,.7-.3,1.2l.8,.3c0-.1-.1-.5-.1-.7l.5-.2c.1,.3,.1,.8,.1,1l.8,.3-.2,.4-.7-.3c-.1,.4-.4,.7-.8,.8-.9,.4-1.4,.1-1.6-.5-.2-.5-.1-.9,.3-1.2-.4-.2-.5-.3-.6-.6-.2-.4,.1-.8,.6-1,.7-.1,1.1,0,1.2,.5Zm-.8,.9l.1,.1c.2-.3,.3-.5,.2-.7-.1-.2-.3-.3-.5-.2s-.3,.3-.2,.5c.1,.1,.2,.2,.4,.3Zm1.2,1.1l-1.2-.5c-.3,.2-.3,.5-.2,.8,.1,.4,.4,.5,.9,.3,.2-.2,.5-.4,.5-.6Z"/>
  <path class="cls-3" d="M32.01,30.1s-.6,.3-.9,.5-.4,.5-.3,.7c.2,.3,.4,.2,.9,0,.7-.2,1-.2,1.4,.3,.4,.6,.2,1.2-.4,1.5l-1,.5-.2-.4s.6-.3,.9-.5c.4-.2,.4-.5,.2-.8-.2-.2-.3-.2-.9-.1-.7,.3-1.1,.2-1.4-.3-.4-.6-.2-1.1,.4-1.4,.4-.2,1-.5,1-.5l.3,.5Z"/>
  <path class="cls-3" d="M32.11,29.3l.4-.4,2.2,2.6-.4,.4-2.2-2.6Z"/>
  <path class="cls-3" d="M35.51,30.9l-2.4-2.4,.4-.4,2.1,2.1,1-1,.4,.3-1.5,1.4Z"/>
  <path class="cls-3" d="M34.61,26.9l.4-.4,2.7,2.2-.4,.4-2.7-2.2Z"/>
  <path class="cls-3" d="M39.31,26c-.1,.2-.3,.6-.4,.9-.6,.9-1.2,.8-2.2,.1s-1.3-1.2-.8-2c.2-.3,.5-.6,.6-.8l.4,.3c-.2,.2-.4,.5-.5,.7-.3,.5-.2,.8,.6,1.4,.8,.5,1.1,.6,1.5,0,.1-.2,.3-.6,.4-.8l.4,.2Z"/>
  <path class="cls-3" d="M38.21,24.7c-1-.5-1.5-1-1.1-2s1.1-1,2.2-.5c1.1,.5,1.5,1,1,2-.4,.9-1.1,1-2.1,.5Zm.9-2c-.8-.4-1.3-.4-1.5,.2-.3,.6,.1,.9,.9,1.3,.8,.3,1.2,.4,1.5-.2,.2-.7-.1-1-.9-1.3Z"/>
  <path class="cls-3" d="M37.91,21.1l.2-.9,3.1-.3v-.1l-2.8-.7,.1-.5,3.3,.7-.2,.9-3.1,.3v.1l2.9,.7-.1,.5-3.4-.7Z"/>
  <path class="cls-3" d="M38.51,17.9l.2-2.2h.5l-.1,1.6,1,.1,.1-1.3h.5l-.1,1.3,1,.1,.1-1.6h.5l-.2,2.2-3.5-.2Z"/>
  <line class="cls-1" x1="22.71" y1="9" x2="21.91" y2="9"/>
  <path class="cls-1" d="M22.81,8.9v-1h.1c.3,0,.6-.3,.6-.6h0c0-.3-.3-.6-.6-.6h-4.6c-.3,0-.6,.3-.6,.6h0c0,.3,.3,.6,.6,.6h.1v3.2c0,.7-.2,1.4-.5,2l-4.4,7.7c-1,1.7,.2,3.7,2.2,3.7h10c1.9,0,3.1-2.1,2.2-3.7l-1.7-3"/>
  <path class="cls-1" d="M20.41,14.9c-.4,.1-.8,.1-1.3-.1-.6-.2-1.2-.5-1.7-.7"/>
  <path class="cls-1" d="M25.71,14.8l3.2-3.8c.1-.2,.1-.4,0-.6h0c-.2-.2-.5-.2-.7-.1l-3.1,2.6q-.1,.1-.2,0l-1.5-.9c-.2-.1-.5-.1-.7,.1h0c-.2,.2-.2,.5,0,.8l1.7,1.9c.4,.4,.9,.3,1.3,0Z"/>
  <path class="cls-1" d="M26.91,10.2c-.6-.4-1.2-.6-2-.6-2,0-3.6,1.6-3.6,3.6s1.6,3.6,3.6,3.6,3.6-1.6,3.6-3.6v-.3"/>
  <line class="cls-2" x1="25.01" y1="22.5" x2="25.01" y2="20"/>
  <line class="cls-2" x1="22.71" y1="22.5" x2="22.71" y2="20.7"/>
  <line class="cls-2" x1="20.41" y1="22.5" x2="20.41" y2="18"/>
  <line class="cls-2" x1="18.21" y1="22.5" x2="18.21" y2="19.3"/>
  <line class="cls-2" x1="15.91" y1="22.5" x2="15.91" y2="21.3"/>
  <path class="cls-3" d="M21.11,.7c8.2,0,14.8,6.7,14.8,14.8s-6.7,14.8-14.8,14.8S6.21,23.7,6.21,15.6,12.91,.7,21.11,.7m0-.7C12.51,0,5.51,7,5.51,15.6s7,15.6,15.6,15.6,15.6-7,15.6-15.6c-.1-8.7-7-15.6-15.6-15.6h0Z"/>
</svg>