<?xml version="1.0" encoding="UTF-8"?>
<svg id="Ebene_1" data-name="Ebene 1" xmlns="http://www.w3.org/2000/svg" viewBox="0 0 42.1 36.6">
  <defs>
    <style>
      .cls-1 {
        fill: none;
        stroke: #7aa069;
        stroke-linecap: round;
        stroke-linejoin: round;
        stroke-width: .75px;
      }

      .cls-2 {
        fill: #7aa069;
      }
    </style>
  </defs>
  <path class="cls-2" d="M0,14.7l3.4-.1v1.2c0,1.1-.6,1.4-1.6,1.4C.7,17.2,0,17,0,15.9v-1.2Zm3,1.1v-.6H.5v.6c0,.7,.5,.8,1.3,.8,.7,0,1.2-.1,1.2-.8Z"/>
  <path class="cls-2" d="M3.5,17.6l.4,2.1-.5,.1-.3-1.5-1,.2,.2,1.3-.5,.1-.2-1.3-1,.2,.4,1.5-.5,.1-.4-2.1,3.4-.7Z"/>
  <path class="cls-2" d="M2.1,21.4l-1.2,.4-.1-.5,3.2-1.1,.4,1.2c.2,.7,.1,1.2-.7,1.4-.5,.2-.8,.1-1.1-.2l-1.1,1-.2-.6,1-.9-.2-.7Zm1.9,.1l-.2-.7-1.2,.4,.2,.8c.1,.3,.4,.4,.8,.3,.3-.1,.5-.4,.4-.8Z"/>
  <path class="cls-2" d="M4.9,22.8l.5,.8-1.9,2,2.7-.7,.5,.8-3,1.7-.3-.5,2.4-1.2v-.1l-2.7,.6-.3-.5,1.9-2v-.1l-2.4,1.4-.3-.5,2.9-1.7Z"/>
  <path class="cls-2" d="M7.3,26.6l.7,.8-2,2.9-.4-.4,.5-.6-.9-1-.7,.3-.4-.4,3.2-1.6Zm-1.6,1.5l.7,.8,1-1.5-.1-.1-1.6,.8Z"/>
  <path class="cls-2" d="M8.5,28l1.9,1.7-.3,.4-.8-.8-1.9,2.2-.4-.4,1.9-2.2-.8-.6,.4-.3Z"/>
  <path class="cls-2" d="M9.5,31.1c.6-1,1.2-1.3,2.1-.8,.9,.6,.8,1.3,.2,2.3s-1.2,1.3-2.1,.7c-.9-.5-.9-1.2-.2-2.2Zm1.8,1.2c.5-.7,.6-1.2,0-1.5-.6-.4-.9-.1-1.4,.7-.5,.7-.6,1.1,0,1.5,.6,.3,.9,0,1.4-.7Z"/>
  <path class="cls-2" d="M11.7,34.5l1.4-3.1,.5,.2-1.2,2.7,1.2,.6-.2,.5-1.7-.9Z"/>
  <path class="cls-2" d="M14.4,33.8c.3-1.1,.8-1.6,1.8-1.3,1,.3,1.2,1,.9,2.1-.3,1.1-.8,1.6-1.8,1.3-1-.3-1.2-1-.9-2.1Zm2.2,.6c.2-.8,.2-1.3-.4-1.5s-.9,.2-1.1,1c-.2,.8-.2,1.3,.4,1.4,.6,.3,.8,0,1.1-.9Z"/>
  <path class="cls-2" d="M19.2,34.7l1,.1-.2,1.7h-1.2c-1.1-.1-1.3-.8-1.2-1.9,.1-1.2,.5-1.7,1.5-1.6,.5,.1,1.1,.3,1.1,.3l-.1,.4s-.6-.1-1-.2c-.7-.1-.9,.2-1,1.2-.1,.9,0,1.3,.7,1.4h.5l.1-.8h-.4l.2-.6Z"/>
  <path class="cls-2" d="M20.9,33.2h.6l.1,3.4h-.6l-.1-3.4Z"/>
  <path class="cls-2" d="M24.6,36.3c-.2,.1-.6,.2-1,.2-1,.1-1.3-.4-1.5-1.6-.1-1.2,.1-1.8,1.1-1.9h1v.5h-.9c-.6,.1-.7,.4-.6,1.4,.1,.9,.3,1.2,.9,1.2,.3,0,.6-.1,.9-.2l.1,.4Z"/>
  <path class="cls-2" d="M25.1,32.7l1.1-.3,1.7,3.1-.5,.1-.4-.7-1.3,.4v.8l-.5,.1-.1-3.5Zm.6,2.1l1.1-.3-.9-1.6-.2,.1v1.8Z"/>
  <path class="cls-2" d="M28.7,35.2l-1.4-3.1,.5-.2,1.2,2.7,1.3-.5,.2,.5-1.8,.6Z"/>
  <path class="cls-2" d="M31,34.1l-1.7-2.9,.5-.3,1.5,2.5,1.2-.7,.3,.4-1.8,1Z"/>
  <path class="cls-2" d="M33.9,32.2l-.4,.3-.8-1.1-2.1-1,.5-.4,1.5,.7-.3-1.6,.5-.4,.4,2.3,.7,1.2Z"/>
  <path class="cls-2" d="M33.4,28.2l1.7-1.9,.4,.3-.7,.8,2.2,1.9-.4,.4-2.2-1.9-.6,.7-.4-.3Z"/>
  <path class="cls-2" d="M35.2,26.1l1.2-1.8,.4,.3-.9,1.3,.8,.5,.7-1.1,.4,.3-.7,1.1,.8,.6,.9-1.3,.4,.3-1.2,1.8-2.8-2Z"/>
  <path class="cls-2" d="M37.9,22.4s-.4,.6-.5,.9c-.2,.4-.1,.6,.1,.8,.3,.1,.4,0,.8-.5,.5-.6,.8-.7,1.3-.5,.7,.3,.8,.9,.5,1.5-.2,.4-.6,1-.6,1l-.3-.3s.4-.6,.5-.9c.2-.4,.1-.6-.2-.8-.3-.1-.4,0-.8,.4-.5,.6-.8,.8-1.4,.5-.6-.3-.7-.8-.4-1.4,.2-.4,.6-.9,.6-.9l.4,.2Z"/>
  <path class="cls-2" d="M37.5,22l.7-2.4,.5,.1-.3,.9,2.8,.9-.2,.5-2.8-.9-.3,.9h-.4Z"/>
  <path class="cls-2" d="M38.3,19.3l.3-2.1,.5,.1-.3,1.6,1,.2,.2-1.3,.5,.1-.2,1.3,1,.2,.3-1.6,.5,.1-.3,2.1-3.5-.7Z"/>
  <path class="cls-2" d="M42.1,16.8l-3.4,.1v-1.2c0-1.1,.6-1.4,1.6-1.4,1.1,0,1.8,.2,1.8,1.3v1.2Zm-2.9-1.2v.6h2.5v-.6c0-.7-.5-.8-1.3-.8s-1.2,.1-1.2,.8Z"/>
  <path class="cls-1" d="M13.8,21.6c1.1,.1,2.2,.3,3,.7,0,0,.1,0,.1,.1h.1c.3,.2,.7,.4,1.1,.5,1.1,.5,1.9,.8,3,.8,1.3,0,3.5-1,5.2-2,3.3-1.8,5.1-3,4.2-3.7-.8-.7-3.1,.7-5.3,1.8"/>
  <path class="cls-1" d="M17.8,20.1c1.5,.1,2.5,.6,3.9,1,1.4,.5,2.3,.8,2.5,0s-1.4-2-3.1-2.7c-1.2-.5-2.1-1.5-3.3-1.6-1-.1-1.8,.1-2.5,.3-.5,.2-1,.3-1.5,.4"/>
  <path class="cls-1" d="M24.2,18.8c1.3-.8,2.5-1.7,3.5-1.7,.3,0,.6,.1,.7,.2s.4,.4,.4,.7"/>
  <path class="cls-1" d="M23.3,18.3c1.1-.8,1.7-1.4,2.5-1.5h.4c.1,0,.5,.2,.4,.6"/>
  <path class="cls-1" d="M22.3,17.8c.8-.7,.9-1,1.4-1h.4c.2,.1,.5,.2,.5,.5"/>
  <path class="cls-1" d="M13.6,22.4h-1.9c-.1,0-.2-.1-.2-.2v-5.3c0-.1,.1-.2,.2-.2h1.9c.1,0,.2,.1,.2,.2v5.4c0,.1-.1,.1-.2,.1Z"/>
  <path class="cls-1" d="M21.4,14.9l5.3-6.3c.2-.3,.2-.7,0-.9h0c-.3-.3-.8-.4-1.1-.1l-5.1,4.3c-.1,.1-.2,.1-.3,0l-2.5-1.6c-.4-.2-.8-.2-1.1,.1h0c-.3,.3-.4,.9,0,1.2l2.8,3.2c.5,.7,1.5,.7,2,.1Z"/>
  <path class="cls-2" d="M21.1,.7c8.2,0,14.8,6.7,14.8,14.8s-6.7,14.8-14.8,14.8S6.2,23.7,6.2,15.6,12.9,.7,21.1,.7m0-.7C12.5,0,5.5,7,5.5,15.6s7,15.6,15.6,15.6,15.6-7,15.6-15.6S29.7,0,21.1,0h0Z"/>
</svg>