<svg id="Komponente_273_3" data-name="Komponente 273 – 3" xmlns="http://www.w3.org/2000/svg" width="215.324" height="215.321" viewBox="0 0 215.324 215.321">
  <path id="Pfad_669" data-name="Pfad 669" d="M107.66,0,0,107.66l107.66,107.66L215.324,107.66ZM4.527,107.66,107.66,4.527,210.8,107.66,107.66,210.794Z" fill="#2e2d2b"/>
  <path id="Pfad_685" data-name="Pfad 685" d="M94.428,49.225a1.033,1.033,0,0,0-.2-.605c-.022-.032-.006-.07-.032-.1l-.019-.01-.01-.022a1.046,1.046,0,0,0-.663-.323,1.151,1.151,0,0,0-.208.022,1.021,1.021,0,0,0-.371.042c-7.962,3.512-17.486-.221-25.9-3.522-1.581-.618-3.131-1.226-4.632-1.77-6.675-2.439-15.088-.829-20,3.8-3.714,3.5-5.074,8.362-3.963,13.827a83.366,83.366,0,0,1-14.96-6.028,1.09,1.09,0,1,0-1,1.937A84.878,84.878,0,0,0,39.3,63.116C44.71,71.4,51.839,75.787,60.013,75.787c.24,0,.48,0,.717-.01,8.567-.266,17.509-5.353,25.064-13.853l.122-.109L85.9,61.8a66.825,66.825,0,0,0,8.423-12.05,1.024,1.024,0,0,0,.058-.295A.973.973,0,0,0,94.428,49.225ZM72.06,62.658a61.54,61.54,0,0,0,17.275-8.878,61.814,61.814,0,0,1-4.953,6.48C83.972,60.648,78.222,65.882,72.06,62.658ZM88.576,51.626A58.8,58.8,0,0,1,69.8,61.048a3.845,3.845,0,0,1-1.386-3.054c.231-3.2,4.777-6.621,6.934-7.949A31.893,31.893,0,0,0,88.576,51.626ZM72.729,49.18c-2.4,1.716-6.227,4.985-6.489,8.653a5.591,5.591,0,0,0,1.213,3.829A52.275,52.275,0,0,1,55.726,63.1a6.941,6.941,0,0,1-1.793-5.916c1.069-5.51,8.8-10.017,10.709-11.054.535.208,1.047.4,1.588.608C68.34,47.57,70.516,48.415,72.729,49.18ZM43.89,48.332C48.167,44.3,55.8,42.857,61.652,44.986c.118.045.243.1.362.141-3.23,1.969-9.175,6.246-10.225,11.637a8.639,8.639,0,0,0,1.175,6.246A60.591,60.591,0,0,1,40.823,61.2C39.079,54.661,41.489,50.592,43.89,48.332ZM60.663,73.594c-7.05.179-13.238-3.16-18.162-9.723A60.986,60.986,0,0,0,54.746,65.3a18.165,18.165,0,0,0,13.7,5.843c.788,0,1.533-.051,2.257-.118A25.358,25.358,0,0,1,60.663,73.594Zm16.1-6.24h0C76.3,67.569,65.9,72.1,57.791,65.21a53.77,53.77,0,0,0,11.5-1.735,11.2,11.2,0,0,0,6.829,2.407,12.039,12.039,0,0,0,3.006-.426C78.347,66.122,77.56,66.765,76.762,67.355Z" transform="translate(48.16 92.031)" fill="#2e2d2b"/>
  <text id="erhältlich" transform="translate(106.662 117.85)" fill="#2e2d2b" font-size="28" font-family="Helvetica-Bold, Helvetica" font-weight="700" letter-spacing="0.05em"><tspan x="-94.702" y="0">ERHÄLTLICH</tspan></text>
  <text id="Jetzt" transform="translate(106.662 83.85)" fill="#2e2d2b" font-size="16" font-family="Helvetica-Bold, Helvetica" font-weight="700" letter-spacing="0.05em"><tspan x="-26.045" y="0">JETZT</tspan></text>
</svg>
