<svg width="110" height="110" xmlns="http://www.w3.org/2000/svg">
    <defs>
        <style>.a,.c{opacity:0;}.b,.f{fill:none;}.b{stroke:#fff;stroke-width:2px;}.c{fill:#232323;}.d{fill:#2e2d2b;}.e{stroke:none;}</style>
    </defs>
    <g>
        <title>Layer 1</title>
        <g id="svg_1" class="a">
            <g id="svg_2" class="b">
                <circle id="svg_3" r="27.5" cy="27.5" cx="27.5" class="e"/>
                <circle id="svg_4" r="26.5" cy="27.5" cx="27.5" class="f"/>
            </g>
            <path id="svg_5" d="m27.5,18a9.5,9.5 0 1 1 -9.5,9.5a9.5,9.5 0 0 1 9.5,-9.5z" class="c"/>
        </g>
        <path stroke="null" id="svg_6" d="m38.5797,16.504l-5.09092,10.10064l-5.08386,-10.10064l-6.50311,0l9.17919,15.99298l0.05296,-0.03177l0,12.29659l4.70963,0l0,-12.29659l0.05296,0.03177l9.17919,-15.99298l-6.49604,0zm13.74761,9.43339a2.38659,2.38659 0 0 1 2.35482,2.35482l0,9.40514a2.35482,2.35482 0 1 1 -4.70963,0l0,-9.41926a2.38659,2.38659 0 0 1 2.35482,-2.35482l0,0.01412zm0,-4.70963a7.08563,7.08563 0 0 0 -7.06092,7.06092l0,9.40867a7.06092,7.06092 0 0 0 14.12184,0l0,-9.41926a7.08563,7.08563 0 0 0 -7.06092,-7.06092l0,0.01059zm21.18275,0l0,18.52785c-2.03354,1.7158 -4.69904,2.7467 -4.69904,-3.35747l0,-15.18097l-4.70963,0l0,16.13773l0,0c0.07414,3.8835 0.89321,10.90206 9.4122,5.2039l0,2.20654l4.70963,0l0,-23.55169l-4.70257,0l-0.01059,0.01412zm7.06092,47.09632a2.35835,2.35835 0 0 0 -2.35482,2.35482l0,2.35482l4.70963,0l0,-2.35482a2.35835,2.35835 0 0 0 -2.35482,-2.35482zm-21.18275,2.35482l0,12.35661c1.59577,1.59577 4.70963,1.76523 4.70963,-0.58959l0,-11.04328c0,-2.35482 -2.35129,-3.09974 -4.7061,-0.73787l-0.00353,0.01412zm32.58261,-11.36808a9.79349,9.79349 0 0 0 -9.62756,-9.44398c-5.13682,-0.25419 -16.88619,-0.38482 -27.20925,-0.38482s-22.90915,0.1271 -28.04244,0.38482a9.79349,9.79349 0 0 0 -9.63109,9.43339c-0.30715,5.5287 -0.46249,7.53047 -0.46249,10.29482s0.15534,6.90911 0.46249,12.43781a9.79349,9.79349 0 0 0 9.62756,9.44398c5.13682,0.25419 17.7229,0.38482 28.04244,0.38482s22.07243,-0.1271 27.20572,-0.38482a9.79349,9.79349 0 0 0 9.61697,-9.44398q0.38482,-6.90911 0.38482,-12.43781c0,-3.6858 -0.1271,-5.6911 -0.38482,-10.29482l0.01765,0.01059zm-60.83687,27.8412l-4.70963,0l0,-23.54816l-4.72728,0l0,-4.71316l14.12184,0l0,4.70963l-4.68492,0l0,23.55169zm18.83853,0l-4.70963,0l0,-2.20654c-8.95324,5.02737 -9.34159,0.1624 -9.4122,-3.7317l0,0l0,-12.91089l4.70257,0l0,12.97797c0,2.84555 2.65491,2.57017 4.70963,0.8579l0,-13.83587l4.70963,0l0,18.84912zm18.83853,-4.77671c0,4.92146 -5.0415,6.35483 -9.41926,2.53134l0,2.24537l-4.70963,0l0,-28.24367l4.70963,0l0,7.62932c4.70963,-4.70963 9.41926,-2.9444 9.41926,1.76523l0,14.07241zm18.83853,-9.35219l0,2.34069l-9.41926,0l0,4.70963a2.35482,2.35482 0 0 0 4.70963,0l0,-2.35482l4.70963,0l0,2.35482a7.06092,7.06092 0 0 1 -14.12184,0l0,-9.40867a7.06092,7.06092 0 0 1 14.12184,0l0,2.35835z" class="d"/>
    </g>
</svg>
