<?xml version="1.0" encoding="UTF-8"?><svg xmlns="http://www.w3.org/2000/svg" viewBox="0 0 42.52 42.52" width="150" height="150"><defs><style>.cls-1{fill:none;}.cls-2{fill:#7aa069;}</style></defs><g id="text"><g><path class="cls-2" d="m17.13,38.45l-1.86,3-1.04-.34.26-3.52.55.18-.26,3,.24.08,1.55-2.58.55.18Z"/><path class="cls-2" d="m17.41,38.5l2.13.35-.08.48-1.58-.26-.16.96,1.29.21-.08.47-1.29-.21-.16.99,1.58.26-.08.48-2.13-.35.55-3.38Z"/><path class="cls-2" d="m21.31,40.51h.98s-.03,1.76-.03,1.76c-.04,0-.73.1-1.15.1-1.09-.02-1.36-.65-1.34-1.79.02-1.2.36-1.77,1.38-1.75.53,0,1.16.15,1.16.15l-.03.44s-.6-.09-1.06-.1c-.69-.01-.87.3-.88,1.26-.01.93.13,1.28.83,1.29.23,0,.49-.02.55-.04v-.84s-.41,0-.41,0v-.49Z"/><path class="cls-2" d="m23.3,38.78l1.09-.16,1.34,3.26-.55.08-.29-.7-1.3.19-.08.75-.55.08.33-3.51Zm.33,2.17l1.08-.16-.67-1.65-.25.04-.17,1.78Z"/><path class="cls-2" d="m25.51,38.43l.92-.3,1.9,2.46.07-.02-.91-2.79.53-.17,1.07,3.25-.9.29-1.93-2.46-.07.02.92,2.79-.53.17-1.07-3.25Z"/></g><rect class="cls-1" width="42.52" height="42.52"/></g><g id="icon"><path class="cls-2" d="m28.05,13.74c-.08.01-2.01.32-4.38,1.05-3.21.98-5.56,2.2-6.99,3.62-1.84,1.84-2,3.91-1.81,5.33.14,1.07.5,1.92.7,2.35,0,0-2.82,2.82-2.83,2.83-.17.17-.17.44,0,.61s.44.17.61,0l2.84-2.83c.43.21,1.28.56,2.34.7,1.42.19,3.49.03,5.33-1.8,1.43-1.42,2.65-3.77,3.63-6.98.73-2.37,1.04-4.3,1.05-4.38.02-.14-.02-.28-.12-.37-.1-.1-.24-.14-.37-.12Zm-4.8,11.24c-1.27,1.27-2.81,1.79-4.58,1.56-.77-.1-1.41-.33-1.84-.5l2.62-2.61h3.21c.12,0,.23-.05.3-.12.08-.08.13-.19.13-.3,0-.24-.19-.43-.43-.43h-2.35s1.6-1.6,1.6-1.6h1.9c.12,0,.23-.05.3-.13s.13-.19.13-.3c0-.24-.19-.43-.43-.43h-1.04s1.5-1.5,1.5-1.5c.17-.17.17-.44,0-.61-.17-.17-.44-.17-.61,0l-1.5,1.5v-1.04c0-.24-.19-.43-.43-.43-.24,0-.43.19-.43.43v1.9s-1.6,1.6-1.6,1.6v-2.35c0-.24-.19-.43-.43-.43-.24,0-.43.19-.43.43v3.21s-2.62,2.61-2.62,2.61c-.18-.42-.4-1.07-.5-1.84-.23-1.77.3-3.31,1.57-4.58,2.65-2.65,8.41-3.95,10.29-4.32-.37,1.87-1.67,7.63-4.33,10.28Z"/></g><g id="rahmen"><path class="cls-2" d="m21.26,6.42c8.18,0,14.84,6.66,14.84,14.84s-6.66,14.84-14.84,14.84-14.84-6.66-14.84-14.84,6.66-14.84,14.84-14.84m0-.75c-8.61,0-15.59,6.98-15.59,15.59s6.98,15.59,15.59,15.59,15.59-6.98,15.59-15.59-6.98-15.59-15.59-15.59h0Z"/></g></svg>